  0
SECTION
  2
HEADER
  9
$ACADVER
  1
AC1015
  9
$ACADMAINTVER
 70
     6
  9
$DWGCODEPAGE
  3
ANSI_1252
  9
$INSBASE
 10
0.0
 20
0.0
 30
0.0
  9
$EXTMIN
 10
453.8109016625
 20
93.9118890664
 30
0.0
  9
$EXTMAX
 10
679.7472470636
 20
280.4711949261
 30
0.0
  9
$LIMMIN
 10
0.0
 20
0.0
  9
$LIMMAX
 10
420.0
 20
297.0
  9
$ORTHOMODE
 70
     0
  9
$REGENMODE
 70
     1
  9
$FILLMODE
 70
     1
  9
$QTEXTMODE
 70
     0
  9
$MIRRTEXT
 70
     1
  9
$LTSCALE
 40
1.0
  9
$ATTMODE
 70
     1
  9
$TEXTSIZE
 40
3.5
  9
$TRACEWID
 40
1.0
  9
$TEXTSTYLE
  7
Standard
  9
$CLAYER
  8
0
  9
$CELTYPE
  6
ByLayer
  9
$CECOLOR
 62
   256
  9
$CELTSCALE
 40
1.0
  9
$DISPSILH
 70
     0
  9
$DIMSCALE
 40
1.0
  9
$DIMASZ
 40
3.302
  9
$DIMEXO
 40
1.0
  9
$DIMDLI
 40
3.75
  9
$DIMRND
 40
0.0
  9
$DIMDLE
 40
0.0
  9
$DIMEXE
 40
1.0
  9
$DIMTP
 40
0.0
  9
$DIMTM
 40
0.0
  9
$DIMTXT
 40
3.5
  9
$DIMCEN
 40
2.5
  9
$DIMTSZ
 40
0.0
  9
$DIMTOL
 70
     0
  9
$DIMLIM
 70
     0
  9
$DIMTIH
 70
     1
  9
$DIMTOH
 70
     1
  9
$DIMSE1
 70
     0
  9
$DIMSE2
 70
     0
  9
$DIMTAD
 70
     1
  9
$DIMZIN
 70
     0
  9
$DIMBLK
  1

  9
$DIMASO
 70
     1
  9
$DIMSHO
 70
     1
  9
$DIMPOST
  1

  9
$DIMAPOST
  1

  9
$DIMALT
 70
     0
  9
$DIMALTD
 70
     3
  9
$DIMALTF
 40
0.0393700787
  9
$DIMLFAC
 40
1.0
  9
$DIMTOFL
 70
     1
  9
$DIMTVP
 40
0.0
  9
$DIMTIX
 70
     0
  9
$DIMSOXD
 70
     0
  9
$DIMSAH
 70
     0
  9
$DIMBLK1
  1

  9
$DIMBLK2
  1

  9
$DIMSTYLE
  2
ISO-25
  9
$DIMCLRD
 70
     0
  9
$DIMCLRE
 70
     0
  9
$DIMCLRT
 70
     0
  9
$DIMTFAC
 40
1.0
  9
$DIMGAP
 40
1.524
  9
$DIMJUST
 70
     0
  9
$DIMSD1
 70
     0
  9
$DIMSD2
 70
     0
  9
$DIMTOLJ
 70
     0
  9
$DIMTZIN
 70
     0
  9
$DIMALTZ
 70
     0
  9
$DIMALTTZ
 70
     0
  9
$DIMUPT
 70
     0
  9
$DIMDEC
 70
     2
  9
$DIMTDEC
 70
     2
  9
$DIMALTU
 70
     2
  9
$DIMALTTD
 70
     3
  9
$DIMTXSTY
  7
Standard
  9
$DIMAUNIT
 70
     0
  9
$DIMADEC
 70
     2
  9
$DIMALTRND
 40
0.0
  9
$DIMAZIN
 70
     0
  9
$DIMDSEP
 70
    44
  9
$DIMATFIT
 70
     3
  9
$DIMFRAC
 70
     0
  9
$DIMLDRBLK
  1

  9
$DIMLUNIT
 70
     2
  9
$DIMLWD
 70
    -2
  9
$DIMLWE
 70
    -2
  9
$DIMTMOVE
 70
     0
  9
$LUNITS
 70
     2
  9
$LUPREC
 70
     2
  9
$SKETCHINC
 40
1.0
  9
$FILLETRAD
 40
10.0
  9
$AUNITS
 70
     0
  9
$AUPREC
 70
     2
  9
$MENU
  1
.
  9
$ELEVATION
 40
0.0
  9
$PELEVATION
 40
0.0
  9
$THICKNESS
 40
0.0
  9
$LIMCHECK
 70
     0
  9
$CHAMFERA
 40
0.0
  9
$CHAMFERB
 40
0.0
  9
$CHAMFERC
 40
0.0
  9
$CHAMFERD
 40
0.0
  9
$SKPOLY
 70
     0
  9
$TDCREATE
 40
2458863.736924005
  9
$TDUCREATE
 40
2458863.736924005
  9
$TDUPDATE
 40
2458863.736984549
  9
$TDUUPDATE
 40
2458863.736984549
  9
$TDINDWG
 40
0.0000000116
  9
$TDUSRTIMER
 40
0.0000000116
  9
$USRTIMER
 70
     1
  9
$ANGBASE
 50
0.0
  9
$ANGDIR
 70
     0
  9
$PDMODE
 70
     0
  9
$PDSIZE
 40
-1.0
  9
$PLINEWID
 40
0.0
  9
$SPLFRAME
 70
     0
  9
$SPLINETYPE
 70
     6
  9
$SPLINESEGS
 70
     8
  9
$HANDSEED
  5
1A1
  9
$SURFTAB1
 70
     6
  9
$SURFTAB2
 70
     6
  9
$SURFTYPE
 70
     6
  9
$SURFU
 70
     6
  9
$SURFV
 70
     6
  9
$UCSBASE
  2

  9
$UCSNAME
  2

  9
$UCSORG
 10
0.0
 20
0.0
 30
0.0
  9
$UCSXDIR
 10
1.0
 20
0.0
 30
0.0
  9
$UCSYDIR
 10
0.0
 20
1.0
 30
0.0
  9
$UCSORTHOREF
  2

  9
$UCSORTHOVIEW
 70
     0
  9
$UCSORGTOP
 10
0.0
 20
0.0
 30
0.0
  9
$UCSORGBOTTOM
 10
0.0
 20
0.0
 30
0.0
  9
$UCSORGLEFT
 10
0.0
 20
0.0
 30
0.0
  9
$UCSORGRIGHT
 10
0.0
 20
0.0
 30
0.0
  9
$UCSORGFRONT
 10
0.0
 20
0.0
 30
0.0
  9
$UCSORGBACK
 10
0.0
 20
0.0
 30
0.0
  9
$PUCSBASE
  2

  9
$PUCSNAME
  2

  9
$PUCSORG
 10
0.0
 20
0.0
 30
0.0
  9
$PUCSXDIR
 10
1.0
 20
0.0
 30
0.0
  9
$PUCSYDIR
 10
0.0
 20
1.0
 30
0.0
  9
$PUCSORTHOREF
  2

  9
$PUCSORTHOVIEW
 70
     0
  9
$PUCSORGTOP
 10
0.0
 20
0.0
 30
0.0
  9
$PUCSORGBOTTOM
 10
0.0
 20
0.0
 30
0.0
  9
$PUCSORGLEFT
 10
0.0
 20
0.0
 30
0.0
  9
$PUCSORGRIGHT
 10
0.0
 20
0.0
 30
0.0
  9
$PUCSORGFRONT
 10
0.0
 20
0.0
 30
0.0
  9
$PUCSORGBACK
 10
0.0
 20
0.0
 30
0.0
  9
$USERI1
 70
     0
  9
$USERI2
 70
     0
  9
$USERI3
 70
     0
  9
$USERI4
 70
     0
  9
$USERI5
 70
     0
  9
$USERR1
 40
0.0
  9
$USERR2
 40
0.0
  9
$USERR3
 40
0.0
  9
$USERR4
 40
0.0
  9
$USERR5
 40
0.0
  9
$WORLDVIEW
 70
     1
  9
$SHADEDGE
 70
     3
  9
$SHADEDIF
 70
    70
  9
$TILEMODE
 70
     1
  9
$MAXACTVP
 70
    64
  9
$PINSBASE
 10
0.0
 20
0.0
 30
0.0
  9
$PLIMCHECK
 70
     0
  9
$PEXTMIN
 10
1.0000000000E+20
 20
1.0000000000E+20
 30
1.0000000000E+20
  9
$PEXTMAX
 10
-1.0000000000E+20
 20
-1.0000000000E+20
 30
-1.0000000000E+20
  9
$PLIMMIN
 10
0.0
 20
0.0
  9
$PLIMMAX
 10
420.0
 20
297.0
  9
$UNITMODE
 70
     0
  9
$VISRETAIN
 70
     1
  9
$PLINEGEN
 70
     0
  9
$PSLTSCALE
 70
     1
  9
$TREEDEPTH
 70
  3020
  9
$CMLSTYLE
  2
Standard
  9
$CMLJUST
 70
     0
  9
$CMLSCALE
 40
20.0
  9
$PROXYGRAPHICS
 70
     1
  9
$MEASUREMENT
 70
     1
  9
$CELWEIGHT
370
    -1
  9
$ENDCAPS
280
     0
  9
$JOINSTYLE
280
     0
  9
$LWDISPLAY
290
     1
  9
$INSUNITS
 70
     4
  9
$HYPERLINKBASE
  1

  9
$STYLESHEET
  1

  9
$XEDIT
290
     1
  9
$CEPSNTYPE
380
     0
  9
$PSTYLEMODE
290
     1
  9
$FINGERPRINTGUID
  2
{FC2CEB31-B767-47AC-8A8A-C4229CAECA5F}
  9
$VERSIONGUID
  2
{FAEB1C32-E019-11D5-929B-00C0DF256EC4}
  9
$EXTNAMES
290
     1
  9
$PSVPSCALE
 40
0.0
  9
$OLESTARTUP
290
     0
  0
ENDSEC
  0
SECTION
  2
CLASSES
  0
CLASS
  1
ACDBDICTIONARYWDFLT
  2
AcDbDictionaryWithDefault
  3
ObjectDBX Classes
 90
        0
280
     0
281
     0
  0
CLASS
  1
VISUALSTYLE
  2
AcDbVisualStyle
  3
ObjectDBX Classes
 90
     4095
280
     0
281
     0
  0
CLASS
  1
MATERIAL
  2
AcDbMaterial
  3
ObjectDBX Classes
 90
     1153
280
     0
281
     0
  0
CLASS
  1
SCALE
  2
AcDbScale
  3
ObjectDBX Classes
 90
     1153
280
     0
281
     0
  0
CLASS
  1
TABLESTYLE
  2
AcDbTableStyle
  3
ObjectDBX Classes
 90
     4095
280
     0
281
     0
  0
CLASS
  1
MLEADERSTYLE
  2
AcDbMLeaderStyle
  3
ACDB_MLEADERSTYLE_CLASS
 90
     4095
280
     0
281
     0
  0
CLASS
  1
SUN
  2
AcDbSun
  3
SCENEOE
 90
     1153
280
     0
281
     0
  0
CLASS
  1
ACDBPLACEHOLDER
  2
AcDbPlaceHolder
  3
ObjectDBX Classes
 90
        0
280
     0
281
     0
  0
CLASS
  1
LAYOUT
  2
AcDbLayout
  3
ObjectDBX Classes
 90
        0
280
     0
281
     0
  0
ENDSEC
  0
SECTION
  2
TABLES
  0
TABLE
  2
VPORT
  5
8
330
0
100
AcDbSymbolTable
 70
     1
  0
VPORT
  5
29
330
8
100
AcDbSymbolTableRecord
100
AcDbViewportTableRecord
  2
*Active
 70
     0
 10
0.0
 20
0.0
 11
1.0
 21
1.0
 12
566.7790743631
 22
187.1915419963
 13
0.0
 23
0.0
 14
10.0
 24
10.0
 15
10.0
 25
10.0
 16
0.0
 26
0.0
 36
1.0
 17
0.0
 27
0.0
 37
0.0
 40
190.2904919769
 41
1.2110698223
 42
50.0
 43
0.0
 44
0.0
 50
0.0
 51
0.0
 71
     0
 72
   100
 73
     1
 74
     3
 75
     0
 76
     0
 77
     0
 78
     0
281
     0
 65
     1
110
0.0
120
0.0
130
0.0
111
1.0
121
0.0
131
0.0
112
0.0
122
1.0
132
0.0
 79
     0
146
0.0
  0
ENDTAB
  0
TABLE
  2
LTYPE
  5
5
330
0
100
AcDbSymbolTable
 70
     6
  0
LTYPE
  5
14
330
5
100
AcDbSymbolTableRecord
100
AcDbLinetypeTableRecord
  2
ByBlock
 70
     0
  3

 72
    65
 73
     0
 40
0.0
  0
LTYPE
  5
15
330
5
100
AcDbSymbolTableRecord
100
AcDbLinetypeTableRecord
  2
ByLayer
 70
     0
  3

 72
    65
 73
     0
 40
0.0
  0
LTYPE
  5
16
330
5
100
AcDbSymbolTableRecord
100
AcDbLinetypeTableRecord
  2
Continuous
 70
     0
  3
Solid line
 72
    65
 73
     0
 40
0.0
  0
LTYPE
  5
6E
330
5
100
AcDbSymbolTableRecord
100
AcDbLinetypeTableRecord
  2
HIDDEN
 70
     0
  3
Hidden __ __ __ __ __ __ __ __ __ __ __ __ __ __
 72
    65
 73
     2
 40
1.905
 49
1.27
 74
     0
 49
-0.635
 74
     0
  0
LTYPE
  5
6F
330
5
100
AcDbSymbolTableRecord
100
AcDbLinetypeTableRecord
  2
PHANTOM
 70
     0
  3
Phantom ______  __  __  ______  __  __  ______
 72
    65
 73
     6
 40
12.7
 49
6.35
 74
     0
 49
-1.27
 74
     0
 49
1.27
 74
     0
 49
-1.27
 74
     0
 49
1.27
 74
     0
 49
-1.27
 74
     0
  0
LTYPE
  5
70
330
5
100
AcDbSymbolTableRecord
100
AcDbLinetypeTableRecord
  2
CENTER
 70
     0
  3
Center ____ _ ____ _ ____ _ ____ _ ____ _ ____
 72
    65
 73
     4
 40
10.16
 49
6.35
 74
     0
 49
-1.27
 74
     0
 49
1.27
 74
     0
 49
-1.27
 74
     0
  0
LTYPE
  5
71
330
5
100
AcDbSymbolTableRecord
100
AcDbLinetypeTableRecord
  2
CENTERX2
 70
     0
  3
Center (2x) ________  __  ________  __  _____
 72
    65
 73
     4
 40
20.32
 49
12.7
 74
     0
 49
-2.54
 74
     0
 49
2.54
 74
     0
 49
-2.54
 74
     0
  0
LTYPE
  5
72
330
5
100
AcDbSymbolTableRecord
100
AcDbLinetypeTableRecord
  2
DOT2
 70
     0
  3
Dot (.5x) ........................................
 72
    65
 73
     2
 40
0.635
 49
0.0
 74
     0
 49
-0.635
 74
     0
  0
ENDTAB
  0
TABLE
  2
LAYER
  5
2
330
0
100
AcDbSymbolTable
 70
     1
  0
LAYER
  5
10
330
2
100
AcDbSymbolTableRecord
100
AcDbLayerTableRecord
  2
0
 70
     0
 62
     7
  6
Continuous
370
    -3
390
F
  0
ENDTAB
  0
TABLE
  2
STYLE
  5
3
330
0
100
AcDbSymbolTable
 70
     1
  0
STYLE
  5
11
330
3
100
AcDbSymbolTableRecord
100
AcDbTextStyleTableRecord
  2
Standard
 70
     0
 40
0.0
 41
1.0
 50
0.0
 71
     0
 42
3.5
  3
txt
  4

  0
ENDTAB
  0
TABLE
  2
VIEW
  5
6
330
0
100
AcDbSymbolTable
 70
     0
  0
ENDTAB
  0
TABLE
  2
UCS
  5
7
330
0
100
AcDbSymbolTable
 70
     0
  0
ENDTAB
  0
TABLE
  2
APPID
  5
9
330
0
100
AcDbSymbolTable
 70
     1
  0
APPID
  5
12
330
9
100
AcDbSymbolTableRecord
100
AcDbRegAppTableRecord
  2
ACAD
 70
     0
  0
ENDTAB
  0
TABLE
  2
DIMSTYLE
  5
A
330
0
100
AcDbSymbolTable
 70
     1
100
AcDbDimStyleTable
  0
DIMSTYLE
105
27
330
A
100
AcDbSymbolTableRecord
100
AcDbDimStyleTableRecord
  2
ISO-25
 70
     0
 41
2.5
 42
0.625
 43
3.75
 44
1.25
 73
     0
 74
     0
 77
     1
 78
     8
140
2.5
141
2.5
143
0.0393700787
147
0.625
171
     3
172
     1
178
     0
271
     2
272
     2
274
     3
278
    44
283
     0
284
     8
340
11
  0
ENDTAB
  0
TABLE
  2
BLOCK_RECORD
  5
1
330
0
100
AcDbSymbolTable
 70
     1
  0
BLOCK_RECORD
  5
1F
330
1
100
AcDbSymbolTableRecord
100
AcDbBlockTableRecord
  2
*Model_Space
340
22
  0
BLOCK_RECORD
  5
1B
330
1
100
AcDbSymbolTableRecord
100
AcDbBlockTableRecord
  2
*Paper_Space
340
1E
  0
BLOCK_RECORD
  5
23
330
1
100
AcDbSymbolTableRecord
100
AcDbBlockTableRecord
  2
*Paper_Space0
340
26
  0
ENDTAB
  0
ENDSEC
  0
SECTION
  2
BLOCKS
  0
BLOCK
  5
20
330
1F
100
AcDbEntity
  8
0
100
AcDbBlockBegin
  2
*Model_Space
 70
     0
 10
0.0
 20
0.0
 30
0.0
  3
*Model_Space
  1

  0
ENDBLK
  5
21
330
1F
100
AcDbEntity
  8
0
100
AcDbBlockEnd
  0
BLOCK
  5
1C
330
1B
100
AcDbEntity
 67
     1
  8
0
100
AcDbBlockBegin
  2
*Paper_Space
 70
     0
 10
0.0
 20
0.0
 30
0.0
  3
*Paper_Space
  1

  0
ENDBLK
  5
1D
330
1B
100
AcDbEntity
 67
     1
  8
0
100
AcDbBlockEnd
  0
BLOCK
  5
24
330
23
100
AcDbEntity
  8
0
100
AcDbBlockBegin
  2
*Paper_Space0
 70
     0
 10
0.0
 20
0.0
 30
0.0
  3
*Paper_Space0
  1

  0
ENDBLK
  5
25
330
23
100
AcDbEntity
  8
0
100
AcDbBlockEnd
  0
ENDSEC
  0
SECTION
  2
ENTITIES
  0
ARC
  5
73
330
1F
100
AcDbEntity
  8
0
  6
Continuous
 62
     7
370
    25
100
AcDbCircle
 10
588.1864491988
 20
213.6189449109
 30
0.0
 40
1.999999999999975
100
AcDbArc
 50
300.0
 51
24.1552677904
  0
LINE
  5
74
330
1F
100
AcDbEntity
  8
0
  6
Continuous
 62
     7
370
    25
100
AcDbLine
 10
589.1864491988
 20
211.8868941033
 30
0.0
 11
585.7056186522
 21
209.8772356502
 31
0.0
  0
ARC
  5
75
330
1F
100
AcDbEntity
  8
0
  6
Continuous
 62
     7
370
    25
100
AcDbCircle
 10
584.7056186522
 20
211.6092864578
 30
0.0
 40
2.000000000000107
100
AcDbArc
 50
204.5969126439
 51
300.0
  0
ARC
  5
76
330
1F
100
AcDbEntity
  8
0
  6
Continuous
 62
     7
370
    25
100
AcDbCircle
 10
632.9872470636
 20
233.7111949261
 30
0.0
 40
55.10000000001067
100
AcDbArc
 50
202.3449146227
 51
204.5969126439
  0
ARC
  5
77
330
1F
100
AcDbEntity
  8
0
  6
Continuous
 62
     7
370
    25
100
AcDbCircle
 10
609.771956481
 20
224.1686437387
 30
0.0
 40
30.0
100
AcDbArc
 50
180.0376191096
 51
202.3449146227
  0
LINE
  5
78
330
1F
100
AcDbEntity
  8
0
  6
Continuous
 62
     7
370
    25
100
AcDbLine
 10
579.7719629474
 20
224.1489464204
 30
0.0
 11
579.7705369195
 21
226.320857657
 31
0.0
  0
ARC
  5
79
330
1F
100
AcDbEntity
  8
0
  6
Continuous
 62
     7
370
    25
100
AcDbCircle
 10
581.7705364885
 20
226.3221708116
 30
0.0
 40
2.000000000000212
100
AcDbArc
 50
115.2354036123
 51
180.0376191096
  0
ARC
  5
7A
330
1F
100
AcDbEntity
  8
0
  6
Continuous
 62
     7
370
    25
100
AcDbCircle
 10
581.3441981769
 20
227.2267345982
 30
0.0
 40
1.000000000000008
100
AcDbArc
 50
22.5567894094
 51
115.2354036123
  0
ARC
  5
7B
330
1F
100
AcDbEntity
  8
0
  6
Continuous
 62
     7
370
    25
100
AcDbCircle
 10
633.6542520232
 20
248.955036732
 30
0.0
 40
55.64327715647154
100
AcDbArc
 50
202.5567894094
 51
218.3408618819
  0
CIRCLE
  5
7C
330
1F
100
AcDbEntity
  8
0
  6
Continuous
 62
     7
370
    25
100
AcDbCircle
 10
576.7790743631
 20
235.3169225043
 30
0.0
 40
1.600000000000023
  0
CIRCLE
  5
7D
330
1F
100
AcDbEntity
  8
0
  6
Continuous
 62
     7
370
    25
100
AcDbCircle
 10
576.7790743631
 20
215.3169225043
 30
0.0
 40
1.600000000000023
  0
LINE
  5
7E
330
1F
100
AcDbEntity
  8
0
  6
Continuous
 62
     7
370
    25
100
AcDbLine
 10
584.6668355212
 20
140.5001166854
 30
0.0
 11
584.6668355212
 21
137.0001166854
 31
0.0
  0
ARC
  5
7F
330
1F
100
AcDbEntity
  8
0
  6
Continuous
 62
     7
370
    25
100
AcDbCircle
 10
583.4107902206
 20
137.0001166854
 30
0.0
 40
1.256045300518053
100
AcDbArc
 50
180.0
 51
0.0
  0
LINE
  5
80
330
1F
100
AcDbEntity
  8
0
  6
Continuous
 62
     7
370
    25
100
AcDbLine
 10
582.1547449201
 20
140.5001166854
 30
0.0
 11
582.1547449201
 21
137.0001166854
 31
0.0
  0
ARC
  5
81
330
1F
100
AcDbEntity
  8
0
  6
Continuous
 62
     7
370
    25
100
AcDbCircle
 10
583.4107902206
 20
140.5001166854
 30
0.0
 40
1.256045300518053
100
AcDbArc
 50
0.0
 51
180.0
  0
CIRCLE
  5
82
330
1F
100
AcDbEntity
  8
0
  6
Continuous
 62
     7
370
    25
100
AcDbCircle
 10
584.4464155644
 20
130.0065245625
 30
0.0
 40
2.0
  0
ARC
  5
83
330
1F
100
AcDbEntity
  8
0
  6
Continuous
 62
     7
370
    25
100
AcDbCircle
 10
573.1673057648
 20
133.0001166854
 30
0.0
 40
3.0
100
AcDbArc
 50
30.2038715297
 51
90.0
  0
LINE
  5
84
330
1F
100
AcDbEntity
  8
0
  6
Continuous
 62
     7
370
    25
100
AcDbLine
 10
575.7600281962
 20
134.5093517214
 30
0.0
 11
577.5980210211
 21
131.351854637
 31
0.0
  0
ARC
  5
85
330
1F
100
AcDbEntity
  8
0
  6
Continuous
 62
     7
370
    25
100
AcDbCircle
 10
576.7337802107
 20
130.8487762917
 30
0.0
 40
0.9999999999999934
100
AcDbArc
 50
255.4493109311
 51
30.2038715297
  0
ARC
  5
86
330
1F
100
AcDbEntity
  8
0
  6
Continuous
 62
     7
370
    25
100
AcDbCircle
 10
566.7790743631
 20
92.4967879899
 30
0.0
 40
38.62286177467536
100
AcDbArc
 50
75.4493109311
 51
104.5506890689
  0
ARC
  5
87
330
1F
100
AcDbEntity
  8
0
  6
Continuous
 62
     7
370
    25
100
AcDbCircle
 10
556.8243685155
 20
130.8487762917
 30
0.0
 40
1.000000000000038
100
AcDbArc
 50
149.7961284703
 51
284.5506890689
  0
LINE
  5
88
330
1F
100
AcDbEntity
  8
0
  6
Continuous
 62
     7
370
    25
100
AcDbLine
 10
557.79812053
 20
134.5093517214
 30
0.0
 11
555.9601277051
 21
131.351854637
 31
0.0
  0
ARC
  5
89
330
1F
100
AcDbEntity
  8
0
  6
Continuous
 62
     7
370
    25
100
AcDbCircle
 10
560.3908429614
 20
133.0001166854
 30
0.0
 40
3.000000000000017
100
AcDbArc
 50
90.0
 51
149.7961284703
  0
LINE
  5
8A
330
1F
100
AcDbEntity
  8
0
  6
Continuous
 62
     7
370
    25
100
AcDbLine
 10
560.3908429614
 20
136.0001166854
 30
0.0
 11
573.1673057648
 21
136.0001166854
 31
0.0
  0
ARC
  5
8B
330
1F
100
AcDbEntity
  8
0
  6
Continuous
 62
     7
370
    25
100
AcDbCircle
 10
548.8525300739
 20
162.7737975347
 30
0.0
 40
2.000000000000026
100
AcDbArc
 50
24.5969126439
 51
120.0
  0
ARC
  5
8C
330
1F
100
AcDbEntity
  8
0
  6
Continuous
 62
     7
370
    25
100
AcDbCircle
 10
500.5709016625
 20
140.6718890664
 30
0.0
 40
55.10000000001037
100
AcDbArc
 50
22.3449146227
 51
24.5969126439
  0
ARC
  5
8D
330
1F
100
AcDbEntity
  8
0
  6
Continuous
 62
     7
370
    25
100
AcDbCircle
 10
523.7861922451
 20
150.2144402538
 30
0.0
 40
30.00000000000012
100
AcDbArc
 50
0.0376191096
 51
22.3449146227
  0
LINE
  5
8E
330
1F
100
AcDbEntity
  8
0
  6
Continuous
 62
     7
370
    25
100
AcDbLine
 10
553.7861857787
 20
150.2341375721
 30
0.0
 11
553.7876118066
 21
148.0622263355
 31
0.0
  0
ARC
  5
8F
330
1F
100
AcDbEntity
  8
0
  6
Continuous
 62
     7
370
    25
100
AcDbCircle
 10
551.7876122377
 20
148.0609131809
 30
0.0
 40
2.000000000000326
100
AcDbArc
 50
270.0
 51
0.0376191096
  0
LINE
  5
90
330
1F
100
AcDbEntity
  8
0
  6
Continuous
 62
     7
370
    25
100
AcDbLine
 10
551.7876122377
 20
146.0609131809
 30
0.0
 11
549.1117331617
 21
146.0609131809
 31
0.0
  0
ARC
  5
91
330
1F
100
AcDbEntity
  8
0
  6
Continuous
 62
     7
370
    25
100
AcDbCircle
 10
549.1117331617
 20
148.0609131809
 30
0.0
 40
2.000000000000061
100
AcDbArc
 50
188.6552826567
 51
270.0
  0
ARC
  5
92
330
1F
100
AcDbEntity
  8
0
  6
Continuous
 62
     7
370
    25
100
AcDbCircle
 10
500.5709016625
 20
140.6718890664
 30
0.0
 40
47.10000000000227
100
AcDbArc
 50
8.6552826567
 51
24.1552677904
  0
ARC
  5
93
330
1F
100
AcDbEntity
  8
0
  6
Continuous
 62
     7
370
    25
100
AcDbCircle
 10
545.3716995274
 20
160.7641390816
 30
0.0
 40
2.000000000000041
100
AcDbArc
 50
120.0
 51
204.1552677904
  0
LINE
  5
94
330
1F
100
AcDbEntity
  8
0
  6
Continuous
 62
     7
370
    25
100
AcDbLine
 10
544.3716995274
 20
162.4961898892
 30
0.0
 11
547.8525300739
 21
164.5058483423
 31
0.0
  0
CIRCLE
  5
95
330
1F
100
AcDbEntity
  8
0
  6
Continuous
 62
     7
370
    25
100
AcDbCircle
 10
549.1117331617
 20
130.0065245625
 30
0.0
 40
2.0
  0
CIRCLE
  5
96
330
1F
100
AcDbEntity
  8
0
  6
Continuous
 62
     7
370
    25
100
AcDbCircle
 10
576.7790743631
 20
161.0661614882
 30
0.0
 40
1.600000000000023
  0
CIRCLE
  5
97
330
1F
100
AcDbEntity
  8
0
  6
Continuous
 62
     7
370
    25
100
AcDbCircle
 10
556.7790743631
 20
161.0661614882
 30
0.0
 40
1.600000000000023
  0
CIRCLE
  5
98
330
1F
100
AcDbEntity
  8
0
  6
Continuous
 62
     7
370
    25
100
AcDbCircle
 10
556.7790743631
 20
141.0661614882
 30
0.0
 40
1.600000000000023
  0
ARC
  5
99
330
1F
100
AcDbEntity
  8
0
  6
Continuous
 62
     7
370
    25
100
AcDbCircle
 10
593.8626743467
 20
201.6957253108
 30
0.0
 40
2.0
100
AcDbArc
 50
140.3361103967
 51
180.0
  0
LINE
  5
9A
330
1F
100
AcDbEntity
  8
0
  6
Continuous
 62
     7
370
    25
100
AcDbLine
 10
594.2815089029
 20
205.3342688274
 30
0.0
 11
592.3230703814
 21
202.9722908712
 31
0.0
  0
ARC
  5
9B
330
1F
100
AcDbEntity
  8
0
  6
Continuous
 62
     7
370
    25
100
AcDbCircle
 10
595.0513108855
 20
204.6959860472
 30
0.0
 40
1.000000000000007
100
AcDbArc
 50
37.4104791047
 51
140.3361103967
  0
ARC
  5
9C
330
1F
100
AcDbEntity
  8
0
  6
Continuous
 62
     7
370
    25
100
AcDbCircle
 10
632.9872470636
 20
233.7111949261
 30
0.0
 40
46.75999999999964
100
AcDbArc
 50
217.4104791047
 51
249.208845041
  0
ARC
  5
9D
330
1F
100
AcDbEntity
  8
0
  6
Continuous
 62
     7
370
    25
100
AcDbCircle
 10
615.3243058792
 20
187.1915419962
 30
0.0
 40
3.000000000000032
100
AcDbArc
 50
290.791154959
 51
69.208845041
  0
ARC
  5
9E
330
1F
100
AcDbEntity
  8
0
  6
Continuous
 62
     7
370
    25
100
AcDbCircle
 10
632.9872470636
 20
140.6718890664
 30
0.0
 40
46.7599999999996
100
AcDbArc
 50
110.791154959
 51
142.5895208953
  0
ARC
  5
9F
330
1F
100
AcDbEntity
  8
0
  6
Continuous
 62
     7
370
    25
100
AcDbCircle
 10
595.0513108855
 20
169.6870979453
 30
0.0
 40
1.000000000000024
100
AcDbArc
 50
219.6638896033
 51
322.5895208953
  0
LINE
  5
A0
330
1F
100
AcDbEntity
  8
0
  6
Continuous
 62
     7
370
    25
100
AcDbLine
 10
594.2815089029
 20
169.0488151651
 30
0.0
 11
592.3230703814
 21
171.4107931213
 31
0.0
  0
ARC
  5
A1
330
1F
100
AcDbEntity
  8
0
  6
Continuous
 62
     7
370
    25
100
AcDbCircle
 10
593.8626743467
 20
172.6873586817
 30
0.0
 40
2.0
100
AcDbArc
 50
180.0
 51
219.6638896033
  0
LINE
  5
A2
330
1F
100
AcDbEntity
  8
0
  6
Continuous
 62
     7
370
    25
100
AcDbLine
 10
591.8626743467
 20
201.6957253108
 30
0.0
 11
591.8626743467
 21
172.6873586817
 31
0.0
  0
ARC
  5
A3
330
1F
100
AcDbEntity
  8
0
  6
Continuous
 62
     7
370
    25
100
AcDbCircle
 10
597.4033937003
 20
220.0950508383
 30
0.0
 40
3.000000000000082
100
AcDbArc
 50
200.9393251688
 51
300.0
  0
ARC
  5
A4
330
1F
100
AcDbEntity
  8
0
  6
Continuous
 62
     7
370
    25
100
AcDbCircle
 10
632.9872470636
 20
233.7111949261
 30
0.0
 40
41.10000000000333
100
AcDbArc
 50
98.3000436803
 51
200.9393251688
  0
ARC
  5
A5
330
1F
100
AcDbEntity
  8
0
  6
Continuous
 62
     7
370
    25
100
AcDbCircle
 10
627.4872470636
 20
271.4121232966
 30
0.0
 40
3.0
100
AcDbArc
 50
0.0
 51
98.3000436803
  0
LINE
  5
A6
330
1F
100
AcDbEntity
  8
0
  6
Continuous
 62
     7
370
    25
100
AcDbLine
 10
630.4872470636
 20
244.37655943
 30
0.0
 11
630.4872470636
 21
271.4121232966
 31
0.0
  0
ARC
  5
A7
330
1F
100
AcDbEntity
  8
0
  6
Continuous
 62
     7
370
    25
100
AcDbCircle
 10
627.4872470636
 20
244.37655943
 30
0.0
 40
3.000000000000909
100
AcDbArc
 50
297.2796127361
 51
360.0
  0
ARC
  5
A8
330
1F
100
AcDbEntity
  8
0
  6
Continuous
 62
     7
370
    25
100
AcDbCircle
 10
632.9872470636
 20
233.7111949261
 30
0.0
 40
9.000000000020464
100
AcDbArc
 50
117.279612736
 51
180.0
  0
ARC
  5
A9
330
1F
100
AcDbEntity
  8
0
  6
Continuous
 62
     7
370
    25
100
AcDbCircle
 10
620.9872470636
 20
233.7111949261
 30
0.0
 40
3.000000000001818
100
AcDbArc
 50
300.0
 51
360.0
  0
LINE
  5
AA
330
1F
100
AcDbEntity
  8
0
  6
Continuous
 62
     7
370
    25
100
AcDbLine
 10
622.4872470636
 20
231.1131187148
 30
0.0
 11
598.9033937003
 21
217.4969746269
 31
0.0
  0
CIRCLE
  5
AB
330
1F
100
AcDbEntity
  8
0
  6
Continuous
 62
     7
370
    25
100
AcDbCircle
 10
632.9872470636
 20
233.7111949261
 30
0.0
 40
2.900000000007623
  0
LINE
  5
AC
330
1F
100
AcDbEntity
  8
0
  6
Continuous
 62
     7
370
    25
100
AcDbLine
 10
643.4737236646
 20
143.8395078088
 30
0.0
 11
666.8872087788
 21
157.3572897422
 31
0.0
  0
ARC
  5
AD
330
1F
100
AcDbEntity
  8
0
  6
Continuous
 62
     7
370
    25
100
AcDbCircle
 10
668.3872087788
 20
154.7592135308
 30
0.0
 40
3.000000000001022
100
AcDbArc
 50
21.6999563197
 51
120.0
  0
ARC
  5
AE
330
1F
100
AcDbEntity
  8
0
  6
Continuous
 62
     7
370
    25
100
AcDbCircle
 10
632.9872470636
 20
140.6718890664
 30
0.0
 40
41.10000000000237
100
AcDbArc
 50
278.3000436803
 51
21.6999563197
  0
ARC
  5
AF
330
1F
100
AcDbEntity
  8
0
  6
Continuous
 62
     7
370
    25
100
AcDbCircle
 10
638.4872470636
 20
102.9709606959
 30
0.0
 40
3.0
100
AcDbArc
 50
180.0
 51
278.3000436803
  0
LINE
  5
B0
330
1F
100
AcDbEntity
  8
0
  6
Continuous
 62
     7
370
    25
100
AcDbLine
 10
635.4872470636
 20
130.0065245625
 30
0.0
 11
635.4872470636
 21
102.9709606959
 31
0.0
  0
ARC
  5
B1
330
1F
100
AcDbEntity
  8
0
  6
Continuous
 62
     7
370
    25
100
AcDbCircle
 10
638.4872470636
 20
130.0065245625
 30
0.0
 40
3.000000000000416
100
AcDbArc
 50
117.2796127359
 51
179.9999999998
  0
ARC
  5
B2
330
1F
100
AcDbEntity
  8
0
  6
Continuous
 62
     7
370
    25
100
AcDbCircle
 10
632.9872470636
 20
140.6718890664
 30
0.0
 40
9.000000000023993
100
AcDbArc
 50
297.279612736
 51
2.720387264
  0
ARC
  5
B3
330
1F
100
AcDbEntity
  8
0
  6
Continuous
 62
     7
370
    25
100
AcDbCircle
 10
644.9737236646
 20
141.2414315975
 30
0.0
 40
2.999999999999967
100
AcDbArc
 50
120.0
 51
182.720387264
  0
CIRCLE
  5
B4
330
1F
100
AcDbEntity
  8
0
  6
Continuous
 62
     7
370
    25
100
AcDbCircle
 10
631.434332793
 20
146.4674440241
 30
0.0
 40
1.099999999999994
  0
CIRCLE
  5
B5
330
1F
100
AcDbEntity
  8
0
  6
Continuous
 62
     7
370
    25
100
AcDbCircle
 10
634.5401613342
 20
134.8763341086
 30
0.0
 40
1.099999999999994
  0
ARC
  5
B6
330
1F
100
AcDbEntity
  8
0
  6
Continuous
 62
     7
370
    25
100
AcDbCircle
 10
495.0709016625
 20
102.9709606959
 30
0.0
 40
3.000000000000002
100
AcDbArc
 50
261.6999563197
 51
0.0
  0
ARC
  5
B7
330
1F
100
AcDbEntity
  8
0
  6
Continuous
 62
     7
370
    25
100
AcDbCircle
 10
500.5709016625
 20
140.6718890664
 30
0.0
 40
41.1000000000033
100
AcDbArc
 50
158.3000436803
 51
261.6999563197
  0
ARC
  5
B8
330
1F
100
AcDbEntity
  8
0
  6
Continuous
 62
     7
370
    25
100
AcDbCircle
 10
465.1709399474
 20
154.7592135308
 30
0.0
 40
3.000000000000062
100
AcDbArc
 50
60.0
 51
158.3000436803
  0
LINE
  5
B9
330
1F
100
AcDbEntity
  8
0
  6
Continuous
 62
     7
370
    25
100
AcDbLine
 10
490.0844250616
 20
143.8395078088
 30
0.0
 11
466.6709399474
 21
157.3572897422
 31
0.0
  0
ARC
  5
BA
330
1F
100
AcDbEntity
  8
0
  6
Continuous
 62
     7
370
    25
100
AcDbCircle
 10
488.5844250616
 20
141.2414315975
 30
0.0
 40
3.000000000000057
100
AcDbArc
 50
357.279612736
 51
60.0
  0
ARC
  5
BB
330
1F
100
AcDbEntity
  8
0
  6
Continuous
 62
     7
370
    25
100
AcDbCircle
 10
500.5709016625
 20
140.6718890664
 30
0.0
 40
9.000000000023258
100
AcDbArc
 50
177.279612736
 51
242.720387264
  0
ARC
  5
BC
330
1F
100
AcDbEntity
  8
0
  6
Continuous
 62
     7
370
    25
100
AcDbCircle
 10
495.0709016625
 20
130.0065245625
 30
0.0
 40
3.00000000000128
100
AcDbArc
 50
0.0000000002
 51
62.7203872641
  0
LINE
  5
BD
330
1F
100
AcDbEntity
  8
0
  6
Continuous
 62
     7
370
    25
100
AcDbLine
 10
498.0709016625
 20
130.0065245625
 30
0.0
 11
498.0709016625
 21
102.9709606959
 31
0.0
  0
CIRCLE
  5
BE
330
1F
100
AcDbEntity
  8
0
  6
Continuous
 62
     7
370
    25
100
AcDbCircle
 10
500.5709016625
 20
97.2418890664
 30
0.0
 40
1.600000000007569
  0
CIRCLE
  5
BF
330
1F
100
AcDbEntity
  8
0
  6
Continuous
 62
     7
370
    25
100
AcDbCircle
 10
494.7753467048
 20
142.224803337
 30
0.0
 40
1.099999999999994
  0
CIRCLE
  5
C0
330
1F
100
AcDbEntity
  8
0
  6
Continuous
 62
     7
370
    25
100
AcDbCircle
 10
499.0179873919
 20
134.8763341086
 30
0.0
 40
1.099999999999994
  0
CIRCLE
  5
C1
330
1F
100
AcDbEntity
  8
0
  6
Continuous
 62
     7
370
    25
100
AcDbCircle
 10
506.3664566203
 20
139.1189747958
 30
0.0
 40
1.099999999999994
  0
CIRCLE
  5
C2
330
1F
100
AcDbEntity
  8
0
  6
Continuous
 62
     7
370
    25
100
AcDbCircle
 10
502.1238159331
 20
146.4674440241
 30
0.0
 40
1.099999999999994
  0
ARC
  5
C3
330
1F
100
AcDbEntity
  8
0
  6
Continuous
 62
     7
370
    25
100
AcDbCircle
 10
494.0844250616
 20
150.7677110391
 30
0.0
 40
3.000000000000829
100
AcDbArc
 50
240.0
 51
302.7203872641
  0
LINE
  5
C4
330
1F
100
AcDbEntity
  8
0
  6
Continuous
 62
     7
370
    25
100
AcDbLine
 10
492.5844250616
 20
148.1696348278
 30
0.0
 11
469.1709399474
 21
161.6874167611
 31
0.0
  0
ARC
  5
C5
330
1F
100
AcDbEntity
  8
0
  6
Continuous
 62
     7
370
    25
100
AcDbCircle
 10
470.6709399474
 20
164.2854929725
 30
0.0
 40
2.999999999999987
100
AcDbArc
 50
141.6999563197
 51
240.0
  0
ARC
  5
C6
330
1F
100
AcDbEntity
  8
0
  6
Continuous
 62
     7
370
    25
100
AcDbCircle
 10
500.5709016625
 20
140.6718890664
 30
0.0
 40
41.1000000000014
100
AcDbArc
 50
39.0606748313
 51
141.6999563197
  0
ARC
  5
C7
330
1F
100
AcDbEntity
  8
0
  6
Continuous
 62
     7
370
    25
100
AcDbCircle
 10
530.1547550258
 20
164.6803379997
 30
0.0
 40
2.999999999999976
100
AcDbArc
 50
300.0
 51
39.0606748313
  0
LINE
  5
C8
330
1F
100
AcDbEntity
  8
0
  6
Continuous
 62
     7
370
    25
100
AcDbLine
 10
508.0709016625
 20
148.4661177005
 30
0.0
 11
531.6547550258
 21
162.0822617883
 31
0.0
  0
ARC
  5
C9
330
1F
100
AcDbEntity
  8
0
  6
Continuous
 62
     7
370
    25
100
AcDbCircle
 10
506.5709016625
 20
151.0641939118
 30
0.0
 40
3.000000000001372
100
AcDbArc
 50
240.0000000002
 51
299.9999999998
  0
ARC
  5
CA
330
1F
100
AcDbEntity
  8
0
  6
Continuous
 62
     7
370
    25
100
AcDbCircle
 10
500.5709016625
 20
140.6718890664
 30
0.0
 40
9.000000000019451
100
AcDbArc
 50
60.0000000002
 51
122.7203872641
  0
CIRCLE
  5
CB
330
1F
100
AcDbEntity
  8
0
  6
Continuous
 62
     7
370
    25
100
AcDbCircle
 10
462.9594183762
 20
162.3868890664
 30
0.0
 40
1.600000000007498
  0
ARC
  5
CC
330
1F
100
AcDbEntity
  8
0
  6
Continuous
 62
     7
370
    25
100
AcDbCircle
 10
470.6709399474
 20
210.09759102
 30
0.0
 40
2.999999999999992
100
AcDbArc
 50
120.0
 51
218.3000436803
  0
LINE
  5
CD
330
1F
100
AcDbEntity
  8
0
  6
Continuous
 62
     7
370
    25
100
AcDbLine
 10
492.5844250616
 20
226.2134491647
 30
0.0
 11
469.1709399474
 21
212.6956672314
 31
0.0
  0
ARC
  5
CE
330
1F
100
AcDbEntity
  8
0
  6
Continuous
 62
     7
370
    25
100
AcDbCircle
 10
494.0844250616
 20
223.6153729534
 30
0.0
 40
3.000000000000742
100
AcDbArc
 50
57.2796127359
 51
120.0
  0
ARC
  5
CF
330
1F
100
AcDbEntity
  8
0
  6
Continuous
 62
     7
370
    25
100
AcDbCircle
 10
500.5709016625
 20
233.7111949261
 30
0.0
 40
9.000000000019933
100
AcDbArc
 50
237.2796127359
 51
299.9999999998
  0
ARC
  5
D0
330
1F
100
AcDbEntity
  8
0
  6
Continuous
 62
     7
370
    25
100
AcDbCircle
 10
506.5709016625
 20
223.3188900807
 30
0.0
 40
3.000000000001576
100
AcDbArc
 50
60.0000000002
 51
119.9999999998
  0
LINE
  5
D1
330
1F
100
AcDbEntity
  8
0
  6
Continuous
 62
     7
370
    25
100
AcDbLine
 10
508.0709016625
 20
225.916966292
 30
0.0
 11
531.6547550258
 21
212.3008222042
 31
0.0
  0
ARC
  5
D2
330
1F
100
AcDbEntity
  8
0
  6
Continuous
 62
     7
370
    25
100
AcDbCircle
 10
530.1547550258
 20
209.7027459928
 30
0.0
 40
3.0000000000001
100
AcDbArc
 50
320.9393251687
 51
60.0
  0
ARC
  5
D3
330
1F
100
AcDbEntity
  8
0
  6
Continuous
 62
     7
370
    25
100
AcDbCircle
 10
500.5709016625
 20
233.7111949261
 30
0.0
 40
41.10000000000129
100
AcDbArc
 50
218.3000436803
 51
320.9393251687
  0
ARC
  5
D4
330
1F
100
AcDbEntity
  8
0
  6
Continuous
 62
     7
370
    25
100
AcDbCircle
 10
536.1547550258
 20
220.0950508383
 30
0.0
 40
3.000000000000917
100
AcDbArc
 50
240.0
 51
339.0606748312
  0
LINE
  5
D5
330
1F
100
AcDbEntity
  8
0
  6
Continuous
 62
     7
370
    25
100
AcDbLine
 10
511.0709016625
 20
231.1131187148
 30
0.0
 11
534.6547550258
 21
217.4969746269
 31
0.0
  0
ARC
  5
D6
330
1F
100
AcDbEntity
  8
0
  6
Continuous
 62
     7
370
    25
100
AcDbCircle
 10
512.5709016626
 20
233.7111949261
 30
0.0
 40
3.000000000001835
100
AcDbArc
 50
180.0
 51
240.0
  0
ARC
  5
D7
330
1F
100
AcDbEntity
  8
0
  6
Continuous
 62
     7
370
    25
100
AcDbCircle
 10
500.5709016625
 20
233.7111949261
 30
0.0
 40
9.000000000019213
100
AcDbArc
 50
0.0
 51
62.720387264
  0
ARC
  5
D8
330
1F
100
AcDbEntity
  8
0
  6
Continuous
 62
     7
370
    25
100
AcDbCircle
 10
506.0709016625
 20
244.37655943
 30
0.0
 40
3.000000000000909
100
AcDbArc
 50
180.0
 51
242.7203872639
  0
LINE
  5
D9
330
1F
100
AcDbEntity
  8
0
  6
Continuous
 62
     7
370
    25
100
AcDbLine
 10
503.0709016625
 20
244.37655943
 30
0.0
 11
503.0709016625
 21
271.4121232966
 31
0.0
  0
ARC
  5
DA
330
1F
100
AcDbEntity
  8
0
  6
Continuous
 62
     7
370
    25
100
AcDbCircle
 10
506.0709016625
 20
271.4121232966
 30
0.0
 40
3.0
100
AcDbArc
 50
81.6999563197
 51
180.0
  0
ARC
  5
DB
330
1F
100
AcDbEntity
  8
0
  6
Continuous
 62
     7
370
    25
100
AcDbCircle
 10
500.5709016625
 20
233.7111949261
 30
0.0
 40
41.10000000000235
100
AcDbArc
 50
339.0606748312
 51
81.6999563197
  0
CIRCLE
  5
DC
330
1F
100
AcDbEntity
  8
0
  6
Continuous
 62
     7
370
    25
100
AcDbCircle
 10
462.9594183762
 20
211.9961949261
 30
0.0
 40
1.600000000007498
  0
CIRCLE
  5
DD
330
1F
100
AcDbEntity
  8
0
  6
Continuous
 62
     7
370
    25
100
AcDbCircle
 10
500.5709016625
 20
233.7111949261
 30
0.0
 40
2.900000000007537
  0
CIRCLE
  5
DE
330
1F
100
AcDbEntity
  8
0
  6
Continuous
 62
     7
370
    25
100
AcDbCircle
 10
506.3664566203
 20
235.2641091967
 30
0.0
 40
1.099999999999994
  0
CIRCLE
  5
DF
330
1F
100
AcDbEntity
  8
0
  6
Continuous
 62
     7
370
    25
100
AcDbCircle
 10
494.7753467048
 20
232.1582806555
 30
0.0
 40
1.099999999999994
  0
CIRCLE
  5
E0
330
1F
100
AcDbEntity
  8
0
  6
Continuous
 62
     7
370
    25
100
AcDbCircle
 10
579.5122732276
 20
262.3597805211
 30
0.0
 40
1.600000000000023
  0
CIRCLE
  5
E1
330
1F
100
AcDbEntity
  8
0
  6
Continuous
 62
     7
370
    25
100
AcDbCircle
 10
554.0458754985
 20
262.3597805211
 30
0.0
 40
1.600000000000023
  0
CIRCLE
  5
E2
330
1F
100
AcDbEntity
  8
0
  6
Continuous
 62
     7
370
    25
100
AcDbCircle
 10
543.016095418
 20
224.8754271136
 30
0.0
 40
1.600000000000023
  0
CIRCLE
  5
E3
330
1F
100
AcDbEntity
  8
0
  6
Continuous
 62
     7
370
    25
100
AcDbCircle
 10
582.0290743631
 20
171.9435095726
 30
0.0
 40
1.599999999999994
  0
CIRCLE
  5
E4
330
1F
100
AcDbEntity
  8
0
  6
Continuous
 62
     7
370
    25
100
AcDbCircle
 10
576.7790743631
 20
197.1935095726
 30
0.0
 40
1.600000000000023
  0
LINE
  5
E5
330
1F
100
AcDbEntity
  8
0
  6
Continuous
 62
     7
370
    25
100
AcDbLine
 10
574.7757897516
 20
192.1915398408
 30
0.0
 11
574.7692239803
 21
182.1915441517
 31
0.0
  0
ARC
  5
E6
330
1F
100
AcDbEntity
  8
0
  6
Continuous
 62
     7
370
    25
100
AcDbCircle
 10
571.7692246269
 20
182.1935138835
 30
0.0
 40
2.999999999999773
100
AcDbArc
 50
270.0
 51
359.9623808904
  0
LINE
  5
E7
330
1F
100
AcDbEntity
  8
0
  6
Continuous
 62
     7
370
    25
100
AcDbLine
 10
561.7889240993
 20
179.1935138835
 30
0.0
 11
571.7692246269
 21
179.1935138835
 31
0.0
  0
ARC
  5
E8
330
1F
100
AcDbEntity
  8
0
  6
Continuous
 62
     7
370
    25
100
AcDbCircle
 10
561.7889240993
 20
182.1935138835
 30
0.0
 40
2.999999999999773
100
AcDbArc
 50
180.0376191096
 51
270.0
  0
LINE
  5
E9
330
1F
100
AcDbEntity
  8
0
  6
Continuous
 62
     7
370
    25
100
AcDbLine
 10
558.7823589745
 20
192.1915398408
 30
0.0
 11
558.7889247459
 21
182.1915441517
 31
0.0
  0
ARC
  5
EA
330
1F
100
AcDbEntity
  8
0
  6
Continuous
 62
     7
370
    25
100
AcDbCircle
 10
561.7823583279
 20
192.1935095726
 30
0.0
 40
3.000000000000057
100
AcDbArc
 50
90.0
 51
180.0376191096
  0
LINE
  5
EB
330
1F
100
AcDbEntity
  8
0
  6
Continuous
 62
     7
370
    25
100
AcDbLine
 10
561.7823583279
 20
195.1935095726
 30
0.0
 11
571.7757903983
 21
195.1935095726
 31
0.0
  0
ARC
  5
EC
330
1F
100
AcDbEntity
  8
0
  6
Continuous
 62
     7
370
    25
100
AcDbCircle
 10
571.7757903983
 20
192.1935095726
 30
0.0
 40
3.000000000000057
100
AcDbArc
 50
359.9623808904
 51
90.0
  0
LINE
  5
ED
330
1F
100
AcDbEntity
  8
0
  6
Continuous
 62
     7
370
    25
100
AcDbLine
 10
583.8606060467
 20
177.1935095726
 30
0.0
 11
583.8606060467
 21
197.1935095726
 31
0.0
  0
ARC
  5
EE
330
1F
100
AcDbEntity
  8
0
  6
Continuous
 62
     7
370
    25
100
AcDbCircle
 10
585.8616401967
 20
197.1935095726
 30
0.0
 40
2.001034150004216
100
AcDbArc
 50
0.0
 51
180.0
  0
LINE
  5
EF
330
1F
100
AcDbEntity
  8
0
  6
Continuous
 62
     7
370
    25
100
AcDbLine
 10
587.8626743467
 20
177.1935095726
 30
0.0
 11
587.8626743467
 21
197.1935095726
 31
0.0
  0
ARC
  5
F0
330
1F
100
AcDbEntity
  8
0
  6
Continuous
 62
     7
370
    25
100
AcDbCircle
 10
585.8616401967
 20
177.1935095726
 30
0.0
 40
2.001034150004216
100
AcDbArc
 50
180.0
 51
0.0
  0
CIRCLE
  5
F1
330
1F
100
AcDbEntity
  8
0
  6
Continuous
 62
     7
370
    25
100
AcDbCircle
 10
589.6372470636
 20
141.079536947
 30
0.0
 40
1.600000000000023
  0
CIRCLE
  5
F2
330
1F
100
AcDbEntity
  8
0
  6
Continuous
 62
     7
370
    25
100
AcDbCircle
 10
551.5290743631
 20
202.4435095726
 30
0.0
 40
1.599999999999994
  0
CIRCLE
  5
F3
330
1F
100
AcDbEntity
  8
0
  6
Continuous
 62
     7
370
    25
100
AcDbCircle
 10
556.7790743631
 20
197.1935095726
 30
0.0
 40
1.600000000000023
  0
CIRCLE
  5
F4
330
1F
100
AcDbEntity
  8
0
  6
Continuous
 62
     7
370
    25
100
AcDbCircle
 10
556.7790743631
 20
177.1935095726
 30
0.0
 40
1.600000000000023
  0
CIRCLE
  5
F5
330
1F
100
AcDbEntity
  8
0
  6
Continuous
 62
     7
370
    25
100
AcDbCircle
 10
551.5290743631
 20
171.9435095726
 30
0.0
 40
1.599999999999994
  0
ARC
  5
F6
330
1F
100
AcDbEntity
  8
0
  6
Continuous
 62
     7
370
    25
100
AcDbCircle
 10
556.4290743631
 20
254.8113420843
 30
0.0
 40
0.8500000000000227
100
AcDbArc
 50
0.0
 51
180.0
  0
LINE
  5
F7
330
1F
100
AcDbEntity
  8
0
  6
Continuous
 62
     7
370
    25
100
AcDbLine
 10
557.2790743631
 20
254.8113420843
 30
0.0
 11
557.2790743631
 21
247.8113420843
 31
0.0
  0
ARC
  5
F8
330
1F
100
AcDbEntity
  8
0
  6
Continuous
 62
     7
370
    25
100
AcDbCircle
 10
556.4290743631
 20
247.8113420843
 30
0.0
 40
0.8500000000000227
100
AcDbArc
 50
180.0
 51
0.0
  0
LINE
  5
F9
330
1F
100
AcDbEntity
  8
0
  6
Continuous
 62
     7
370
    25
100
AcDbLine
 10
555.5790743631
 20
254.8113420843
 30
0.0
 11
555.5790743631
 21
247.8113420843
 31
0.0
  0
ARC
  5
FA
330
1F
100
AcDbEntity
  8
0
  6
Continuous
 62
     7
370
    25
100
AcDbCircle
 10
547.6965085295
 20
177.1935095726
 30
0.0
 40
2.001034150004216
100
AcDbArc
 50
180.0
 51
0.0
  0
LINE
  5
FB
330
1F
100
AcDbEntity
  8
0
  6
Continuous
 62
     7
370
    25
100
AcDbLine
 10
545.6954743795
 20
177.1935095726
 30
0.0
 11
545.6954743795
 21
197.1935095726
 31
0.0
  0
ARC
  5
FC
330
1F
100
AcDbEntity
  8
0
  6
Continuous
 62
     7
370
    25
100
AcDbCircle
 10
547.6965085295
 20
197.1935095726
 30
0.0
 40
2.001034150004216
100
AcDbArc
 50
0.0
 51
180.0
  0
LINE
  5
FD
330
1F
100
AcDbEntity
  8
0
  6
Continuous
 62
     7
370
    25
100
AcDbLine
 10
549.6975426795
 20
177.1935095726
 30
0.0
 11
549.6975426795
 21
197.1935095726
 31
0.0
  0
CIRCLE
  5
FE
330
1F
100
AcDbEntity
  8
0
  6
Continuous
 62
     7
370
    25
100
AcDbCircle
 10
582.0290743631
 20
202.4435095726
 30
0.0
 40
1.599999999999994
  0
CIRCLE
  5
FF
330
1F
100
AcDbEntity
  8
0
  6
Continuous
 62
     7
370
    25
100
AcDbCircle
 10
576.7790743631
 20
177.1935095726
 30
0.0
 40
1.600000000000023
  0
CIRCLE
  5
100
330
1F
100
AcDbEntity
  8
0
  6
Continuous
 62
     7
370
    25
100
AcDbCircle
 10
500.5709016625
 20
277.1411949261
 30
0.0
 40
1.600000000007526
  0
CIRCLE
  5
101
330
1F
100
AcDbEntity
  8
0
  6
Continuous
 62
     7
370
    25
100
AcDbCircle
 10
543.9209016625
 20
141.079536947
 30
0.0
 40
1.600000000000023
  0
CIRCLE
  5
102
330
1F
100
AcDbEntity
  8
0
  6
Continuous
 62
     7
370
    25
100
AcDbCircle
 10
590.5420533082
 20
224.8754271136
 30
0.0
 40
1.600000000000023
  0
LINE
  5
103
330
1F
100
AcDbEntity
  8
0
  6
Continuous
 62
     7
370
    25
100
AcDbLine
 10
577.9790743631
 20
254.8113420843
 30
0.0
 11
577.9790743631
 21
247.8113420843
 31
0.0
  0
ARC
  5
104
330
1F
100
AcDbEntity
  8
0
  6
Continuous
 62
     7
370
    25
100
AcDbCircle
 10
577.1290743631
 20
247.8113420843
 30
0.0
 40
0.8500000000000227
100
AcDbArc
 50
180.0
 51
0.0
  0
LINE
  5
105
330
1F
100
AcDbEntity
  8
0
  6
Continuous
 62
     7
370
    25
100
AcDbLine
 10
576.2790743631
 20
254.8113420843
 30
0.0
 11
576.2790743631
 21
247.8113420843
 31
0.0
  0
ARC
  5
106
330
1F
100
AcDbEntity
  8
0
  6
Continuous
 62
     7
370
    25
100
AcDbCircle
 10
577.1290743631
 20
254.8113420843
 30
0.0
 40
0.8500000000000227
100
AcDbArc
 50
0.0
 51
180.0
  0
CIRCLE
  5
107
330
1F
100
AcDbEntity
  8
0
  6
Continuous
 62
     7
370
    25
100
AcDbCircle
 10
499.0179873919
 20
239.5067498839
 30
0.0
 40
1.099999999999994
  0
CIRCLE
  5
108
330
1F
100
AcDbEntity
  8
0
  6
Continuous
 62
     7
370
    25
100
AcDbCircle
 10
502.1238159331
 20
227.9156399684
 30
0.0
 40
1.099999999999994
  0
LINE
  5
109
330
1F
100
AcDbEntity
  8
0
  6
Continuous
 62
     7
370
    25
100
AcDbLine
 10
490.0844250616
 20
230.5435761837
 30
0.0
 11
466.6709399474
 21
217.0257942503
 31
0.0
  0
ARC
  5
10A
330
1F
100
AcDbEntity
  8
0
  6
Continuous
 62
     7
370
    25
100
AcDbCircle
 10
465.1709399474
 20
219.6238704617
 30
0.0
 40
3.000000000000906
100
AcDbArc
 50
201.6999563197
 51
300.0
  0
ARC
  5
10B
330
1F
100
AcDbEntity
  8
0
  6
Continuous
 62
     7
370
    25
100
AcDbCircle
 10
500.5709016625
 20
233.7111949261
 30
0.0
 40
41.1000000000023
100
AcDbArc
 50
98.3000436803
 51
201.6999563197
  0
ARC
  5
10C
330
1F
100
AcDbEntity
  8
0
  6
Continuous
 62
     7
370
    25
100
AcDbCircle
 10
495.0709016625
 20
271.4121232966
 30
0.0
 40
3.0
100
AcDbArc
 50
0.0
 51
98.3000436803
  0
LINE
  5
10D
330
1F
100
AcDbEntity
  8
0
  6
Continuous
 62
     7
370
    25
100
AcDbLine
 10
498.0709016625
 20
244.37655943
 30
0.0
 11
498.0709016625
 21
271.4121232966
 31
0.0
  0
ARC
  5
10E
330
1F
100
AcDbEntity
  8
0
  6
Continuous
 62
     7
370
    25
100
AcDbCircle
 10
495.0709016625
 20
244.37655943
 30
0.0
 40
3.000000000000416
100
AcDbArc
 50
297.2796127359
 51
359.9999999998
  0
ARC
  5
10F
330
1F
100
AcDbEntity
  8
0
  6
Continuous
 62
     7
370
    25
100
AcDbCircle
 10
500.5709016625
 20
233.7111949261
 30
0.0
 40
9.000000000024123
100
AcDbArc
 50
117.279612736
 51
182.720387264
  0
ARC
  5
110
330
1F
100
AcDbEntity
  8
0
  6
Continuous
 62
     7
370
    25
100
AcDbCircle
 10
488.5844250616
 20
233.141652395
 30
0.0
 40
3.000000000000086
100
AcDbArc
 50
300.0
 51
2.720387264
  0
CIRCLE
  5
111
330
1F
100
AcDbEntity
  8
0
  6
Continuous
 62
     7
370
    25
100
AcDbCircle
 10
500.5709016625
 20
140.6718890664
 30
0.0
 40
2.900000000007537
  0
ARC
  5
112
330
1F
100
AcDbEntity
  8
0
  6
Continuous
 62
     7
370
    25
100
AcDbCircle
 10
536.1547550258
 20
154.2880331542
 30
0.0
 40
3.0
100
AcDbArc
 50
20.9393251688
 51
120.0
  0
ARC
  5
113
330
1F
100
AcDbEntity
  8
0
  6
Continuous
 62
     7
370
    25
100
AcDbCircle
 10
500.5709016625
 20
140.6718890664
 30
0.0
 40
41.10000000000337
100
AcDbArc
 50
278.3000436803
 51
20.9393251688
  0
ARC
  5
114
330
1F
100
AcDbEntity
  8
0
  6
Continuous
 62
     7
370
    25
100
AcDbCircle
 10
506.0709016625
 20
102.9709606959
 30
0.0
 40
3.0
100
AcDbArc
 50
180.0
 51
278.3000436803
  0
LINE
  5
115
330
1F
100
AcDbEntity
  8
0
  6
Continuous
 62
     7
370
    25
100
AcDbLine
 10
503.0709016625
 20
130.0065245625
 30
0.0
 11
503.0709016625
 21
102.9709606959
 31
0.0
  0
ARC
  5
116
330
1F
100
AcDbEntity
  8
0
  6
Continuous
 62
     7
370
    25
100
AcDbCircle
 10
506.0709016625
 20
130.0065245625
 30
0.0
 40
3.000000000000909
100
AcDbArc
 50
117.2796127361
 51
180.0
  0
ARC
  5
117
330
1F
100
AcDbEntity
  8
0
  6
Continuous
 62
     7
370
    25
100
AcDbCircle
 10
500.5709016625
 20
140.6718890664
 30
0.0
 40
9.000000000020371
100
AcDbArc
 50
297.279612736
 51
360.0
  0
ARC
  5
118
330
1F
100
AcDbEntity
  8
0
  6
Continuous
 62
     7
370
    25
100
AcDbCircle
 10
512.5709016626
 20
140.6718890664
 30
0.0
 40
3.000000000001769
100
AcDbArc
 50
120.0
 51
180.0
  0
LINE
  5
119
330
1F
100
AcDbEntity
  8
0
  6
Continuous
 62
     7
370
    25
100
AcDbLine
 10
511.0709016625
 20
143.2699652777
 30
0.0
 11
534.6547550258
 21
156.8861093655
 31
0.0
  0
ARC
  5
11A
330
1F
100
AcDbEntity
  8
0
  6
Continuous
 62
     7
370
    25
100
AcDbCircle
 10
518.233842847
 20
187.1915419962
 30
0.0
 40
3.000000000000032
100
AcDbArc
 50
110.791154959
 51
249.208845041
  0
ARC
  5
11B
330
1F
100
AcDbEntity
  8
0
  6
Continuous
 62
     7
370
    25
100
AcDbCircle
 10
500.5709016625
 20
233.7111949261
 30
0.0
 40
46.7599999999996
100
AcDbArc
 50
290.791154959
 51
322.5895208953
  0
ARC
  5
11C
330
1F
100
AcDbEntity
  8
0
  6
Continuous
 62
     7
370
    25
100
AcDbCircle
 10
538.5068378407
 20
204.6959860472
 30
0.0
 40
1.000000000000007
100
AcDbArc
 50
39.6638896033
 51
142.5895208953
  0
LINE
  5
11D
330
1F
100
AcDbEntity
  8
0
  6
Continuous
 62
     7
370
    25
100
AcDbLine
 10
539.2766398233
 20
205.3342688274
 30
0.0
 11
541.2350783448
 21
202.9722908712
 31
0.0
  0
ARC
  5
11E
330
1F
100
AcDbEntity
  8
0
  6
Continuous
 62
     7
370
    25
100
AcDbCircle
 10
539.6954743795
 20
201.6957253108
 30
0.0
 40
2.0
100
AcDbArc
 50
0.0
 51
39.6638896033
  0
LINE
  5
11F
330
1F
100
AcDbEntity
  8
0
  6
Continuous
 62
     7
370
    25
100
AcDbLine
 10
541.6954743795
 20
201.6957253108
 30
0.0
 11
541.6954743795
 21
172.6873586817
 31
0.0
  0
ARC
  5
120
330
1F
100
AcDbEntity
  8
0
  6
Continuous
 62
     7
370
    25
100
AcDbCircle
 10
539.6954743795
 20
172.6873586817
 30
0.0
 40
2.0
100
AcDbArc
 50
320.3361103967
 51
0.0
  0
LINE
  5
121
330
1F
100
AcDbEntity
  8
0
  6
Continuous
 62
     7
370
    25
100
AcDbLine
 10
539.2766398233
 20
169.0488151651
 30
0.0
 11
541.2350783448
 21
171.4107931213
 31
0.0
  0
ARC
  5
122
330
1F
100
AcDbEntity
  8
0
  6
Continuous
 62
     7
370
    25
100
AcDbCircle
 10
538.5068378407
 20
169.6870979453
 30
0.0
 40
1.000000000000007
100
AcDbArc
 50
217.4104791047
 51
320.3361103967
  0
ARC
  5
123
330
1F
100
AcDbEntity
  8
0
  6
Continuous
 62
     7
370
    25
100
AcDbCircle
 10
500.5709016625
 20
140.6718890664
 30
0.0
 40
46.75999999999945
100
AcDbArc
 50
37.4104791047
 51
69.208845041
  0
CIRCLE
  5
124
330
1F
100
AcDbEntity
  8
0
  6
Continuous
 62
     7
370
    25
100
AcDbCircle
 10
632.9872470636
 20
97.2418890664
 30
0.0
 40
1.600000000007569
  0
CIRCLE
  5
125
330
1F
100
AcDbEntity
  8
0
  6
Continuous
 62
     7
370
    25
100
AcDbCircle
 10
638.7828020214
 20
142.224803337
 30
0.0
 40
1.099999999999994
  0
CIRCLE
  5
126
330
1F
100
AcDbEntity
  8
0
  6
Continuous
 62
     7
370
    25
100
AcDbCircle
 10
627.1916921059
 20
139.1189747958
 30
0.0
 40
1.099999999999994
  0
CIRCLE
  5
127
330
1F
100
AcDbEntity
  8
0
  6
Continuous
 62
     7
370
    25
100
AcDbCircle
 10
632.9872470636
 20
140.6718890664
 30
0.0
 40
2.900000000007623
  0
CIRCLE
  5
128
330
1F
100
AcDbEntity
  8
0
  6
Continuous
 62
     7
370
    25
100
AcDbCircle
 10
670.59873035
 20
162.3868890664
 30
0.0
 40
1.600000000007611
  0
ARC
  5
129
330
1F
100
AcDbEntity
  8
0
  6
Continuous
 62
     7
370
    25
100
AcDbCircle
 10
597.4033937003
 20
154.2880331542
 30
0.0
 40
3.000000000000927
100
AcDbArc
 50
60.0
 51
159.0606748312
  0
LINE
  5
12A
330
1F
100
AcDbEntity
  8
0
  6
Continuous
 62
     7
370
    25
100
AcDbLine
 10
622.4872470636
 20
143.2699652777
 30
0.0
 11
598.9033937003
 21
156.8861093655
 31
0.0
  0
ARC
  5
12B
330
1F
100
AcDbEntity
  8
0
  6
Continuous
 62
     7
370
    25
100
AcDbCircle
 10
620.9872470636
 20
140.6718890664
 30
0.0
 40
3.000000000001811
100
AcDbArc
 50
0.0
 51
60.0
  0
ARC
  5
12C
330
1F
100
AcDbEntity
  8
0
  6
Continuous
 62
     7
370
    25
100
AcDbCircle
 10
632.9872470636
 20
140.6718890664
 30
0.0
 40
9.000000000019327
100
AcDbArc
 50
180.0
 51
242.720387264
  0
ARC
  5
12D
330
1F
100
AcDbEntity
  8
0
  6
Continuous
 62
     7
370
    25
100
AcDbCircle
 10
627.4872470636
 20
130.0065245625
 30
0.0
 40
3.000000000000909
100
AcDbArc
 50
0.0
 51
62.7203872639
  0
LINE
  5
12E
330
1F
100
AcDbEntity
  8
0
  6
Continuous
 62
     7
370
    25
100
AcDbLine
 10
630.4872470636
 20
130.0065245625
 30
0.0
 11
630.4872470636
 21
102.9709606959
 31
0.0
  0
ARC
  5
12F
330
1F
100
AcDbEntity
  8
0
  6
Continuous
 62
     7
370
    25
100
AcDbCircle
 10
627.4872470636
 20
102.9709606959
 30
0.0
 40
3.0
100
AcDbArc
 50
261.6999563197
 51
0.0
  0
ARC
  5
130
330
1F
100
AcDbEntity
  8
0
  6
Continuous
 62
     7
370
    25
100
AcDbCircle
 10
632.9872470636
 20
140.6718890664
 30
0.0
 40
41.10000000000238
100
AcDbArc
 50
159.0606748312
 51
261.6999563197
  0
ARC
  5
131
330
1F
100
AcDbEntity
  8
0
  6
Continuous
 62
     7
370
    25
100
AcDbCircle
 10
662.8872087788
 20
164.2854929725
 30
0.0
 40
3.0
100
AcDbArc
 50
300.0
 51
38.3000436803
  0
LINE
  5
132
330
1F
100
AcDbEntity
  8
0
  6
Continuous
 62
     7
370
    25
100
AcDbLine
 10
640.9737236646
 20
148.1696348278
 30
0.0
 11
664.3872087788
 21
161.6874167611
 31
0.0
  0
ARC
  5
133
330
1F
100
AcDbEntity
  8
0
  6
Continuous
 62
     7
370
    25
100
AcDbCircle
 10
639.4737236646
 20
150.7677110391
 30
0.0
 40
3.000000000000689
100
AcDbArc
 50
237.2796127359
 51
300.0
  0
ARC
  5
134
330
1F
100
AcDbEntity
  8
0
  6
Continuous
 62
     7
370
    25
100
AcDbCircle
 10
632.9872470636
 20
140.6718890664
 30
0.0
 40
9.000000000019888
100
AcDbArc
 50
57.2796127359
 51
119.9999999998
  0
ARC
  5
135
330
1F
100
AcDbEntity
  8
0
  6
Continuous
 62
     7
370
    25
100
AcDbCircle
 10
626.9872470637
 20
151.0641939118
 30
0.0
 40
3.000000000001548
100
AcDbArc
 50
240.0000000002
 51
299.9999999998
  0
LINE
  5
136
330
1F
100
AcDbEntity
  8
0
  6
Continuous
 62
     7
370
    25
100
AcDbLine
 10
625.4872470637
 20
148.4661177005
 30
0.0
 11
601.9033937004
 21
162.0822617883
 31
0.0
  0
ARC
  5
137
330
1F
100
AcDbEntity
  8
0
  6
Continuous
 62
     7
370
    25
100
AcDbCircle
 10
603.4033937004
 20
164.6803379997
 30
0.0
 40
3.0000000000001
100
AcDbArc
 50
140.9393251687
 51
240.0
  0
ARC
  5
138
330
1F
100
AcDbEntity
  8
0
  6
Continuous
 62
     7
370
    25
100
AcDbCircle
 10
632.9872470636
 20
140.6718890664
 30
0.0
 40
41.10000000000121
100
AcDbArc
 50
38.3000436803
 51
140.9393251687
  0
CIRCLE
  5
139
330
1F
100
AcDbEntity
  8
0
  6
Continuous
 62
     7
370
    25
100
AcDbCircle
 10
670.59873035
 20
211.9961949261
 30
0.0
 40
1.600000000007611
  0
ARC
  5
13A
330
1F
100
AcDbEntity
  8
0
  6
Continuous
 62
     7
370
    25
100
AcDbCircle
 10
639.4737236646
 20
223.6153729534
 30
0.0
 40
3.000000000000727
100
AcDbArc
 50
60.0
 51
122.7203872641
  0
LINE
  5
13B
330
1F
100
AcDbEntity
  8
0
  6
Continuous
 62
     7
370
    25
100
AcDbLine
 10
640.9737236646
 20
226.2134491647
 30
0.0
 11
664.3872087788
 21
212.6956672314
 31
0.0
  0
ARC
  5
13C
330
1F
100
AcDbEntity
  8
0
  6
Continuous
 62
     7
370
    25
100
AcDbCircle
 10
662.8872087788
 20
210.09759102
 30
0.0
 40
3.000000000000049
100
AcDbArc
 50
321.6999563197
 51
60.0
  0
ARC
  5
13D
330
1F
100
AcDbEntity
  8
0
  6
Continuous
 62
     7
370
    25
100
AcDbCircle
 10
632.9872470636
 20
233.7111949261
 30
0.0
 40
41.10000000000138
100
AcDbArc
 50
219.0606748313
 51
321.6999563197
  0
ARC
  5
13E
330
1F
100
AcDbEntity
  8
0
  6
Continuous
 62
     7
370
    25
100
AcDbCircle
 10
603.4033937004
 20
209.7027459928
 30
0.0
 40
3.000000000000008
100
AcDbArc
 50
120.0
 51
219.0606748313
  0
LINE
  5
13F
330
1F
100
AcDbEntity
  8
0
  6
Continuous
 62
     7
370
    25
100
AcDbLine
 10
625.4872470637
 20
225.916966292
 30
0.0
 11
601.9033937004
 21
212.3008222042
 31
0.0
  0
ARC
  5
140
330
1F
100
AcDbEntity
  8
0
  6
Continuous
 62
     7
370
    25
100
AcDbCircle
 10
626.9872470637
 20
223.3188900807
 30
0.0
 40
3.000000000001418
100
AcDbArc
 50
60.0000000002
 51
119.9999999998
  0
ARC
  5
141
330
1F
100
AcDbEntity
  8
0
  6
Continuous
 62
     7
370
    25
100
AcDbCircle
 10
632.9872470636
 20
233.7111949261
 30
0.0
 40
9.000000000019561
100
AcDbArc
 50
240.0000000002
 51
302.7203872641
  0
CIRCLE
  5
142
330
1F
100
AcDbEntity
  8
0
  6
Continuous
 62
     7
370
    25
100
AcDbCircle
 10
631.434332793
 20
227.9156399684
 30
0.0
 40
1.099999999999994
  0
CIRCLE
  5
143
330
1F
100
AcDbEntity
  8
0
  6
Continuous
 62
     7
370
    25
100
AcDbCircle
 10
627.1916921059
 20
235.2641091967
 30
0.0
 40
1.099999999999994
  0
CIRCLE
  5
144
330
1F
100
AcDbEntity
  8
0
  6
Continuous
 62
     7
370
    25
100
AcDbCircle
 10
634.5401613342
 20
239.5067498839
 30
0.0
 40
1.099999999999994
  0
CIRCLE
  5
145
330
1F
100
AcDbEntity
  8
0
  6
Continuous
 62
     7
370
    25
100
AcDbCircle
 10
638.7828020214
 20
232.1582806555
 30
0.0
 40
1.099999999999994
  0
CIRCLE
  5
146
330
1F
100
AcDbEntity
  8
0
  6
Continuous
 62
     7
370
    25
100
AcDbCircle
 10
632.9872470636
 20
277.1411949261
 30
0.0
 40
1.600000000007526
  0
ARC
  5
147
330
1F
100
AcDbEntity
  8
0
  6
Continuous
 62
     7
370
    25
100
AcDbCircle
 10
638.4872470636
 20
271.4121232966
 30
0.0
 40
3.000000000000024
100
AcDbArc
 50
81.6999563197
 51
180.0
  0
ARC
  5
148
330
1F
100
AcDbEntity
  8
0
  6
Continuous
 62
     7
370
    25
100
AcDbCircle
 10
632.9872470636
 20
233.7111949261
 30
0.0
 40
41.10000000000322
100
AcDbArc
 50
338.3000436803
 51
81.6999563197
  0
ARC
  5
149
330
1F
100
AcDbEntity
  8
0
  6
Continuous
 62
     7
370
    25
100
AcDbCircle
 10
668.3872087788
 20
219.6238704617
 30
0.0
 40
3.000000000000157
100
AcDbArc
 50
240.0
 51
338.3000436803
  0
LINE
  5
14A
330
1F
100
AcDbEntity
  8
0
  6
Continuous
 62
     7
370
    25
100
AcDbLine
 10
643.4737236646
 20
230.5435761837
 30
0.0
 11
666.8872087788
 21
217.0257942503
 31
0.0
  0
ARC
  5
14B
330
1F
100
AcDbEntity
  8
0
  6
Continuous
 62
     7
370
    25
100
AcDbCircle
 10
644.9737236646
 20
233.141652395
 30
0.0
 40
2.999999999999959
100
AcDbArc
 50
177.279612736
 51
240.0
  0
ARC
  5
14C
330
1F
100
AcDbEntity
  8
0
  6
Continuous
 62
     7
370
    25
100
AcDbCircle
 10
632.9872470636
 20
233.7111949261
 30
0.0
 40
9.00000000002313
100
AcDbArc
 50
357.279612736
 51
62.720387264
  0
ARC
  5
14D
330
1F
100
AcDbEntity
  8
0
  6
Continuous
 62
     7
370
    25
100
AcDbCircle
 10
638.4872470636
 20
244.37655943
 30
0.0
 40
3.000000000001229
100
AcDbArc
 50
180.0000000002
 51
242.7203872641
  0
LINE
  5
14E
330
1F
100
AcDbEntity
  8
0
  6
Continuous
 62
     7
370
    25
100
AcDbLine
 10
635.4872470636
 20
244.37655943
 30
0.0
 11
635.4872470636
 21
271.4121232966
 31
0.0
  0
LINE
  5
14F
330
1F
100
AcDbEntity
  8
0
  6
Continuous
 62
     7
370
    25
100
AcDbLine
 10
574.7757897516
 20
156.0641917564
 30
0.0
 11
574.7692239803
 21
146.0641960673
 31
0.0
  0
ARC
  5
150
330
1F
100
AcDbEntity
  8
0
  6
Continuous
 62
     7
370
    25
100
AcDbCircle
 10
571.7692246269
 20
146.0661657991
 30
0.0
 40
2.999999999999801
100
AcDbArc
 50
270.0
 51
359.9623808904
  0
LINE
  5
151
330
1F
100
AcDbEntity
  8
0
  6
Continuous
 62
     7
370
    25
100
AcDbLine
 10
561.7889240993
 20
143.0661657991
 30
0.0
 11
571.7692246269
 21
143.0661657991
 31
0.0
  0
ARC
  5
152
330
1F
100
AcDbEntity
  8
0
  6
Continuous
 62
     7
370
    25
100
AcDbCircle
 10
561.7889240993
 20
146.0661657991
 30
0.0
 40
2.999999999999801
100
AcDbArc
 50
180.0376191096
 51
270.0
  0
LINE
  5
153
330
1F
100
AcDbEntity
  8
0
  6
Continuous
 62
     7
370
    25
100
AcDbLine
 10
558.7823589745
 20
156.0641917564
 30
0.0
 11
558.7889247459
 21
146.0641960673
 31
0.0
  0
ARC
  5
154
330
1F
100
AcDbEntity
  8
0
  6
Continuous
 62
     7
370
    25
100
AcDbCircle
 10
561.7823583279
 20
156.0661614882
 30
0.0
 40
3.000000000000057
100
AcDbArc
 50
90.0
 51
180.0376191096
  0
LINE
  5
155
330
1F
100
AcDbEntity
  8
0
  6
Continuous
 62
     7
370
    25
100
AcDbLine
 10
561.7823583279
 20
159.0661614882
 30
0.0
 11
571.7757903983
 21
159.0661614882
 31
0.0
  0
ARC
  5
156
330
1F
100
AcDbEntity
  8
0
  6
Continuous
 62
     7
370
    25
100
AcDbCircle
 10
571.7757903983
 20
156.0661614882
 30
0.0
 40
3.000000000000057
100
AcDbArc
 50
359.9623808904
 51
90.0
  0
CIRCLE
  5
157
330
1F
100
AcDbEntity
  8
0
  6
Continuous
 62
     7
370
    25
100
AcDbCircle
 10
576.7790743631
 20
141.0661614882
 30
0.0
 40
1.600000000000023
  0
ARC
  5
158
330
1F
100
AcDbEntity
  8
0
  6
Continuous
 62
     7
370
    25
100
AcDbCircle
 10
588.1864491988
 20
160.7641390816
 30
0.0
 40
1.999999999999984
100
AcDbArc
 50
335.8447322096
 51
60.0
  0
ARC
  5
159
330
1F
100
AcDbEntity
  8
0
  6
Continuous
 62
     7
370
    25
100
AcDbCircle
 10
632.9872470636
 20
140.6718890664
 30
0.0
 40
47.10000000000245
100
AcDbArc
 50
155.8447322096
 51
171.3447173433
  0
ARC
  5
15A
330
1F
100
AcDbEntity
  8
0
  6
Continuous
 62
     7
370
    25
100
AcDbCircle
 10
584.4464155644
 20
148.0609131809
 30
0.0
 40
2.000000000000061
100
AcDbArc
 50
270.0
 51
351.3447173433
  0
LINE
  5
15B
330
1F
100
AcDbEntity
  8
0
  6
Continuous
 62
     7
370
    25
100
AcDbLine
 10
581.7705364885
 20
146.0609131809
 30
0.0
 11
584.4464155644
 21
146.0609131809
 31
0.0
  0
ARC
  5
15C
330
1F
100
AcDbEntity
  8
0
  6
Continuous
 62
     7
370
    25
100
AcDbCircle
 10
581.7705364885
 20
148.0609131809
 30
0.0
 40
2.000000000000212
100
AcDbArc
 50
179.9623808904
 51
270.0
  0
LINE
  5
15D
330
1F
100
AcDbEntity
  8
0
  6
Continuous
 62
     7
370
    25
100
AcDbLine
 10
579.7719629474
 20
150.2341375721
 30
0.0
 11
579.7705369195
 21
148.0622263355
 31
0.0
  0
ARC
  5
15E
330
1F
100
AcDbEntity
  8
0
  6
Continuous
 62
     7
370
    25
100
AcDbCircle
 10
609.771956481
 20
150.2144402538
 30
0.0
 40
30.0
100
AcDbArc
 50
157.6550853773
 51
179.9623808904
  0
ARC
  5
15F
330
1F
100
AcDbEntity
  8
0
  6
Continuous
 62
     7
370
    25
100
AcDbCircle
 10
632.9872470636
 20
140.6718890664
 30
0.0
 40
55.1000000000106
100
AcDbArc
 50
155.4030873561
 51
157.6550853773
  0
ARC
  5
160
330
1F
100
AcDbEntity
  8
0
  6
Continuous
 62
     7
370
    25
100
AcDbCircle
 10
584.7056186522
 20
162.7737975347
 30
0.0
 40
2.000000000000066
100
AcDbArc
 50
60.0
 51
155.4030873561
  0
LINE
  5
161
330
1F
100
AcDbEntity
  8
0
  6
Continuous
 62
     7
370
    25
100
AcDbLine
 10
589.1864491988
 20
162.4961898892
 30
0.0
 11
585.7056186522
 21
164.5058483423
 31
0.0
  0
ARC
  5
162
330
1F
100
AcDbEntity
  8
0
  6
Continuous
 62
     7
370
    25
100
AcDbCircle
 10
550.1473585055
 20
137.0001166854
 30
0.0
 40
1.256045300518053
100
AcDbArc
 50
180.0
 51
0.0
  0
LINE
  5
163
330
1F
100
AcDbEntity
  8
0
  6
Continuous
 62
     7
370
    25
100
AcDbLine
 10
548.891313205
 20
140.5001166854
 30
0.0
 11
548.891313205
 21
137.0001166854
 31
0.0
  0
ARC
  5
164
330
1F
100
AcDbEntity
  8
0
  6
Continuous
 62
     7
370
    25
100
AcDbCircle
 10
550.1473585055
 20
140.5001166854
 30
0.0
 40
1.256045300518053
100
AcDbArc
 50
0.0
 51
180.0
  0
LINE
  5
165
330
1F
100
AcDbEntity
  8
0
  6
Continuous
 62
     7
370
    25
100
AcDbLine
 10
551.403403806
 20
140.5001166854
 30
0.0
 11
551.403403806
 21
137.0001166854
 31
0.0
  0
ELLIPSE
  5
166
330
1F
100
AcDbEntity
  8
0
  6
Continuous
 62
     7
370
    25
100
AcDbEllipse
 10
566.7790743631
 20
169.0488151651
 30
0.0
 11
-10.00000000000011
 21
0.0
 31
0.0
210
0.0
220
0.0
230
1.0
 40
0.5516265871
 41
0.0
 42
6.283185307179586
  0
ELLIPSE
  5
167
330
1F
100
AcDbEntity
  8
0
  6
Continuous
 62
     7
370
    25
100
AcDbEllipse
 10
566.7790743631
 20
262.3597805211
 30
0.0
 11
-9.483198864547603
 21
0.0
 31
0.0
210
0.0
220
0.0
230
1.0
 40
0.7959801903
 41
0.0
 42
3.141592653589793
  0
ARC
  5
168
330
1F
100
AcDbEntity
  8
0
  6
Continuous
 62
     7
370
    25
100
AcDbCircle
 10
554.0458754985
 20
262.3597805211
 30
0.0
 40
3.249999999999659
100
AcDbArc
 50
0.0
 51
180.0
  0
LINE
  5
169
330
1F
100
AcDbEntity
  8
0
  6
Continuous
 62
     7
370
    25
100
AcDbLine
 10
550.7958754985
 20
262.3597805211
 30
0.0
 11
550.7958754985
 21
260.2956591025
 31
0.0
  0
ARC
  5
16A
330
1F
100
AcDbEntity
  8
0
  6
Continuous
 62
     7
370
    25
100
AcDbCircle
 10
545.4181461541
 20
260.2956591025
 30
0.0
 40
5.377729344470481
100
AcDbArc
 50
212.5307194599
 51
0.0
  0
ARC
  5
16B
330
1F
100
AcDbEntity
  8
0
  6
Continuous
 62
     7
370
    25
100
AcDbCircle
 10
500.5709016625
 20
233.7111949261
 30
0.0
 40
46.75999999999961
100
AcDbArc
 50
30.4432567457
 51
243.9951347041
  0
ARC
  5
16C
330
1F
100
AcDbEntity
  8
0
  6
Continuous
 62
     7
370
    25
100
AcDbCircle
 10
477.8768607865
 20
187.1915419962
 30
0.0
 40
5.000000000000009
100
AcDbArc
 50
296.0048652959
 51
63.9951347041
  0
ARC
  5
16D
330
1F
100
AcDbEntity
  8
0
  6
Continuous
 62
     7
370
    25
100
AcDbCircle
 10
500.5709016625
 20
140.6718890664
 30
0.0
 40
46.75999999999954
100
AcDbArc
 50
116.0048652959
 51
326.1443247091
  0
ARC
  5
16E
330
1F
100
AcDbEntity
  8
0
  6
Continuous
 62
     7
370
    25
100
AcDbCircle
 10
564.3157458781
 20
97.9086754835
 30
0.0
 40
29.99999999999996
100
AcDbArc
 50
122.1987567565
 51
146.1443247091
  0
ARC
  5
16F
330
1F
100
AcDbEntity
  8
0
  6
Continuous
 62
     7
370
    25
100
AcDbCircle
 10
566.7790743631
 20
93.9967879899
 30
0.0
 40
34.62286177467534
100
AcDbArc
 50
57.8012432435
 51
122.1987567565
  0
ARC
  5
170
330
1F
100
AcDbEntity
  8
0
  6
Continuous
 62
     7
370
    25
100
AcDbCircle
 10
569.2424028481
 20
97.9086754835
 30
0.0
 40
30.0000000000001
100
AcDbArc
 50
33.8556752909
 51
57.8012432435
  0
ARC
  5
171
330
1F
100
AcDbEntity
  8
0
  6
Continuous
 62
     7
370
    25
100
AcDbCircle
 10
632.9872470636
 20
140.6718890664
 30
0.0
 40
46.75999999999952
100
AcDbArc
 50
213.8556752909
 51
63.9951347041
  0
ARC
  5
172
330
1F
100
AcDbEntity
  8
0
  6
Continuous
 62
     7
370
    25
100
AcDbCircle
 10
655.6812879397
 20
187.1915419962
 30
0.0
 40
4.999999999999984
100
AcDbArc
 50
116.0048652959
 51
243.9951347041
  0
ARC
  5
173
330
1F
100
AcDbEntity
  8
0
  6
Continuous
 62
     7
370
    25
100
AcDbCircle
 10
632.9872470636
 20
233.7111949261
 30
0.0
 40
46.75999999999956
100
AcDbArc
 50
296.0048652959
 51
149.5567432543
  0
ARC
  5
174
330
1F
100
AcDbEntity
  8
0
  6
Continuous
 62
     7
370
    25
100
AcDbCircle
 10
588.1400025721
 20
260.2956591025
 30
0.0
 40
5.377729344470481
100
AcDbArc
 50
180.0
 51
327.4692805401
  0
LINE
  5
175
330
1F
100
AcDbEntity
  8
0
  6
Continuous
 62
     7
370
    25
100
AcDbLine
 10
582.7622732276
 20
262.3597805211
 30
0.0
 11
582.7622732276
 21
260.2956591025
 31
0.0
  0
ARC
  5
176
330
1F
100
AcDbEntity
  8
0
  6
Continuous
 62
     7
370
    25
100
AcDbCircle
 10
579.5122732276
 20
262.3597805211
 30
0.0
 40
3.250000000000114
100
AcDbArc
 50
0.0
 51
180.0
  0
ARC
  5
177
330
1F
100
AcDbEntity
  8
0
  6
Continuous
 62
     7
370
    25
100
AcDbCircle
 10
564.0917019115
 20
245.9848791753
 30
0.0
 40
2.999999999999986
100
AcDbArc
 50
82.598410672
 51
149.2956754316
  0
SPLINE
  5
178
330
1F
100
AcDbEntity
  8
0
  6
Continuous
 62
     7
370
    25
100
AcDbSpline
210
0.0
220
0.0
230
1.0
 70
     8
 71
     3
 72
     8
 73
     4
 74
     0
 42
0.000000001
 43
0.00000001
 40
0.0
 40
0.0
 40
0.0
 40
0.0
 40
1.0
 40
1.0
 40
1.0
 40
1.0
 10
564.4781712249535
 20
248.9598819433068
 30
0.0
 10
566.0024201092815
 20
248.7618732084965
 30
0.0
 10
567.5550450337212
 20
248.7617844070957
 30
0.0
 10
569.0799775012066
 20
248.9598819433068
 30
0.0
  0
ARC
  5
179
330
1F
100
AcDbEntity
  8
0
  6
Continuous
 62
     7
370
    25
100
AcDbCircle
 10
569.4664468147
 20
245.9848791753
 30
0.0
 40
3.000000000000005
100
AcDbArc
 50
30.7043245684
 51
97.401589328
  0
LINE
  5
17A
330
1F
100
AcDbEntity
  8
0
  6
Continuous
 62
     7
370
    25
100
AcDbLine
 10
572.0458880179
 20
247.5167026243
 30
0.0
 11
574.8925162843
 21
242.7232584157
 31
0.0
  0
ARC
  5
17B
330
1F
100
AcDbEntity
  8
0
  6
Continuous
 62
     7
370
    25
100
AcDbCircle
 10
572.313075081
 20
241.1914349667
 30
0.0
 40
3.000000000000117
100
AcDbArc
 50
355.494321559
 51
30.7043245684
  0
ARC
  5
17C
330
1F
100
AcDbEntity
  8
0
  6
Continuous
 62
     7
370
    25
100
AcDbCircle
 10
574.3068941869
 20
241.0343191721
 30
0.0
 40
1.000000000000099
100
AcDbArc
 50
270.0
 51
355.494321559
  0
LINE
  5
17D
330
1F
100
AcDbEntity
  8
0
  6
Continuous
 62
     7
370
    25
100
AcDbLine
 10
574.3068941869
 20
240.0343191721
 30
0.0
 11
559.2512545392
 21
240.0343191721
 31
0.0
  0
ARC
  5
17E
330
1F
100
AcDbEntity
  8
0
  6
Continuous
 62
     7
370
    25
100
AcDbCircle
 10
559.2512545392
 20
241.0343191721
 30
0.0
 40
0.9999999999999855
100
AcDbArc
 50
184.505678441
 51
270.0
  0
ARC
  5
17F
330
1F
100
AcDbEntity
  8
0
  6
Continuous
 62
     7
370
    25
100
AcDbCircle
 10
561.2450736451
 20
241.1914349667
 30
0.0
 40
2.99999999999995
100
AcDbArc
 50
149.2956754316
 51
184.505678441
  0
LINE
  5
180
330
1F
100
AcDbEntity
  8
0
  6
Continuous
 62
     7
370
    25
100
AcDbLine
 10
561.5122607082
 20
247.5167026243
 30
0.0
 11
558.6656324419
 21
242.7232584157
 31
0.0
  0
CIRCLE
  5
181
330
1F
100
AcDbEntity
  8
0
  6
Continuous
 62
     7
370
    25
100
AcDbCircle
 10
556.7790743631
 20
215.3169225043
 30
0.0
 40
1.600000000000023
  0
CIRCLE
  5
182
330
1F
100
AcDbEntity
  8
0
  6
Continuous
 62
     7
370
    25
100
AcDbCircle
 10
556.7790743631
 20
235.3169225043
 30
0.0
 40
1.600000000000023
  0
ARC
  5
183
330
1F
100
AcDbEntity
  8
0
  6
Continuous
 62
     7
370
    25
100
AcDbCircle
 10
500.5709016625
 20
233.7111949261
 30
0.0
 40
46.75999999999956
100
AcDbArc
 50
356.2910825625
 51
14.7249034789
  0
ARC
  5
184
330
1F
100
AcDbEntity
  8
0
  6
Continuous
 62
     7
370
    25
100
AcDbCircle
 10
547.7294948338
 20
246.1049308483
 30
0.0
 40
1.99999999999999
100
AcDbArc
 50
99.250951154
 51
194.7249034789
  0
ARC
  5
185
330
1F
100
AcDbEntity
  8
0
  6
Continuous
 62
     7
370
    25
100
AcDbCircle
 10
545.4181461541
 20
260.2956591025
 30
0.0
 40
12.37772934447048
100
AcDbArc
 50
279.250951154
 51
297.4685622338
  0
ARC
  5
186
330
1F
100
AcDbEntity
  8
0
  6
Continuous
 62
     7
370
    25
100
AcDbCircle
 10
551.5887823073
 20
248.426080682
 30
0.0
 40
0.9999999999999469
100
AcDbArc
 50
359.4136411292
 51
117.4685622338
  0
ARC
  5
187
330
1F
100
AcDbEntity
  8
0
  6
Continuous
 62
     7
370
    25
100
AcDbCircle
 10
499.9038967029
 20
248.955036732
 30
0.0
 40
52.68759226777443
100
AcDbArc
 50
339.2252565929
 51
359.4136411292
  0
ARC
  5
188
330
1F
100
AcDbEntity
  8
0
  6
Continuous
 62
     7
370
    25
100
AcDbCircle
 10
548.2308713258
 20
230.6217141134
 30
0.0
 40
1.00000000000001
100
AcDbArc
 50
176.2910825625
 51
339.2252565929
  0
ARC
  5
189
330
1F
100
AcDbEntity
  8
0
  6
Continuous
 62
     7
370
    25
100
AcDbCircle
 10
552.2139505493
 20
227.2267345982
 30
0.0
 40
1.000000000000008
100
AcDbArc
 50
64.7645963877
 51
157.4432105906
  0
ARC
  5
18A
330
1F
100
AcDbEntity
  8
0
  6
Continuous
 62
     7
370
    25
100
AcDbCircle
 10
551.7876122377
 20
226.3221708116
 30
0.0
 40
2.000000000000326
100
AcDbArc
 50
359.9623808904
 51
64.7645963877
  0
LINE
  5
18B
330
1F
100
AcDbEntity
  8
0
  6
Continuous
 62
     7
370
    25
100
AcDbLine
 10
553.7861857787
 20
224.1489464204
 30
0.0
 11
553.7876118066
 21
226.320857657
 31
0.0
  0
ARC
  5
18C
330
1F
100
AcDbEntity
  8
0
  6
Continuous
 62
     7
370
    25
100
AcDbCircle
 10
523.7861922451
 20
224.1686437387
 30
0.0
 40
30.00000000000012
100
AcDbArc
 50
337.6550853773
 51
359.9623808904
  0
ARC
  5
18D
330
1F
100
AcDbEntity
  8
0
  6
Continuous
 62
     7
370
    25
100
AcDbCircle
 10
500.5709016625
 20
233.7111949261
 30
0.0
 40
55.10000000001059
100
AcDbArc
 50
335.4030873561
 51
337.6550853773
  0
ARC
  5
18E
330
1F
100
AcDbEntity
  8
0
  6
Continuous
 62
     7
370
    25
100
AcDbCircle
 10
548.8525300739
 20
211.6092864578
 30
0.0
 40
2.000000000000001
100
AcDbArc
 50
240.0
 51
335.4030873561
  0
LINE
  5
18F
330
1F
100
AcDbEntity
  8
0
  6
Continuous
 62
     7
370
    25
100
AcDbLine
 10
544.3716995274
 20
211.8868941033
 30
0.0
 11
547.8525300739
 21
209.8772356502
 31
0.0
  0
ARC
  5
190
330
1F
100
AcDbEntity
  8
0
  6
Continuous
 62
     7
370
    25
100
AcDbCircle
 10
545.3716995274
 20
213.6189449109
 30
0.0
 40
2.000000000000048
100
AcDbArc
 50
155.8447322096
 51
240.0
  0
ARC
  5
191
330
1F
100
AcDbEntity
  8
0
  6
Continuous
 62
     7
370
    25
100
AcDbCircle
 10
499.9038967029
 20
248.955036732
 30
0.0
 40
55.64327715647152
100
AcDbArc
 50
321.6591381181
 51
337.4432105906
  0
LINE
  5
192
330
1F
100
AcDbEntity
  8
0
  6
Continuous
 62
     7
370
    25
100
AcDbLine
 10
574.7757897516
 20
220.3188922361
 30
0.0
 11
574.7692239803
 21
230.3188879252
 31
0.0
  0
ARC
  5
193
330
1F
100
AcDbEntity
  8
0
  6
Continuous
 62
     7
370
    25
100
AcDbCircle
 10
571.7757903983
 20
220.3169225043
 30
0.0
 40
3.000000000000057
100
AcDbArc
 50
270.0
 51
0.0376191096
  0
LINE
  5
194
330
1F
100
AcDbEntity
  8
0
  6
Continuous
 62
     7
370
    25
100
AcDbLine
 10
561.7823583279
 20
217.3169225043
 30
0.0
 11
571.7757903983
 21
217.3169225043
 31
0.0
  0
ARC
  5
195
330
1F
100
AcDbEntity
  8
0
  6
Continuous
 62
     7
370
    25
100
AcDbCircle
 10
561.7823583279
 20
220.3169225043
 30
0.0
 40
3.000000000000057
100
AcDbArc
 50
179.9623808904
 51
270.0
  0
LINE
  5
196
330
1F
100
AcDbEntity
  8
0
  6
Continuous
 62
     7
370
    25
100
AcDbLine
 10
558.7823589745
 20
220.3188922361
 30
0.0
 11
558.7889247459
 21
230.3188879252
 31
0.0
  0
ARC
  5
197
330
1F
100
AcDbEntity
  8
0
  6
Continuous
 62
     7
370
    25
100
AcDbCircle
 10
561.7889240993
 20
230.3169181934
 30
0.0
 40
2.999999999999773
100
AcDbArc
 50
90.0
 51
179.9623808904
  0
LINE
  5
198
330
1F
100
AcDbEntity
  8
0
  6
Continuous
 62
     7
370
    25
100
AcDbLine
 10
561.7889240993
 20
233.3169181934
 30
0.0
 11
571.7692246269
 21
233.3169181934
 31
0.0
  0
ARC
  5
199
330
1F
100
AcDbEntity
  8
0
  6
Continuous
 62
     7
370
    25
100
AcDbCircle
 10
571.7692246269
 20
230.3169181934
 30
0.0
 40
2.999999999999773
100
AcDbArc
 50
0.0376191096
 51
90.0
  0
ELLIPSE
  5
19A
330
1F
100
AcDbEntity
  8
0
  6
Continuous
 62
     7
370
    25
100
AcDbEllipse
 10
566.7790743631
 20
205.8505346982
 30
0.0
 11
-10.00000000000011
 21
0.0
 31
0.0
210
0.0
220
0.0
230
1.0
 40
0.6
 41
0.0
 42
6.283185307179586
  0
ARC
  5
19B
330
1F
100
AcDbEntity
  8
0
  6
Continuous
 62
     7
370
    25
100
AcDbCircle
 10
585.3272774003
 20
230.6217141134
 30
0.0
 40
1.00000000000001
100
AcDbArc
 50
200.7747434071
 51
3.7089174375
  0
ARC
  5
19C
330
1F
100
AcDbEntity
  8
0
  6
Continuous
 62
     7
370
    25
100
AcDbCircle
 10
633.6542520232
 20
248.955036732
 30
0.0
 40
52.68759226777448
100
AcDbArc
 50
180.5863588708
 51
200.7747434071
  0
ARC
  5
19D
330
1F
100
AcDbEntity
  8
0
  6
Continuous
 62
     7
370
    25
100
AcDbCircle
 10
581.9693664189
 20
248.426080682
 30
0.0
 40
0.9999999999999987
100
AcDbArc
 50
62.5314377662
 51
180.5863588708
  0
ARC
  5
19E
330
1F
100
AcDbEntity
  8
0
  6
Continuous
 62
     7
370
    25
100
AcDbCircle
 10
588.1400025721
 20
260.2956591025
 30
0.0
 40
12.37772934447044
100
AcDbArc
 50
242.5314377662
 51
260.749048846
  0
ARC
  5
19F
330
1F
100
AcDbEntity
  8
0
  6
Continuous
 62
     7
370
    25
100
AcDbCircle
 10
585.8286538924
 20
246.1049308483
 30
0.0
 40
2.00000000000005
100
AcDbArc
 50
345.2750965211
 51
80.749048846
  0
ARC
  5
1A0
330
1F
100
AcDbEntity
  8
0
  6
Continuous
 62
     7
370
    25
100
AcDbCircle
 10
632.9872470636
 20
233.7111949261
 30
0.0
 40
46.75999999999962
100
AcDbArc
 50
165.2750965211
 51
183.7089174375
  0
ENDSEC
  0
SECTION
  2
OBJECTS
  0
DICTIONARY
  5
C
330
0
100
AcDbDictionary
281
     1
  3
ACAD_GROUP
350
D
  3
ACAD_LAYOUT
350
1A
  3
ACAD_MLINESTYLE
350
17
  3
ACAD_PLOTSETTINGS
350
19
  3
ACAD_PLOTSTYLENAME
350
E
  3
ACAD_SCALELIST
350
47
  0
DICTIONARY
  5
D
102
{ACAD_REACTORS
330
C
102
}
330
C
100
AcDbDictionary
281
     1
  0
DICTIONARY
  5
1A
102
{ACAD_REACTORS
330
C
102
}
330
C
100
AcDbDictionary
281
     1
  3
Layout1
350
1E
  3
Layout2
350
26
  3
Model
350
22
  0
DICTIONARY
  5
17
102
{ACAD_REACTORS
330
C
102
}
330
C
100
AcDbDictionary
281
     1
  3
Standard
350
18
  0
DICTIONARY
  5
19
102
{ACAD_REACTORS
330
C
102
}
330
C
100
AcDbDictionary
281
     1
  0
ACDBDICTIONARYWDFLT
  5
E
102
{ACAD_REACTORS
330
C
102
}
330
C
100
AcDbDictionary
281
     1
  3
Normal
350
F
100
AcDbDictionaryWithDefault
340
F
  0
DICTIONARY
  5
47
102
{ACAD_REACTORS
330
C
102
}
330
C
100
AcDbDictionary
281
     1
  3
A0
350
48
  3
A1
350
49
  3
A2
350
4A
  3
A3
350
4B
  3
A4
350
4C
  3
A5
350
4D
  3
A6
350
4E
  3
A7
350
4F
  3
A8
350
50
  3
A9
350
51
  3
B0
350
52
  3
B1
350
53
  3
B2
350
54
  3
B3
350
55
  3
B4
350
56
  3
B5
350
57
  3
B6
350
58
  3
B7
350
59
  3
B8
350
5A
  3
B9
350
5B
  3
C0
350
5C
  3
C1
350
5D
  3
C2
350
5E
  3
C3
350
5F
  3
C4
350
60
  3
C5
350
61
  3
C6
350
62
  3
C7
350
63
  3
C8
350
64
  3
C9
350
65
  3
D0
350
66
  3
D1
350
67
  3
D2
350
68
  0
LAYOUT
  5
1E
102
{ACAD_REACTORS
330
1A
102
}
330
1A
100
AcDbPlotSettings
  1

  2
none_device
  4

  6

 40
0.0
 41
0.0
 42
0.0
 43
0.0
 44
0.0
 45
0.0
 46
0.0
 47
0.0
 48
0.0
 49
0.0
140
0.0
141
0.0
142
1.0
143
1.0
 70
   688
 72
     1
 73
     0
 74
     5
  7

 75
    16
147
1.0
148
0.0
149
0.0
100
AcDbLayout
  1
Layout1
 70
     1
 71
     1
 10
0.0
 20
0.0
 11
420.0
 21
297.0
 12
0.0
 22
0.0
 32
0.0
 14
1.0000000000E+20
 24
1.0000000000E+20
 34
1.0000000000E+20
 15
-1.0000000000E+20
 25
-1.0000000000E+20
 35
-1.0000000000E+20
146
0.0
 13
0.0
 23
0.0
 33
0.0
 16
1.0
 26
0.0
 36
0.0
 17
0.0
 27
1.0
 37
0.0
 76
     0
330
1B
  0
LAYOUT
  5
26
102
{ACAD_REACTORS
330
1A
102
}
330
1A
100
AcDbPlotSettings
  1

  2
none_device
  4

  6

 40
0.0
 41
0.0
 42
0.0
 43
0.0
 44
0.0
 45
0.0
 46
0.0
 47
0.0
 48
0.0
 49
0.0
140
0.0
141
0.0
142
1.0
143
1.0
 70
   688
 72
     1
 73
     0
 74
     5
  7

 75
    16
147
1.0
148
0.0
149
0.0
100
AcDbLayout
  1
Layout2
 70
     1
 71
     2
 10
0.0
 20
0.0
 11
0.0
 21
0.0
 12
0.0
 22
0.0
 32
0.0
 14
0.0
 24
0.0
 34
0.0
 15
0.0
 25
0.0
 35
0.0
146
0.0
 13
0.0
 23
0.0
 33
0.0
 16
1.0
 26
0.0
 36
0.0
 17
0.0
 27
1.0
 37
0.0
 76
     0
330
23
  0
LAYOUT
  5
22
102
{ACAD_REACTORS
330
1A
102
}
330
1A
100
AcDbPlotSettings
  1

  2
none_device
  4
ANSI_A_(11.00_x_8.50_Inches)
  6

 40
6.35
 41
19.05
 42
6.35000508
 43
19.05000254
 44
279.4
 45
215.9
 46
-516.008797992
 47
-125.5653542227
 48
0.0
 49
0.0
140
0.0
141
0.0
142
0.0451062999
143
1.0
 70
  1696
 72
     0
 73
     0
 74
     0
  7

 75
     0
147
0.0179189148
148
-1300.4909072572
149
0.0
100
AcDbLayout
  1
Model
 70
     1
 71
     0
 10
0.0
 20
0.0
 11
420.0
 21
297.0
 12
0.0
 22
0.0
 32
0.0
 14
453.8109016625
 24
93.9118890664
 34
0.0
 15
679.7472470636
 25
280.4711949261
 35
0.0
146
0.0
 13
0.0
 23
0.0
 33
0.0
 16
1.0
 26
0.0
 36
0.0
 17
0.0
 27
1.0
 37
0.0
 76
     0
330
1F
331
29
  0
MLINESTYLE
  5
18
102
{ACAD_REACTORS
330
17
102
}
330
17
100
AcDbMlineStyle
  2
Standard
 70
     0
  3

 62
   256
 51
90.0
 52
90.0
 71
     2
 49
0.5
 62
   256
  6
BYLAYER
 49
-0.5
 62
   256
  6
BYLAYER
  0
ACDBPLACEHOLDER
  5
F
102
{ACAD_REACTORS
330
E
102
}
330
E
  0
SCALE
  5
48
102
{ACAD_REACTORS
330
47
102
}
330
47
100
AcDbScale
 70
     0
300
1:1
140
1.0
141
1.0
290
     1
  0
SCALE
  5
49
102
{ACAD_REACTORS
330
47
102
}
330
47
100
AcDbScale
 70
     0
300
1:2
140
1.0
141
2.0
290
     0
  0
SCALE
  5
4A
102
{ACAD_REACTORS
330
47
102
}
330
47
100
AcDbScale
 70
     0
300
1:4
140
1.0
141
4.0
290
     0
  0
SCALE
  5
4B
102
{ACAD_REACTORS
330
47
102
}
330
47
100
AcDbScale
 70
     0
300
1:5
140
1.0
141
5.0
290
     0
  0
SCALE
  5
4C
102
{ACAD_REACTORS
330
47
102
}
330
47
100
AcDbScale
 70
     0
300
1:8
140
1.0
141
8.0
290
     0
  0
SCALE
  5
4D
102
{ACAD_REACTORS
330
47
102
}
330
47
100
AcDbScale
 70
     0
300
1:10
140
1.0
141
10.0
290
     0
  0
SCALE
  5
4E
102
{ACAD_REACTORS
330
47
102
}
330
47
100
AcDbScale
 70
     0
300
1:16
140
1.0
141
16.0
290
     0
  0
SCALE
  5
4F
102
{ACAD_REACTORS
330
47
102
}
330
47
100
AcDbScale
 70
     0
300
1:20
140
1.0
141
20.0
290
     0
  0
SCALE
  5
50
102
{ACAD_REACTORS
330
47
102
}
330
47
100
AcDbScale
 70
     0
300
1:30
140
1.0
141
30.0
290
     0
  0
SCALE
  5
51
102
{ACAD_REACTORS
330
47
102
}
330
47
100
AcDbScale
 70
     0
300
1:40
140
1.0
141
40.0
290
     0
  0
SCALE
  5
52
102
{ACAD_REACTORS
330
47
102
}
330
47
100
AcDbScale
 70
     0
300
1:50
140
1.0
141
50.0
290
     0
  0
SCALE
  5
53
102
{ACAD_REACTORS
330
47
102
}
330
47
100
AcDbScale
 70
     0
300
1:100
140
1.0
141
100.0
290
     0
  0
SCALE
  5
54
102
{ACAD_REACTORS
330
47
102
}
330
47
100
AcDbScale
 70
     0
300
2:1
140
2.0
141
1.0
290
     0
  0
SCALE
  5
55
102
{ACAD_REACTORS
330
47
102
}
330
47
100
AcDbScale
 70
     0
300
4:1
140
4.0
141
1.0
290
     0
  0
SCALE
  5
56
102
{ACAD_REACTORS
330
47
102
}
330
47
100
AcDbScale
 70
     0
300
8:1
140
8.0
141
1.0
290
     0
  0
SCALE
  5
57
102
{ACAD_REACTORS
330
47
102
}
330
47
100
AcDbScale
 70
     0
300
10:1
140
10.0
141
1.0
290
     0
  0
SCALE
  5
58
102
{ACAD_REACTORS
330
47
102
}
330
47
100
AcDbScale
 70
     0
300
100:1
140
100.0
141
1.0
290
     0
  0
SCALE
  5
59
102
{ACAD_REACTORS
330
47
102
}
330
47
100
AcDbScale
 70
     0
300
1/128" = 1'-0"
140
0.0078125
141
12.0
290
     0
  0
SCALE
  5
5A
102
{ACAD_REACTORS
330
47
102
}
330
47
100
AcDbScale
 70
     0
300
1/64" = 1'-0"
140
0.015625
141
12.0
290
     0
  0
SCALE
  5
5B
102
{ACAD_REACTORS
330
47
102
}
330
47
100
AcDbScale
 70
     0
300
1/32" = 1'-0"
140
0.03125
141
12.0
290
     0
  0
SCALE
  5
5C
102
{ACAD_REACTORS
330
47
102
}
330
47
100
AcDbScale
 70
     0
300
1/16" = 1'-0"
140
0.0625
141
12.0
290
     0
  0
SCALE
  5
5D
102
{ACAD_REACTORS
330
47
102
}
330
47
100
AcDbScale
 70
     0
300
3/32" = 1'-0"
140
0.09375
141
12.0
290
     0
  0
SCALE
  5
5E
102
{ACAD_REACTORS
330
47
102
}
330
47
100
AcDbScale
 70
     0
300
1/8" = 1'-0"
140
0.125
141
12.0
290
     0
  0
SCALE
  5
5F
102
{ACAD_REACTORS
330
47
102
}
330
47
100
AcDbScale
 70
     0
300
3/16" = 1'-0"
140
0.1875
141
12.0
290
     0
  0
SCALE
  5
60
102
{ACAD_REACTORS
330
47
102
}
330
47
100
AcDbScale
 70
     0
300
1/4" = 1'-0"
140
0.25
141
12.0
290
     0
  0
SCALE
  5
61
102
{ACAD_REACTORS
330
47
102
}
330
47
100
AcDbScale
 70
     0
300
3/8" = 1'-0"
140
0.375
141
12.0
290
     0
  0
SCALE
  5
62
102
{ACAD_REACTORS
330
47
102
}
330
47
100
AcDbScale
 70
     0
300
1/2" = 1'-0"
140
0.5
141
12.0
290
     0
  0
SCALE
  5
63
102
{ACAD_REACTORS
330
47
102
}
330
47
100
AcDbScale
 70
     0
300
3/4" = 1'-0"
140
0.75
141
12.0
290
     0
  0
SCALE
  5
64
102
{ACAD_REACTORS
330
47
102
}
330
47
100
AcDbScale
 70
     0
300
1" = 1'-0"
140
1.0
141
12.0
290
     0
  0
SCALE
  5
65
102
{ACAD_REACTORS
330
47
102
}
330
47
100
AcDbScale
 70
     0
300
1-1/2" = 1'-0"
140
1.5
141
12.0
290
     0
  0
SCALE
  5
66
102
{ACAD_REACTORS
330
47
102
}
330
47
100
AcDbScale
 70
     0
300
3" = 1'-0"
140
3.0
141
12.0
290
     0
  0
SCALE
  5
67
102
{ACAD_REACTORS
330
47
102
}
330
47
100
AcDbScale
 70
     0
300
6" = 1'-0"
140
6.0
141
12.0
290
     0
  0
SCALE
  5
68
102
{ACAD_REACTORS
330
47
102
}
330
47
100
AcDbScale
 70
     0
300
1'-0" = 1'-0"
140
12.0
141
12.0
290
     0
  0
ENDSEC
  0
EOF
