  0
SECTION
  2
HEADER
  9
$ACADVER
  1
AC1015
  9
$ACADMAINTVER
 70
     6
  9
$DWGCODEPAGE
  3
ANSI_1252
  9
$INSBASE
 10
0.0
 20
0.0
 30
0.0
  9
$EXTMIN
 10
453.8109016625
 20
93.9118890664
 30
0.0
  9
$EXTMAX
 10
679.7472470636
 20
280.4711949261
 30
0.0
  9
$LIMMIN
 10
0.0
 20
0.0
  9
$LIMMAX
 10
420.0
 20
297.0
  9
$ORTHOMODE
 70
     0
  9
$REGENMODE
 70
     1
  9
$FILLMODE
 70
     1
  9
$QTEXTMODE
 70
     0
  9
$MIRRTEXT
 70
     1
  9
$LTSCALE
 40
1.0
  9
$ATTMODE
 70
     1
  9
$TEXTSIZE
 40
3.5
  9
$TRACEWID
 40
1.0
  9
$TEXTSTYLE
  7
Standard
  9
$CLAYER
  8
0
  9
$CELTYPE
  6
ByLayer
  9
$CECOLOR
 62
   256
  9
$CELTSCALE
 40
1.0
  9
$DISPSILH
 70
     0
  9
$DIMSCALE
 40
1.0
  9
$DIMASZ
 40
3.302
  9
$DIMEXO
 40
1.0
  9
$DIMDLI
 40
3.75
  9
$DIMRND
 40
0.0
  9
$DIMDLE
 40
0.0
  9
$DIMEXE
 40
1.0
  9
$DIMTP
 40
0.0
  9
$DIMTM
 40
0.0
  9
$DIMTXT
 40
3.5
  9
$DIMCEN
 40
2.5
  9
$DIMTSZ
 40
0.0
  9
$DIMTOL
 70
     0
  9
$DIMLIM
 70
     0
  9
$DIMTIH
 70
     1
  9
$DIMTOH
 70
     1
  9
$DIMSE1
 70
     0
  9
$DIMSE2
 70
     0
  9
$DIMTAD
 70
     1
  9
$DIMZIN
 70
     0
  9
$DIMBLK
  1

  9
$DIMASO
 70
     1
  9
$DIMSHO
 70
     1
  9
$DIMPOST
  1

  9
$DIMAPOST
  1

  9
$DIMALT
 70
     0
  9
$DIMALTD
 70
     3
  9
$DIMALTF
 40
0.0393700787
  9
$DIMLFAC
 40
1.0
  9
$DIMTOFL
 70
     1
  9
$DIMTVP
 40
0.0
  9
$DIMTIX
 70
     0
  9
$DIMSOXD
 70
     0
  9
$DIMSAH
 70
     0
  9
$DIMBLK1
  1

  9
$DIMBLK2
  1

  9
$DIMSTYLE
  2
ISO-25
  9
$DIMCLRD
 70
     0
  9
$DIMCLRE
 70
     0
  9
$DIMCLRT
 70
     0
  9
$DIMTFAC
 40
1.0
  9
$DIMGAP
 40
1.524
  9
$DIMJUST
 70
     0
  9
$DIMSD1
 70
     0
  9
$DIMSD2
 70
     0
  9
$DIMTOLJ
 70
     0
  9
$DIMTZIN
 70
     0
  9
$DIMALTZ
 70
     0
  9
$DIMALTTZ
 70
     0
  9
$DIMUPT
 70
     0
  9
$DIMDEC
 70
     2
  9
$DIMTDEC
 70
     2
  9
$DIMALTU
 70
     2
  9
$DIMALTTD
 70
     3
  9
$DIMTXSTY
  7
Standard
  9
$DIMAUNIT
 70
     0
  9
$DIMADEC
 70
     2
  9
$DIMALTRND
 40
0.0
  9
$DIMAZIN
 70
     0
  9
$DIMDSEP
 70
    44
  9
$DIMATFIT
 70
     3
  9
$DIMFRAC
 70
     0
  9
$DIMLDRBLK
  1

  9
$DIMLUNIT
 70
     2
  9
$DIMLWD
 70
    -2
  9
$DIMLWE
 70
    -2
  9
$DIMTMOVE
 70
     0
  9
$LUNITS
 70
     2
  9
$LUPREC
 70
     2
  9
$SKETCHINC
 40
1.0
  9
$FILLETRAD
 40
10.0
  9
$AUNITS
 70
     0
  9
$AUPREC
 70
     2
  9
$MENU
  1
.
  9
$ELEVATION
 40
0.0
  9
$PELEVATION
 40
0.0
  9
$THICKNESS
 40
0.0
  9
$LIMCHECK
 70
     0
  9
$CHAMFERA
 40
0.0
  9
$CHAMFERB
 40
0.0
  9
$CHAMFERC
 40
0.0
  9
$CHAMFERD
 40
0.0
  9
$SKPOLY
 70
     0
  9
$TDCREATE
 40
2458863.751191331
  9
$TDUCREATE
 40
2458863.751191331
  9
$TDUPDATE
 40
2458863.751390602
  9
$TDUUPDATE
 40
2458863.751390602
  9
$TDINDWG
 40
0.0000000116
  9
$TDUSRTIMER
 40
0.0000000116
  9
$USRTIMER
 70
     1
  9
$ANGBASE
 50
0.0
  9
$ANGDIR
 70
     0
  9
$PDMODE
 70
     0
  9
$PDSIZE
 40
-1.0
  9
$PLINEWID
 40
0.0
  9
$SPLFRAME
 70
     0
  9
$SPLINETYPE
 70
     6
  9
$SPLINESEGS
 70
     8
  9
$HANDSEED
  5
1AC
  9
$SURFTAB1
 70
     6
  9
$SURFTAB2
 70
     6
  9
$SURFTYPE
 70
     6
  9
$SURFU
 70
     6
  9
$SURFV
 70
     6
  9
$UCSBASE
  2

  9
$UCSNAME
  2

  9
$UCSORG
 10
0.0
 20
0.0
 30
0.0
  9
$UCSXDIR
 10
1.0
 20
0.0
 30
0.0
  9
$UCSYDIR
 10
0.0
 20
1.0
 30
0.0
  9
$UCSORTHOREF
  2

  9
$UCSORTHOVIEW
 70
     0
  9
$UCSORGTOP
 10
0.0
 20
0.0
 30
0.0
  9
$UCSORGBOTTOM
 10
0.0
 20
0.0
 30
0.0
  9
$UCSORGLEFT
 10
0.0
 20
0.0
 30
0.0
  9
$UCSORGRIGHT
 10
0.0
 20
0.0
 30
0.0
  9
$UCSORGFRONT
 10
0.0
 20
0.0
 30
0.0
  9
$UCSORGBACK
 10
0.0
 20
0.0
 30
0.0
  9
$PUCSBASE
  2

  9
$PUCSNAME
  2

  9
$PUCSORG
 10
0.0
 20
0.0
 30
0.0
  9
$PUCSXDIR
 10
1.0
 20
0.0
 30
0.0
  9
$PUCSYDIR
 10
0.0
 20
1.0
 30
0.0
  9
$PUCSORTHOREF
  2

  9
$PUCSORTHOVIEW
 70
     0
  9
$PUCSORGTOP
 10
0.0
 20
0.0
 30
0.0
  9
$PUCSORGBOTTOM
 10
0.0
 20
0.0
 30
0.0
  9
$PUCSORGLEFT
 10
0.0
 20
0.0
 30
0.0
  9
$PUCSORGRIGHT
 10
0.0
 20
0.0
 30
0.0
  9
$PUCSORGFRONT
 10
0.0
 20
0.0
 30
0.0
  9
$PUCSORGBACK
 10
0.0
 20
0.0
 30
0.0
  9
$USERI1
 70
     0
  9
$USERI2
 70
     0
  9
$USERI3
 70
     0
  9
$USERI4
 70
     0
  9
$USERI5
 70
     0
  9
$USERR1
 40
0.0
  9
$USERR2
 40
0.0
  9
$USERR3
 40
0.0
  9
$USERR4
 40
0.0
  9
$USERR5
 40
0.0
  9
$WORLDVIEW
 70
     1
  9
$SHADEDGE
 70
     3
  9
$SHADEDIF
 70
    70
  9
$TILEMODE
 70
     1
  9
$MAXACTVP
 70
    64
  9
$PINSBASE
 10
0.0
 20
0.0
 30
0.0
  9
$PLIMCHECK
 70
     0
  9
$PEXTMIN
 10
1.0000000000E+20
 20
1.0000000000E+20
 30
1.0000000000E+20
  9
$PEXTMAX
 10
-1.0000000000E+20
 20
-1.0000000000E+20
 30
-1.0000000000E+20
  9
$PLIMMIN
 10
0.0
 20
0.0
  9
$PLIMMAX
 10
420.0
 20
297.0
  9
$UNITMODE
 70
     0
  9
$VISRETAIN
 70
     1
  9
$PLINEGEN
 70
     0
  9
$PSLTSCALE
 70
     1
  9
$TREEDEPTH
 70
  3020
  9
$CMLSTYLE
  2
Standard
  9
$CMLJUST
 70
     0
  9
$CMLSCALE
 40
20.0
  9
$PROXYGRAPHICS
 70
     1
  9
$MEASUREMENT
 70
     1
  9
$CELWEIGHT
370
    -1
  9
$ENDCAPS
280
     0
  9
$JOINSTYLE
280
     0
  9
$LWDISPLAY
290
     1
  9
$INSUNITS
 70
     4
  9
$HYPERLINKBASE
  1

  9
$STYLESHEET
  1

  9
$XEDIT
290
     1
  9
$CEPSNTYPE
380
     0
  9
$PSTYLEMODE
290
     1
  9
$FINGERPRINTGUID
  2
{386471FA-3DAD-4699-9EB5-0C1E1ED71532}
  9
$VERSIONGUID
  2
{FAEB1C32-E019-11D5-929B-00C0DF256EC4}
  9
$EXTNAMES
290
     1
  9
$PSVPSCALE
 40
0.0
  9
$OLESTARTUP
290
     0
  0
ENDSEC
  0
SECTION
  2
CLASSES
  0
CLASS
  1
ACDBDICTIONARYWDFLT
  2
AcDbDictionaryWithDefault
  3
ObjectDBX Classes
 90
        0
280
     0
281
     0
  0
CLASS
  1
VISUALSTYLE
  2
AcDbVisualStyle
  3
ObjectDBX Classes
 90
     4095
280
     0
281
     0
  0
CLASS
  1
MATERIAL
  2
AcDbMaterial
  3
ObjectDBX Classes
 90
     1153
280
     0
281
     0
  0
CLASS
  1
SCALE
  2
AcDbScale
  3
ObjectDBX Classes
 90
     1153
280
     0
281
     0
  0
CLASS
  1
TABLESTYLE
  2
AcDbTableStyle
  3
ObjectDBX Classes
 90
     4095
280
     0
281
     0
  0
CLASS
  1
MLEADERSTYLE
  2
AcDbMLeaderStyle
  3
ACDB_MLEADERSTYLE_CLASS
 90
     4095
280
     0
281
     0
  0
CLASS
  1
SUN
  2
AcDbSun
  3
SCENEOE
 90
     1153
280
     0
281
     0
  0
CLASS
  1
ACDBPLACEHOLDER
  2
AcDbPlaceHolder
  3
ObjectDBX Classes
 90
        0
280
     0
281
     0
  0
CLASS
  1
LAYOUT
  2
AcDbLayout
  3
ObjectDBX Classes
 90
        0
280
     0
281
     0
  0
ENDSEC
  0
SECTION
  2
TABLES
  0
TABLE
  2
VPORT
  5
8
330
0
100
AcDbSymbolTable
 70
     1
  0
VPORT
  5
29
330
8
100
AcDbSymbolTableRecord
100
AcDbViewportTableRecord
  2
*Active
 70
     0
 10
0.0
 20
0.0
 11
1.0
 21
1.0
 12
566.7790743631
 22
187.1915419962
 13
0.0
 23
0.0
 14
10.0
 24
10.0
 15
10.0
 25
10.0
 16
0.0
 26
0.0
 36
1.0
 17
0.0
 27
0.0
 37
0.0
 40
190.2904919769
 41
1.2110698223
 42
50.0
 43
0.0
 44
0.0
 50
0.0
 51
0.0
 71
     0
 72
   100
 73
     1
 74
     3
 75
     0
 76
     0
 77
     0
 78
     0
281
     0
 65
     1
110
0.0
120
0.0
130
0.0
111
1.0
121
0.0
131
0.0
112
0.0
122
1.0
132
0.0
 79
     0
146
0.0
  0
ENDTAB
  0
TABLE
  2
LTYPE
  5
5
330
0
100
AcDbSymbolTable
 70
     6
  0
LTYPE
  5
14
330
5
100
AcDbSymbolTableRecord
100
AcDbLinetypeTableRecord
  2
ByBlock
 70
     0
  3

 72
    65
 73
     0
 40
0.0
  0
LTYPE
  5
15
330
5
100
AcDbSymbolTableRecord
100
AcDbLinetypeTableRecord
  2
ByLayer
 70
     0
  3

 72
    65
 73
     0
 40
0.0
  0
LTYPE
  5
16
330
5
100
AcDbSymbolTableRecord
100
AcDbLinetypeTableRecord
  2
Continuous
 70
     0
  3
Solid line
 72
    65
 73
     0
 40
0.0
  0
LTYPE
  5
6E
330
5
100
AcDbSymbolTableRecord
100
AcDbLinetypeTableRecord
  2
HIDDEN
 70
     0
  3
Hidden __ __ __ __ __ __ __ __ __ __ __ __ __ __
 72
    65
 73
     2
 40
1.905
 49
1.27
 74
     0
 49
-0.635
 74
     0
  0
LTYPE
  5
6F
330
5
100
AcDbSymbolTableRecord
100
AcDbLinetypeTableRecord
  2
PHANTOM
 70
     0
  3
Phantom ______  __  __  ______  __  __  ______
 72
    65
 73
     6
 40
12.7
 49
6.35
 74
     0
 49
-1.27
 74
     0
 49
1.27
 74
     0
 49
-1.27
 74
     0
 49
1.27
 74
     0
 49
-1.27
 74
     0
  0
LTYPE
  5
70
330
5
100
AcDbSymbolTableRecord
100
AcDbLinetypeTableRecord
  2
CENTER
 70
     0
  3
Center ____ _ ____ _ ____ _ ____ _ ____ _ ____
 72
    65
 73
     4
 40
10.16
 49
6.35
 74
     0
 49
-1.27
 74
     0
 49
1.27
 74
     0
 49
-1.27
 74
     0
  0
LTYPE
  5
71
330
5
100
AcDbSymbolTableRecord
100
AcDbLinetypeTableRecord
  2
CENTERX2
 70
     0
  3
Center (2x) ________  __  ________  __  _____
 72
    65
 73
     4
 40
20.32
 49
12.7
 74
     0
 49
-2.54
 74
     0
 49
2.54
 74
     0
 49
-2.54
 74
     0
  0
LTYPE
  5
72
330
5
100
AcDbSymbolTableRecord
100
AcDbLinetypeTableRecord
  2
DOT2
 70
     0
  3
Dot (.5x) ........................................
 72
    65
 73
     2
 40
0.635
 49
0.0
 74
     0
 49
-0.635
 74
     0
  0
ENDTAB
  0
TABLE
  2
LAYER
  5
2
330
0
100
AcDbSymbolTable
 70
     1
  0
LAYER
  5
10
330
2
100
AcDbSymbolTableRecord
100
AcDbLayerTableRecord
  2
0
 70
     0
 62
     7
  6
Continuous
370
    -3
390
F
  0
ENDTAB
  0
TABLE
  2
STYLE
  5
3
330
0
100
AcDbSymbolTable
 70
     1
  0
STYLE
  5
11
330
3
100
AcDbSymbolTableRecord
100
AcDbTextStyleTableRecord
  2
Standard
 70
     0
 40
0.0
 41
1.0
 50
0.0
 71
     0
 42
3.5
  3
txt
  4

  0
ENDTAB
  0
TABLE
  2
VIEW
  5
6
330
0
100
AcDbSymbolTable
 70
     0
  0
ENDTAB
  0
TABLE
  2
UCS
  5
7
330
0
100
AcDbSymbolTable
 70
     0
  0
ENDTAB
  0
TABLE
  2
APPID
  5
9
330
0
100
AcDbSymbolTable
 70
     1
  0
APPID
  5
12
330
9
100
AcDbSymbolTableRecord
100
AcDbRegAppTableRecord
  2
ACAD
 70
     0
  0
ENDTAB
  0
TABLE
  2
DIMSTYLE
  5
A
330
0
100
AcDbSymbolTable
 70
     1
100
AcDbDimStyleTable
  0
DIMSTYLE
105
27
330
A
100
AcDbSymbolTableRecord
100
AcDbDimStyleTableRecord
  2
ISO-25
 70
     0
 41
2.5
 42
0.625
 43
3.75
 44
1.25
 73
     0
 74
     0
 77
     1
 78
     8
140
2.5
141
2.5
143
0.0393700787
147
0.625
171
     3
172
     1
178
     0
271
     2
272
     2
274
     3
278
    44
283
     0
284
     8
340
11
  0
ENDTAB
  0
TABLE
  2
BLOCK_RECORD
  5
1
330
0
100
AcDbSymbolTable
 70
     1
  0
BLOCK_RECORD
  5
1F
330
1
100
AcDbSymbolTableRecord
100
AcDbBlockTableRecord
  2
*Model_Space
340
22
  0
BLOCK_RECORD
  5
1B
330
1
100
AcDbSymbolTableRecord
100
AcDbBlockTableRecord
  2
*Paper_Space
340
1E
  0
BLOCK_RECORD
  5
23
330
1
100
AcDbSymbolTableRecord
100
AcDbBlockTableRecord
  2
*Paper_Space0
340
26
  0
ENDTAB
  0
ENDSEC
  0
SECTION
  2
BLOCKS
  0
BLOCK
  5
20
330
1F
100
AcDbEntity
  8
0
100
AcDbBlockBegin
  2
*Model_Space
 70
     0
 10
0.0
 20
0.0
 30
0.0
  3
*Model_Space
  1

  0
ENDBLK
  5
21
330
1F
100
AcDbEntity
  8
0
100
AcDbBlockEnd
  0
BLOCK
  5
1C
330
1B
100
AcDbEntity
 67
     1
  8
0
100
AcDbBlockBegin
  2
*Paper_Space
 70
     0
 10
0.0
 20
0.0
 30
0.0
  3
*Paper_Space
  1

  0
ENDBLK
  5
1D
330
1B
100
AcDbEntity
 67
     1
  8
0
100
AcDbBlockEnd
  0
BLOCK
  5
24
330
23
100
AcDbEntity
  8
0
100
AcDbBlockBegin
  2
*Paper_Space0
 70
     0
 10
0.0
 20
0.0
 30
0.0
  3
*Paper_Space0
  1

  0
ENDBLK
  5
25
330
23
100
AcDbEntity
  8
0
100
AcDbBlockEnd
  0
ENDSEC
  0
SECTION
  2
ENTITIES
  0
CIRCLE
  5
73
330
1F
100
AcDbEntity
  8
0
  6
Continuous
 62
     7
370
    25
100
AcDbCircle
 10
501.5499092219
 20
233.5073709858
 30
0.0
 40
2.900000000007481
  0
LINE
  5
74
330
1F
100
AcDbEntity
  8
0
  6
Continuous
 62
     7
370
    25
100
AcDbLine
 10
490.7642861224
 20
226.1255880475
 30
0.0
 11
493.8956119319
 21
227.9334598466
 31
0.0
  0
ARC
  5
75
330
1F
100
AcDbEntity
  8
0
  6
Continuous
 62
     7
370
    25
100
AcDbCircle
 10
490.2642861224
 20
226.9916134513
 30
0.0
 40
1.000000000009448
100
AcDbArc
 50
120.0
 51
300.0
  0
LINE
  5
76
330
1F
100
AcDbEntity
  8
0
  6
Continuous
 62
     7
370
    25
100
AcDbLine
 10
492.8956119319
 20
229.6655106542
 30
0.0
 11
489.7642861224
 21
227.8576388551
 31
0.0
  0
ARC
  5
77
330
1F
100
AcDbEntity
  8
0
  6
Continuous
 62
     7
370
    25
100
AcDbCircle
 10
493.3956119319
 20
228.7994852504
 30
0.0
 40
1.000000000012378
100
AcDbArc
 50
300.0
 51
120.0
  0
CIRCLE
  5
78
330
1F
100
AcDbEntity
  8
0
  6
Continuous
 62
     7
370
    25
100
AcDbCircle
 10
503.1028234925
 20
227.7118160281
 30
0.0
 40
1.099999999999966
  0
ARC
  5
79
330
1F
100
AcDbEntity
  8
0
  6
Continuous
 62
     7
370
    25
100
AcDbCircle
 10
501.5499092219
 20
233.5073709858
 30
0.0
 40
9.000000000029624
100
AcDbArc
 50
117.279612736
 51
182.720387264
  0
ARC
  5
7A
330
1F
100
AcDbEntity
  8
0
  6
Continuous
 62
     7
370
    25
100
AcDbCircle
 10
489.563432621
 20
232.9378284547
 30
0.0
 40
2.999999999993164
100
AcDbArc
 50
299.9999999999
 51
2.7203872641
  0
LINE
  5
7B
330
1F
100
AcDbEntity
  8
0
  6
Continuous
 62
     7
370
    25
100
AcDbLine
 10
491.063432621
 20
230.3397522433
 30
0.0
 11
489.0142861224
 21
229.1566769608
 31
0.0
  0
ARC
  5
7C
330
1F
100
AcDbEntity
  8
0
  6
Continuous
 62
     7
370
    25
100
AcDbCircle
 10
490.2642861224
 20
226.9916134513
 30
0.0
 40
2.500000000004835
100
AcDbArc
 50
120.0
 51
300.0000000003
  0
LINE
  5
7D
330
1F
100
AcDbEntity
  8
0
  6
Continuous
 62
     7
370
    25
100
AcDbLine
 10
491.5142861224
 20
224.8265499419
 30
0.0
 11
493.563432621
 21
226.0096252244
 31
0.0
  0
ARC
  5
7E
330
1F
100
AcDbEntity
  8
0
  6
Continuous
 62
     7
370
    25
100
AcDbCircle
 10
495.063432621
 20
223.4115490131
 30
0.0
 40
3.000000000000702
100
AcDbArc
 50
57.279612736
 51
120.0
  0
ARC
  5
7F
330
1F
100
AcDbEntity
  8
0
  6
Continuous
 62
     7
370
    25
100
AcDbCircle
 10
501.5499092219
 20
233.5073709858
 30
0.0
 40
9.00000000000954
100
AcDbArc
 50
237.2796127359
 51
299.9999999999
  0
ARC
  5
80
330
1F
100
AcDbEntity
  8
0
  6
Continuous
 62
     7
370
    25
100
AcDbCircle
 10
507.5499092219
 20
223.1150661404
 30
0.0
 40
3.000000000000044
100
AcDbArc
 50
60.0
 51
119.9999999998
  0
LINE
  5
81
330
1F
100
AcDbEntity
  8
0
  6
Continuous
 62
     7
370
    25
100
AcDbLine
 10
509.0499092219
 20
225.7131423517
 30
0.0
 11
516.1689635164
 21
221.6029544384
 31
0.0
  0
ARC
  5
82
330
1F
100
AcDbEntity
  8
0
  6
Continuous
 62
     7
370
    25
100
AcDbCircle
 10
517.6689635164
 20
224.2010306498
 30
0.0
 40
3.000000000026371
100
AcDbArc
 50
239.9999999999
 51
60.0000000001
  0
LINE
  5
83
330
1F
100
AcDbEntity
  8
0
  6
Continuous
 62
     7
370
    25
100
AcDbLine
 10
519.1689635164
 20
226.7991068612
 30
0.0
 11
512.049909222
 21
230.9092947745
 31
0.0
  0
ARC
  5
84
330
1F
100
AcDbEntity
  8
0
  6
Continuous
 62
     7
370
    25
100
AcDbCircle
 10
513.549909222
 20
233.5073709858
 30
0.0
 40
3.000000000001421
100
AcDbArc
 50
180.0
 51
240.0
  0
ARC
  5
85
330
1F
100
AcDbEntity
  8
0
  6
Continuous
 62
     7
370
    25
100
AcDbCircle
 10
501.5499092219
 20
233.5073709858
 30
0.0
 40
9.000000000020123
100
AcDbArc
 50
0.0000000001
 51
62.720387264
  0
ARC
  5
86
330
1F
100
AcDbEntity
  8
0
  6
Continuous
 62
     7
370
    25
100
AcDbCircle
 10
507.0499092219
 20
244.1727354897
 30
0.0
 40
3.0
100
AcDbArc
 50
180.0000000001
 51
242.7203872642
  0
LINE
  5
87
330
1F
100
AcDbEntity
  8
0
  6
Continuous
 62
     7
370
    25
100
AcDbLine
 10
504.0499092219
 20
244.1727354897
 30
0.0
 11
504.0499092219
 21
246.5388860548
 31
0.0
  0
ARC
  5
88
330
1F
100
AcDbEntity
  8
0
  6
Continuous
 62
     7
370
    25
100
AcDbCircle
 10
501.5499092219
 20
246.5388860548
 30
0.0
 40
2.500000000009493
100
AcDbArc
 50
359.9999999998
 51
180.0000000001
  0
LINE
  5
89
330
1F
100
AcDbEntity
  8
0
  6
Continuous
 62
     7
370
    25
100
AcDbLine
 10
499.0499092219
 20
246.5388860548
 30
0.0
 11
499.0499092219
 21
244.1727354897
 31
0.0
  0
ARC
  5
8A
330
1F
100
AcDbEntity
  8
0
  6
Continuous
 62
     7
370
    25
100
AcDbCircle
 10
496.0499092219
 20
244.1727354897
 30
0.0
 40
3.000000000000939
100
AcDbArc
 50
297.2796127361
 51
0.0
  0
CIRCLE
  5
8B
330
1F
100
AcDbEntity
  8
0
  6
Continuous
 62
     7
370
    25
100
AcDbCircle
 10
507.3454641797
 20
235.0602852564
 30
0.0
 40
1.100000000000023
  0
LINE
  5
8C
330
1F
100
AcDbEntity
  8
0
  6
Continuous
 62
     7
370
    25
100
AcDbLine
 10
518.1689635164
 20
225.0670560536
 30
0.0
 11
508.0855323214
 21
230.8887277684
 31
0.0
  0
ARC
  5
8D
330
1F
100
AcDbEntity
  8
0
  6
Continuous
 62
     7
370
    25
100
AcDbCircle
 10
517.6689635164
 20
224.2010306498
 30
0.0
 40
1.000000000014095
100
AcDbArc
 50
240.0
 51
59.9999999999
  0
LINE
  5
8E
330
1F
100
AcDbEntity
  8
0
  6
Continuous
 62
     7
370
    25
100
AcDbLine
 10
507.0855323214
 20
229.1566769608
 30
0.0
 11
517.1689635164
 21
223.335005246
 31
0.0
  0
ARC
  5
8F
330
1F
100
AcDbEntity
  8
0
  6
Continuous
 62
     7
370
    25
100
AcDbCircle
 10
507.5855323214
 20
230.0227023646
 30
0.0
 40
1.0000000000143
100
AcDbArc
 50
60.0000000001
 51
240.0000000001
  0
CIRCLE
  5
90
330
1F
100
AcDbEntity
  8
0
  6
Continuous
 62
     7
370
    25
100
AcDbCircle
 10
495.7543542642
 20
231.9544567152
 30
0.0
 40
1.099999999999966
  0
CIRCLE
  5
91
330
1F
100
AcDbEntity
  8
0
  6
Continuous
 62
     7
370
    25
100
AcDbCircle
 10
499.9969949513
 20
239.3029259435
 30
0.0
 40
1.100000000000023
  0
LINE
  5
92
330
1F
100
AcDbEntity
  8
0
  6
Continuous
 62
     7
370
    25
100
AcDbLine
 10
500.5499092219
 20
246.5388860548
 30
0.0
 11
500.5499092219
 21
242.9231424567
 31
0.0
  0
ARC
  5
93
330
1F
100
AcDbEntity
  8
0
  6
Continuous
 62
     7
370
    25
100
AcDbCircle
 10
501.5499092219
 20
246.5388860548
 30
0.0
 40
1.00000000000955
100
AcDbArc
 50
360.0
 51
180.0
  0
LINE
  5
94
330
1F
100
AcDbEntity
  8
0
  6
Continuous
 62
     7
370
    25
100
AcDbLine
 10
502.5499092219
 20
242.9231424567
 30
0.0
 11
502.5499092219
 21
246.5388860548
 31
0.0
  0
ARC
  5
95
330
1F
100
AcDbEntity
  8
0
  6
Continuous
 62
     7
370
    25
100
AcDbCircle
 10
501.5499092219
 20
242.9231424567
 30
0.0
 40
1.000000000010687
100
AcDbArc
 50
180.0000000001
 51
0.0000000001
  0
ARC
  5
96
330
1F
100
AcDbEntity
  8
0
  6
Continuous
 62
     7
370
    25
100
AcDbCircle
 10
588.1400025721
 20
260.2956591025
 30
0.0
 40
5.377729344470481
100
AcDbArc
 50
180.0
 51
327.4692805401
  0
LINE
  5
97
330
1F
100
AcDbEntity
  8
0
  6
Continuous
 62
     7
370
    25
100
AcDbLine
 10
582.7622732276
 20
262.3597805211
 30
0.0
 11
582.7622732276
 21
260.2956591025
 31
0.0
  0
ARC
  5
98
330
1F
100
AcDbEntity
  8
0
  6
Continuous
 62
     7
370
    25
100
AcDbCircle
 10
579.5122732276
 20
262.3597805211
 30
0.0
 40
3.250000000000341
100
AcDbArc
 50
0.0
 51
180.0
  0
ELLIPSE
  5
99
330
1F
100
AcDbEntity
  8
0
  6
Continuous
 62
     7
370
    25
100
AcDbEllipse
 10
566.7790743631
 20
262.3597805211
 30
0.0
 11
-9.483198864547603
 21
0.0
 31
0.0
210
0.0
220
0.0
230
1.0
 40
0.7959801903
 41
0.0
 42
3.141592653589793
  0
ARC
  5
9A
330
1F
100
AcDbEntity
  8
0
  6
Continuous
 62
     7
370
    25
100
AcDbCircle
 10
554.0458754985
 20
262.3597805211
 30
0.0
 40
3.249999999999659
100
AcDbArc
 50
0.0
 51
180.0
  0
LINE
  5
9B
330
1F
100
AcDbEntity
  8
0
  6
Continuous
 62
     7
370
    25
100
AcDbLine
 10
550.7958754985
 20
262.3597805211
 30
0.0
 11
550.7958754985
 21
260.2956591025
 31
0.0
  0
ARC
  5
9C
330
1F
100
AcDbEntity
  8
0
  6
Continuous
 62
     7
370
    25
100
AcDbCircle
 10
545.4181461541
 20
260.2956591025
 30
0.0
 40
5.377729344470481
100
AcDbArc
 50
212.5307194599
 51
0.0
  0
ARC
  5
9D
330
1F
100
AcDbEntity
  8
0
  6
Continuous
 62
     7
370
    25
100
AcDbCircle
 10
500.5709016625
 20
233.7111949261
 30
0.0
 40
46.75999999999957
100
AcDbArc
 50
30.4432567457
 51
243.9951347041
  0
ARC
  5
9E
330
1F
100
AcDbEntity
  8
0
  6
Continuous
 62
     7
370
    25
100
AcDbCircle
 10
477.8768607865
 20
187.1915419962
 30
0.0
 40
5.000000000000009
100
AcDbArc
 50
296.0048652959
 51
63.9951347041
  0
ARC
  5
9F
330
1F
100
AcDbEntity
  8
0
  6
Continuous
 62
     7
370
    25
100
AcDbCircle
 10
500.5709016625
 20
140.6718890664
 30
0.0
 40
46.75999999999953
100
AcDbArc
 50
116.0048652959
 51
326.1443247091
  0
ARC
  5
A0
330
1F
100
AcDbEntity
  8
0
  6
Continuous
 62
     7
370
    25
100
AcDbCircle
 10
564.3157458781
 20
97.9086754835
 30
0.0
 40
30.0000000000001
100
AcDbArc
 50
122.1987567565
 51
146.1443247091
  0
ARC
  5
A1
330
1F
100
AcDbEntity
  8
0
  6
Continuous
 62
     7
370
    25
100
AcDbCircle
 10
566.7790743631
 20
93.9967879899
 30
0.0
 40
34.62286177467539
100
AcDbArc
 50
57.8012432435
 51
122.1987567565
  0
ARC
  5
A2
330
1F
100
AcDbEntity
  8
0
  6
Continuous
 62
     7
370
    25
100
AcDbCircle
 10
569.2424028481
 20
97.9086754835
 30
0.0
 40
30.00000000000001
100
AcDbArc
 50
33.8556752909
 51
57.8012432435
  0
ARC
  5
A3
330
1F
100
AcDbEntity
  8
0
  6
Continuous
 62
     7
370
    25
100
AcDbCircle
 10
632.9872470636
 20
140.6718890664
 30
0.0
 40
46.75999999999952
100
AcDbArc
 50
213.8556752909
 51
63.9951347041
  0
ARC
  5
A4
330
1F
100
AcDbEntity
  8
0
  6
Continuous
 62
     7
370
    25
100
AcDbCircle
 10
655.6812879397
 20
187.1915419962
 30
0.0
 40
4.999999999999959
100
AcDbArc
 50
116.0048652959
 51
243.9951347041
  0
ARC
  5
A5
330
1F
100
AcDbEntity
  8
0
  6
Continuous
 62
     7
370
    25
100
AcDbCircle
 10
632.9872470636
 20
233.7111949261
 30
0.0
 40
46.75999999999952
100
AcDbArc
 50
296.0048652959
 51
149.5567432543
  0
ARC
  5
A6
330
1F
100
AcDbEntity
  8
0
  6
Continuous
 62
     7
370
    25
100
AcDbCircle
 10
576.9082395042
 20
143.7956584905
 30
0.0
 40
1.000000000000113
100
AcDbArc
 50
360.0
 51
149.4608128491
  0
LINE
  5
A7
330
1F
100
AcDbEntity
  8
0
  6
Continuous
 62
     7
370
    25
100
AcDbLine
 10
577.9082395042
 20
143.7956584905
 30
0.0
 11
577.9082395042
 21
133.9085605289
 31
0.0
  0
ARC
  5
A8
330
1F
100
AcDbEntity
  8
0
  6
Continuous
 62
     7
370
    25
100
AcDbCircle
 10
574.9082395042
 20
133.9085605289
 30
0.0
 40
3.000000000000005
100
AcDbArc
 50
258.7651300641
 51
0.0
  0
ARC
  5
A9
330
1F
100
AcDbEntity
  8
0
  6
Continuous
 62
     7
370
    25
100
AcDbCircle
 10
566.9197483849
 20
93.6922042297
 30
0.0
 40
38.00208902426782
100
AcDbArc
 50
78.7651300641
 51
80.1264571186
  0
ARC
  5
AA
330
1F
100
AcDbEntity
  8
0
  6
Continuous
 62
     7
370
    25
100
AcDbCircle
 10
573.7790743631
 20
133.1018067832
 30
0.0
 40
2.000000000000023
100
AcDbArc
 50
180.0
 51
260.1264571186
  0
LINE
  5
AB
330
1F
100
AcDbEntity
  8
0
  6
Continuous
 62
     7
370
    25
100
AcDbLine
 10
571.7790743631
 20
134.3396893618
 30
0.0
 11
571.7790743631
 21
133.1018067832
 31
0.0
  0
ARC
  5
AC
330
1F
100
AcDbEntity
  8
0
  6
Continuous
 62
     7
370
    25
100
AcDbCircle
 10
581.7790743631
 20
134.3396893618
 30
0.0
 40
10.00000000000009
100
AcDbArc
 50
149.4608128491
 51
180.0
  0
LINE
  5
AD
330
1F
100
AcDbEntity
  8
0
  6
Continuous
 62
     7
370
    25
100
AcDbLine
 10
573.1662560559
 20
139.4209648718
 30
0.0
 11
576.0469576735
 21
144.3037860415
 31
0.0
  0
ARC
  5
AE
330
1F
100
AcDbEntity
  8
0
  6
Continuous
 62
     7
370
    25
100
AcDbCircle
 10
559.7790743631
 20
133.1018067832
 30
0.0
 40
2.000000000000004
100
AcDbArc
 50
279.8735428814
 51
0.0
  0
ARC
  5
AF
330
1F
100
AcDbEntity
  8
0
  6
Continuous
 62
     7
370
    25
100
AcDbCircle
 10
566.6384003412
 20
93.6922042297
 30
0.0
 40
38.00208902426785
100
AcDbArc
 50
99.8735428814
 51
101.2348699359
  0
ARC
  5
B0
330
1F
100
AcDbEntity
  8
0
  6
Continuous
 62
     7
370
    25
100
AcDbCircle
 10
558.6499092219
 20
133.9085605289
 30
0.0
 40
3.000000000000005
100
AcDbArc
 50
180.0
 51
281.2348699359
  0
LINE
  5
B1
330
1F
100
AcDbEntity
  8
0
  6
Continuous
 62
     7
370
    25
100
AcDbLine
 10
555.6499092219
 20
143.7956584905
 30
0.0
 11
555.6499092219
 21
133.9085605289
 31
0.0
  0
ARC
  5
B2
330
1F
100
AcDbEntity
  8
0
  6
Continuous
 62
     7
370
    25
100
AcDbCircle
 10
556.6499092219
 20
143.7956584905
 30
0.0
 40
1.000000000000029
100
AcDbArc
 50
30.5391871509
 51
180.0
  0
LINE
  5
B3
330
1F
100
AcDbEntity
  8
0
  6
Continuous
 62
     7
370
    25
100
AcDbLine
 10
560.3918926702
 20
139.4209648718
 30
0.0
 11
557.5111910526
 21
144.3037860415
 31
0.0
  0
ARC
  5
B4
330
1F
100
AcDbEntity
  8
0
  6
Continuous
 62
     7
370
    25
100
AcDbCircle
 10
551.7790743631
 20
134.3396893618
 30
0.0
 40
10.0
100
AcDbArc
 50
0.0
 51
30.5391871509
  0
LINE
  5
B5
330
1F
100
AcDbEntity
  8
0
  6
Continuous
 62
     7
370
    25
100
AcDbLine
 10
561.7790743631
 20
134.3396893618
 30
0.0
 11
561.7790743631
 21
133.1018067832
 31
0.0
  0
CIRCLE
  5
B6
330
1F
100
AcDbEntity
  8
0
  6
Continuous
 62
     7
370
    25
100
AcDbCircle
 10
549.1117331617
 20
130.0065245625
 30
0.0
 40
2.0
  0
CIRCLE
  5
B7
330
1F
100
AcDbEntity
  8
0
  6
Continuous
 62
     7
370
    25
100
AcDbCircle
 10
584.4464155644
 20
130.0065245625
 30
0.0
 40
2.0
  0
ARC
  5
B8
330
1F
100
AcDbEntity
  8
0
  6
Continuous
 62
     7
370
    25
100
AcDbCircle
 10
550.1499092219
 20
137.5864535536
 30
0.0
 40
1.5
100
AcDbArc
 50
180.0
 51
0.0
  0
LINE
  5
B9
330
1F
100
AcDbEntity
  8
0
  6
Continuous
 62
     7
370
    25
100
AcDbLine
 10
548.6499092219
 20
154.5864535536
 30
0.0
 11
548.6499092219
 21
137.5864535536
 31
0.0
  0
ARC
  5
BA
330
1F
100
AcDbEntity
  8
0
  6
Continuous
 62
     7
370
    25
100
AcDbCircle
 10
550.1499092219
 20
154.5864535536
 30
0.0
 40
1.5
100
AcDbArc
 50
0.0
 51
180.0
  0
LINE
  5
BB
330
1F
100
AcDbEntity
  8
0
  6
Continuous
 62
     7
370
    25
100
AcDbLine
 10
551.6499092219
 20
154.5864535536
 30
0.0
 11
551.6499092219
 21
137.5864535536
 31
0.0
  0
ARC
  5
BC
330
1F
100
AcDbEntity
  8
0
  6
Continuous
 62
     7
370
    25
100
AcDbCircle
 10
553.6965085295
 20
234.3054988317
 30
0.0
 40
1.000000000000114
100
AcDbArc
 50
180.0
 51
0.0
  0
LINE
  5
BD
330
1F
100
AcDbEntity
  8
0
  6
Continuous
 62
     7
370
    25
100
AcDbLine
 10
552.6965085295
 20
241.3054988317
 30
0.0
 11
552.6965085295
 21
234.3054988317
 31
0.0
  0
ARC
  5
BE
330
1F
100
AcDbEntity
  8
0
  6
Continuous
 62
     7
370
    25
100
AcDbCircle
 10
553.6965085295
 20
241.3054988317
 30
0.0
 40
1.000000000000114
100
AcDbArc
 50
0.0
 51
180.0
  0
LINE
  5
BF
330
1F
100
AcDbEntity
  8
0
  6
Continuous
 62
     7
370
    25
100
AcDbLine
 10
554.6965085295
 20
241.3054988317
 30
0.0
 11
554.6965085295
 21
234.3054988317
 31
0.0
  0
ARC
  5
C0
330
1F
100
AcDbEntity
  8
0
  6
Continuous
 62
     7
370
    25
100
AcDbCircle
 10
579.8616401967
 20
241.3054988317
 30
0.0
 40
1.000000000000114
100
AcDbArc
 50
0.0
 51
180.0
  0
LINE
  5
C1
330
1F
100
AcDbEntity
  8
0
  6
Continuous
 62
     7
370
    25
100
AcDbLine
 10
580.8616401967
 20
241.3054988317
 30
0.0
 11
580.8616401967
 21
234.3054988317
 31
0.0
  0
ARC
  5
C2
330
1F
100
AcDbEntity
  8
0
  6
Continuous
 62
     7
370
    25
100
AcDbCircle
 10
579.8616401967
 20
234.3054988317
 30
0.0
 40
1.000000000000114
100
AcDbArc
 50
180.0
 51
0.0
  0
LINE
  5
C3
330
1F
100
AcDbEntity
  8
0
  6
Continuous
 62
     7
370
    25
100
AcDbLine
 10
578.8616401967
 20
241.3054988317
 30
0.0
 11
578.8616401967
 21
234.3054988317
 31
0.0
  0
CIRCLE
  5
C4
330
1F
100
AcDbEntity
  8
0
  6
Continuous
 62
     7
370
    25
100
AcDbCircle
 10
590.5420533082
 20
224.8754271136
 30
0.0
 40
1.600000000000023
  0
CIRCLE
  5
C5
330
1F
100
AcDbEntity
  8
0
  6
Continuous
 62
     7
370
    25
100
AcDbCircle
 10
632.9872470636
 20
97.2418890664
 30
0.0
 40
1.599999999999909
  0
CIRCLE
  5
C6
330
1F
100
AcDbEntity
  8
0
  6
Continuous
 62
     7
370
    25
100
AcDbCircle
 10
670.59873035
 20
162.3868890664
 30
0.0
 40
1.600000000000023
  0
CIRCLE
  5
C7
330
1F
100
AcDbEntity
  8
0
  6
Continuous
 62
     7
370
    25
100
AcDbCircle
 10
632.9872470636
 20
140.6718890664
 30
0.0
 40
41.10000000000241
  0
CIRCLE
  5
C8
330
1F
100
AcDbEntity
  8
0
  6
Continuous
 62
     7
370
    25
100
AcDbCircle
 10
632.9872470636
 20
277.1411949261
 30
0.0
 40
1.599999999999909
  0
ARC
  5
C9
330
1F
100
AcDbEntity
  8
0
  6
Continuous
 62
     7
370
    25
100
AcDbCircle
 10
632.9872470636
 20
233.7111949261
 30
0.0
 40
46.75999999999955
100
AcDbArc
 50
217.7382142204
 51
249.208845041
  0
ARC
  5
CA
330
1F
100
AcDbEntity
  8
0
  6
Continuous
 62
     7
370
    25
100
AcDbCircle
 10
615.3243058792
 20
187.1915419962
 30
0.0
 40
3.000000000000032
100
AcDbArc
 50
290.791154959
 51
69.208845041
  0
ARC
  5
CB
330
1F
100
AcDbEntity
  8
0
  6
Continuous
 62
     7
370
    25
100
AcDbCircle
 10
632.9872470636
 20
140.6718890664
 30
0.0
 40
46.75999999999955
100
AcDbArc
 50
110.791154959
 51
142.2617857796
  0
ARC
  5
CC
330
1F
100
AcDbEntity
  8
0
  6
Continuous
 62
     7
370
    25
100
AcDbCircle
 10
595.2178992367
 20
169.9036177996
 30
0.0
 40
1.000000000000024
100
AcDbArc
 50
236.8746021912
 51
322.2617857796
  0
LINE
  5
CD
330
1F
100
AcDbEntity
  8
0
  6
Continuous
 62
     7
370
    25
100
AcDbLine
 10
594.6714259893
 20
169.0661412388
 30
0.0
 11
584.7425184815
 21
175.5449880311
 31
0.0
  0
ARC
  5
CE
330
1F
100
AcDbEntity
  8
0
  6
Continuous
 62
     7
370
    25
100
AcDbCircle
 10
585.8354649764
 20
177.2199411526
 30
0.0
 40
2.000000000000011
100
AcDbArc
 50
180.0
 51
236.8746021912
  0
LINE
  5
CF
330
1F
100
AcDbEntity
  8
0
  6
Continuous
 62
     7
370
    25
100
AcDbLine
 10
583.8354649764
 20
197.1631428399
 30
0.0
 11
583.8354649764
 21
177.2199411526
 31
0.0
  0
ARC
  5
D0
330
1F
100
AcDbEntity
  8
0
  6
Continuous
 62
     7
370
    25
100
AcDbCircle
 10
585.8354649764
 20
197.1631428399
 30
0.0
 40
2.0
100
AcDbArc
 50
123.1253978088
 51
180.0
  0
LINE
  5
D1
330
1F
100
AcDbEntity
  8
0
  6
Continuous
 62
     7
370
    25
100
AcDbLine
 10
594.6714259893
 20
205.3169427537
 30
0.0
 11
584.7425184815
 21
198.8380959614
 31
0.0
  0
ARC
  5
D2
330
1F
100
AcDbEntity
  8
0
  6
Continuous
 62
     7
370
    25
100
AcDbCircle
 10
595.2178992367
 20
204.4794661929
 30
0.0
 40
1.000000000000024
100
AcDbArc
 50
37.7382142204
 51
123.1253978088
  0
LINE
  5
D3
330
1F
100
AcDbEntity
  8
0
  6
Continuous
 62
     7
370
    25
100
AcDbLine
 10
538.8867227368
 20
205.3169427537
 30
0.0
 11
548.8156302447
 21
198.8380959614
 31
0.0
  0
ARC
  5
D4
330
1F
100
AcDbEntity
  8
0
  6
Continuous
 62
     7
370
    25
100
AcDbCircle
 10
547.7226837498
 20
197.1631428399
 30
0.0
 40
2.0
100
AcDbArc
 50
0.0
 51
56.8746021912
  0
LINE
  5
D5
330
1F
100
AcDbEntity
  8
0
  6
Continuous
 62
     7
370
    25
100
AcDbLine
 10
549.7226837498
 20
197.1631428399
 30
0.0
 11
549.7226837498
 21
177.2199411526
 31
0.0
  0
ARC
  5
D6
330
1F
100
AcDbEntity
  8
0
  6
Continuous
 62
     7
370
    25
100
AcDbCircle
 10
547.7226837498
 20
177.2199411526
 30
0.0
 40
2.0
100
AcDbArc
 50
303.1253978088
 51
0.0
  0
LINE
  5
D7
330
1F
100
AcDbEntity
  8
0
  6
Continuous
 62
     7
370
    25
100
AcDbLine
 10
538.8867227368
 20
169.0661412388
 30
0.0
 11
548.8156302447
 21
175.5449880311
 31
0.0
  0
ARC
  5
D8
330
1F
100
AcDbEntity
  8
0
  6
Continuous
 62
     7
370
    25
100
AcDbCircle
 10
538.3402494894
 20
169.9036177996
 30
0.0
 40
1.000000000000113
100
AcDbArc
 50
217.7382142204
 51
303.1253978088
  0
ARC
  5
D9
330
1F
100
AcDbEntity
  8
0
  6
Continuous
 62
     7
370
    25
100
AcDbCircle
 10
500.5709016625
 20
140.6718890664
 30
0.0
 40
46.7599999999995
100
AcDbArc
 50
37.7382142204
 51
69.208845041
  0
ARC
  5
DA
330
1F
100
AcDbEntity
  8
0
  6
Continuous
 62
     7
370
    25
100
AcDbCircle
 10
518.233842847
 20
187.1915419962
 30
0.0
 40
2.999999999999978
100
AcDbArc
 50
110.791154959
 51
249.208845041
  0
ARC
  5
DB
330
1F
100
AcDbEntity
  8
0
  6
Continuous
 62
     7
370
    25
100
AcDbCircle
 10
500.5709016625
 20
233.7111949261
 30
0.0
 40
46.75999999999951
100
AcDbArc
 50
290.791154959
 51
322.2617857796
  0
ARC
  5
DC
330
1F
100
AcDbEntity
  8
0
  6
Continuous
 62
     7
370
    25
100
AcDbCircle
 10
538.3402494894
 20
204.4794661929
 30
0.0
 40
1.000000000000131
100
AcDbArc
 50
56.8746021912
 51
142.2617857796
  0
CIRCLE
  5
DD
330
1F
100
AcDbEntity
  8
0
  6
Continuous
 62
     7
370
    25
100
AcDbCircle
 10
500.5709016625
 20
140.6718890664
 30
0.0
 40
41.10000000000247
  0
CIRCLE
  5
DE
330
1F
100
AcDbEntity
  8
0
  6
Continuous
 62
     7
370
    25
100
AcDbCircle
 10
500.5709016625
 20
97.2418890664
 30
0.0
 40
1.599999999999909
  0
CIRCLE
  5
DF
330
1F
100
AcDbEntity
  8
0
  6
Continuous
 62
     7
370
    25
100
AcDbCircle
 10
500.5709016625
 20
233.7111949261
 30
0.0
 40
41.10000000000247
  0
ARC
  5
E0
330
1F
100
AcDbEntity
  8
0
  6
Continuous
 62
     7
370
    25
100
AcDbCircle
 10
563.7790743631
 20
232.8313904317
 30
0.0
 40
1.000000000000044
100
AcDbArc
 50
360.0
 51
149.4608128491
  0
LINE
  5
E1
330
1F
100
AcDbEntity
  8
0
  6
Continuous
 62
     7
370
    25
100
AcDbLine
 10
564.7790743631
 20
218.9959784371
 30
0.0
 11
564.7790743631
 21
232.8313904317
 31
0.0
  0
ARC
  5
E2
330
1F
100
AcDbEntity
  8
0
  6
Continuous
 62
     7
370
    25
100
AcDbCircle
 10
562.7790743631
 20
218.9959784371
 30
0.0
 40
2.000000000000021
100
AcDbArc
 50
261.3648568921
 51
0.0
  0
LINE
  5
E3
330
1F
100
AcDbEntity
  8
0
  6
Continuous
 62
     7
370
    25
100
AcDbLine
 10
558.434006181
 20
217.6329035474
 30
0.0
 11
562.4787907995
 21
217.0186494859
 31
0.0
  0
ARC
  5
E4
330
1F
100
AcDbEntity
  8
0
  6
Continuous
 62
     7
370
    25
100
AcDbCircle
 10
558.8844315264
 20
220.5988969743
 30
0.0
 40
3.000000000000301
100
AcDbArc
 50
149.4608128491
 51
261.3648568921
  0
LINE
  5
E5
330
1F
100
AcDbEntity
  8
0
  6
Continuous
 62
     7
370
    25
100
AcDbLine
 10
562.9177925324
 20
233.3395179827
 30
0.0
 11
556.3005860342
 21
222.1232796273
 31
0.0
  0
ARC
  5
E6
330
1F
100
AcDbEntity
  8
0
  6
Continuous
 62
     7
370
    25
100
AcDbCircle
 10
570.9847254492
 20
204.189570109
 30
0.0
 40
4.000000000000028
100
AcDbArc
 50
270.0
 51
303.1253978088
  0
LINE
  5
E7
330
1F
100
AcDbEntity
  8
0
  6
Continuous
 62
     7
370
    25
100
AcDbLine
 10
570.5290743631
 20
200.189570109
 30
0.0
 11
570.9847254492
 21
200.189570109
 31
0.0
  0
ARC
  5
E8
330
1F
100
AcDbEntity
  8
0
  6
Continuous
 62
     7
370
    25
100
AcDbCircle
 10
570.5290743631
 20
201.939570109
 30
0.0
 40
1.750000000000028
100
AcDbArc
 50
180.0
 51
270.0
  0
LINE
  5
E9
330
1F
100
AcDbEntity
  8
0
  6
Continuous
 62
     7
370
    25
100
AcDbLine
 10
568.7790743631
 20
201.939570109
 30
0.0
 11
568.7790743631
 21
208.1483777559
 31
0.0
  0
ARC
  5
EA
330
1F
100
AcDbEntity
  8
0
  6
Continuous
 62
     7
370
    25
100
AcDbCircle
 10
571.7790743631
 20
208.1483777559
 30
0.0
 40
3.0
100
AcDbArc
 50
100.6547941576
 51
180.0
  0
LINE
  5
EB
330
1F
100
AcDbEntity
  8
0
  6
Continuous
 62
     7
370
    25
100
AcDbLine
 10
587.3883910558
 20
214.1376658164
 30
0.0
 11
571.2244005074
 21
211.0966546957
 31
0.0
  0
ARC
  5
EC
330
1F
100
AcDbEntity
  8
0
  6
Continuous
 62
     7
370
    25
100
AcDbCircle
 10
587.711950805
 20
212.4178376015
 30
0.0
 40
1.750000000000091
100
AcDbArc
 50
303.1253978088
 51
100.6547941576
  0
LINE
  5
ED
330
1F
100
AcDbEntity
  8
0
  6
Continuous
 62
     7
370
    25
100
AcDbLine
 10
588.668278988
 20
210.9522536202
 30
0.0
 11
573.170618439
 21
200.8396638659
 31
0.0
  0
ARC
  5
EE
330
1F
100
AcDbEntity
  8
0
  6
Continuous
 62
     7
370
    25
100
AcDbCircle
 10
574.6737171998
 20
153.7841870182
 30
0.0
 40
3.000000000000315
100
AcDbArc
 50
329.4608128491
 51
81.3648568921
  0
LINE
  5
EF
330
1F
100
AcDbEntity
  8
0
  6
Continuous
 62
     7
370
    25
100
AcDbLine
 10
570.6403561938
 20
141.0435660098
 30
0.0
 11
577.2575626919
 21
152.2598043652
 31
0.0
  0
ARC
  5
F0
330
1F
100
AcDbEntity
  8
0
  6
Continuous
 62
     7
370
    25
100
AcDbCircle
 10
569.7790743631
 20
141.5516935608
 30
0.0
 40
1.000000000000029
100
AcDbArc
 50
180.0
 51
329.4608128491
  0
LINE
  5
F1
330
1F
100
AcDbEntity
  8
0
  6
Continuous
 62
     7
370
    25
100
AcDbLine
 10
568.7790743631
 20
155.3871055554
 30
0.0
 11
568.7790743631
 21
141.5516935608
 31
0.0
  0
ARC
  5
F2
330
1F
100
AcDbEntity
  8
0
  6
Continuous
 62
     7
370
    25
100
AcDbCircle
 10
570.7790743631
 20
155.3871055554
 30
0.0
 40
2.000000000000004
100
AcDbArc
 50
81.3648568921
 51
180.0
  0
LINE
  5
F3
330
1F
100
AcDbEntity
  8
0
  6
Continuous
 62
     7
370
    25
100
AcDbLine
 10
575.1241425452
 20
156.7501804451
 30
0.0
 11
571.0793579267
 21
157.3644345066
 31
0.0
  0
LINE
  5
F4
330
1F
100
AcDbEntity
  8
0
  6
Continuous
 62
     7
370
    25
100
AcDbLine
 10
570.9847254492
 20
174.1935138835
 30
0.0
 11
570.5290743631
 21
174.1935138835
 31
0.0
  0
ARC
  5
F5
330
1F
100
AcDbEntity
  8
0
  6
Continuous
 62
     7
370
    25
100
AcDbCircle
 10
570.9847254492
 20
170.1935138835
 30
0.0
 40
4.000000000000078
100
AcDbArc
 50
56.8746021912
 51
90.0
  0
LINE
  5
F6
330
1F
100
AcDbEntity
  8
0
  6
Continuous
 62
     7
370
    25
100
AcDbLine
 10
588.668278988
 20
163.4308303723
 30
0.0
 11
573.170618439
 21
173.5434201266
 31
0.0
  0
ARC
  5
F7
330
1F
100
AcDbEntity
  8
0
  6
Continuous
 62
     7
370
    25
100
AcDbCircle
 10
587.711950805
 20
161.965246391
 30
0.0
 40
1.750000000000101
100
AcDbArc
 50
259.3452058424
 51
56.8746021912
  0
LINE
  5
F8
330
1F
100
AcDbEntity
  8
0
  6
Continuous
 62
     7
370
    25
100
AcDbLine
 10
587.3883910558
 20
160.2454181761
 30
0.0
 11
571.2244005074
 21
163.2864292968
 31
0.0
  0
ARC
  5
F9
330
1F
100
AcDbEntity
  8
0
  6
Continuous
 62
     7
370
    25
100
AcDbCircle
 10
571.7790743631
 20
166.2347062366
 30
0.0
 40
3.0
100
AcDbArc
 50
180.0
 51
259.3452058424
  0
LINE
  5
FA
330
1F
100
AcDbEntity
  8
0
  6
Continuous
 62
     7
370
    25
100
AcDbLine
 10
568.7790743631
 20
172.4435138835
 30
0.0
 11
568.7790743631
 21
166.2347062366
 31
0.0
  0
ARC
  5
FB
330
1F
100
AcDbEntity
  8
0
  6
Continuous
 62
     7
370
    25
100
AcDbCircle
 10
570.5290743631
 20
172.4435138835
 30
0.0
 40
1.75
100
AcDbArc
 50
90.0
 51
180.0
  0
ARC
  5
FC
330
1F
100
AcDbEntity
  8
0
  6
Continuous
 62
     7
370
    25
100
AcDbCircle
 10
549.1965085295
 20
249.3054988317
 30
0.0
 40
1.5
100
AcDbArc
 50
0.0
 51
180.0
  0
LINE
  5
FD
330
1F
100
AcDbEntity
  8
0
  6
Continuous
 62
     7
370
    25
100
AcDbLine
 10
550.6965085295
 20
249.3054988317
 30
0.0
 11
550.6965085295
 21
231.3054988317
 31
0.0
  0
ARC
  5
FE
330
1F
100
AcDbEntity
  8
0
  6
Continuous
 62
     7
370
    25
100
AcDbCircle
 10
549.1965085295
 20
231.3054988317
 30
0.0
 40
1.5
100
AcDbArc
 50
180.0
 51
360.0
  0
LINE
  5
FF
330
1F
100
AcDbEntity
  8
0
  6
Continuous
 62
     7
370
    25
100
AcDbLine
 10
547.6965085295
 20
249.3054988317
 30
0.0
 11
547.6965085295
 21
231.3054988317
 31
0.0
  0
CIRCLE
  5
100
330
1F
100
AcDbEntity
  8
0
  6
Continuous
 62
     7
370
    25
100
AcDbCircle
 10
543.016095418
 20
224.8754271136
 30
0.0
 40
1.600000000000023
  0
ARC
  5
101
330
1F
100
AcDbEntity
  8
0
  6
Continuous
 62
     7
370
    25
100
AcDbCircle
 10
561.7790743631
 20
242.2722469148
 30
0.0
 40
2.261366797298763
100
AcDbArc
 50
90.0
 51
270.0
  0
LINE
  5
102
330
1F
100
AcDbEntity
  8
0
  6
Continuous
 62
     7
370
    25
100
AcDbLine
 10
571.7790743631
 20
244.5336137121
 30
0.0
 11
561.7790743631
 21
244.5336137121
 31
0.0
  0
ARC
  5
103
330
1F
100
AcDbEntity
  8
0
  6
Continuous
 62
     7
370
    25
100
AcDbCircle
 10
571.7790743631
 20
242.2722469148
 30
0.0
 40
2.261366797298763
100
AcDbArc
 50
270.0
 51
90.0
  0
LINE
  5
104
330
1F
100
AcDbEntity
  8
0
  6
Continuous
 62
     7
370
    25
100
AcDbLine
 10
571.7790743631
 20
240.0108801175
 30
0.0
 11
561.7790743631
 21
240.0108801175
 31
0.0
  0
ARC
  5
105
330
1F
100
AcDbEntity
  8
0
  6
Continuous
 62
     7
370
    25
100
AcDbCircle
 10
561.7790743631
 20
166.2347062366
 30
0.0
 40
3.0
100
AcDbArc
 50
280.6547941576
 51
0.0
  0
LINE
  5
106
330
1F
100
AcDbEntity
  8
0
  6
Continuous
 62
     7
370
    25
100
AcDbLine
 10
546.1697576703
 20
160.2454181761
 30
0.0
 11
562.3337482188
 21
163.2864292968
 31
0.0
  0
ARC
  5
107
330
1F
100
AcDbEntity
  8
0
  6
Continuous
 62
     7
370
    25
100
AcDbCircle
 10
545.8461979212
 20
161.965246391
 30
0.0
 40
1.750000000000068
100
AcDbArc
 50
123.1253978088
 51
280.6547941576
  0
LINE
  5
108
330
1F
100
AcDbEntity
  8
0
  6
Continuous
 62
     7
370
    25
100
AcDbLine
 10
544.8898697382
 20
163.4308303723
 30
0.0
 11
560.3875302872
 21
173.5434201266
 31
0.0
  0
ARC
  5
109
330
1F
100
AcDbEntity
  8
0
  6
Continuous
 62
     7
370
    25
100
AcDbCircle
 10
562.5734232769
 20
170.1935138835
 30
0.0
 40
4.000000000000007
100
AcDbArc
 50
90.0
 51
123.1253978088
  0
LINE
  5
10A
330
1F
100
AcDbEntity
  8
0
  6
Continuous
 62
     7
370
    25
100
AcDbLine
 10
562.5734232769
 20
174.1935138835
 30
0.0
 11
563.0290743631
 21
174.1935138835
 31
0.0
  0
ARC
  5
10B
330
1F
100
AcDbEntity
  8
0
  6
Continuous
 62
     7
370
    25
100
AcDbCircle
 10
563.0290743631
 20
172.4435138835
 30
0.0
 40
1.750000000000114
100
AcDbArc
 50
0.0
 51
90.0
  0
LINE
  5
10C
330
1F
100
AcDbEntity
  8
0
  6
Continuous
 62
     7
370
    25
100
AcDbLine
 10
564.7790743631
 20
172.4435138835
 30
0.0
 11
564.7790743631
 21
166.2347062366
 31
0.0
  0
ARC
  5
10D
330
1F
100
AcDbEntity
  8
0
  6
Continuous
 62
     7
370
    25
100
AcDbCircle
 10
556.4290743631
 20
254.8113420843
 30
0.0
 40
0.8500000000000227
100
AcDbArc
 50
0.0
 51
180.0
  0
LINE
  5
10E
330
1F
100
AcDbEntity
  8
0
  6
Continuous
 62
     7
370
    25
100
AcDbLine
 10
557.2790743631
 20
254.8113420843
 30
0.0
 11
557.2790743631
 21
247.8113420843
 31
0.0
  0
ARC
  5
10F
330
1F
100
AcDbEntity
  8
0
  6
Continuous
 62
     7
370
    25
100
AcDbCircle
 10
556.4290743631
 20
247.8113420843
 30
0.0
 40
0.8500000000000227
100
AcDbArc
 50
180.0
 51
0.0
  0
LINE
  5
110
330
1F
100
AcDbEntity
  8
0
  6
Continuous
 62
     7
370
    25
100
AcDbLine
 10
555.5790743631
 20
254.8113420843
 30
0.0
 11
555.5790743631
 21
247.8113420843
 31
0.0
  0
CIRCLE
  5
111
330
1F
100
AcDbEntity
  8
0
  6
Continuous
 62
     7
370
    25
100
AcDbCircle
 10
554.0458754985
 20
262.3597805211
 30
0.0
 40
1.600000000000023
  0
CIRCLE
  5
112
330
1F
100
AcDbEntity
  8
0
  6
Continuous
 62
     7
370
    25
100
AcDbCircle
 10
566.7790743631
 20
133.1098215486
 30
0.0
 40
2.0
  0
CIRCLE
  5
113
330
1F
100
AcDbEntity
  8
0
  6
Continuous
 62
     7
370
    25
100
AcDbCircle
 10
462.9594183762
 20
211.9961949261
 30
0.0
 40
1.599999999999966
  0
CIRCLE
  5
114
330
1F
100
AcDbEntity
  8
0
  6
Continuous
 62
     7
370
    25
100
AcDbCircle
 10
500.5709016625
 20
277.1411949261
 30
0.0
 40
1.599999999999909
  0
CIRCLE
  5
115
330
1F
100
AcDbEntity
  8
0
  6
Continuous
 62
     7
370
    25
100
AcDbCircle
 10
579.5122732276
 20
262.3597805211
 30
0.0
 40
1.600000000000023
  0
LINE
  5
116
330
1F
100
AcDbEntity
  8
0
  6
Continuous
 62
     7
370
    25
100
AcDbLine
 10
561.7823583279
 20
195.1935095726
 30
0.0
 11
571.7757903983
 21
195.1935095726
 31
0.0
  0
ARC
  5
117
330
1F
100
AcDbEntity
  8
0
  6
Continuous
 62
     7
370
    25
100
AcDbCircle
 10
571.7757903983
 20
192.1935095726
 30
0.0
 40
3.000000000000057
100
AcDbArc
 50
359.9623808904
 51
90.0
  0
LINE
  5
118
330
1F
100
AcDbEntity
  8
0
  6
Continuous
 62
     7
370
    25
100
AcDbLine
 10
574.7757897516
 20
192.1915398408
 30
0.0
 11
574.7692239803
 21
182.1915441517
 31
0.0
  0
ARC
  5
119
330
1F
100
AcDbEntity
  8
0
  6
Continuous
 62
     7
370
    25
100
AcDbCircle
 10
571.7692246269
 20
182.1935138835
 30
0.0
 40
2.999999999999773
100
AcDbArc
 50
270.0
 51
359.9623808904
  0
LINE
  5
11A
330
1F
100
AcDbEntity
  8
0
  6
Continuous
 62
     7
370
    25
100
AcDbLine
 10
561.7889240993
 20
179.1935138835
 30
0.0
 11
571.7692246269
 21
179.1935138835
 31
0.0
  0
ARC
  5
11B
330
1F
100
AcDbEntity
  8
0
  6
Continuous
 62
     7
370
    25
100
AcDbCircle
 10
561.7889240993
 20
182.1935138835
 30
0.0
 40
2.999999999999773
100
AcDbArc
 50
180.0376191096
 51
270.0
  0
LINE
  5
11C
330
1F
100
AcDbEntity
  8
0
  6
Continuous
 62
     7
370
    25
100
AcDbLine
 10
558.7823589745
 20
192.1915398408
 30
0.0
 11
558.7889247459
 21
182.1915441517
 31
0.0
  0
ARC
  5
11D
330
1F
100
AcDbEntity
  8
0
  6
Continuous
 62
     7
370
    25
100
AcDbCircle
 10
561.7823583279
 20
192.1935095726
 30
0.0
 40
3.000000000000057
100
AcDbArc
 50
90.0
 51
180.0376191096
  0
LINE
  5
11E
330
1F
100
AcDbEntity
  8
0
  6
Continuous
 62
     7
370
    25
100
AcDbLine
 10
585.8616401967
 20
249.3054988317
 30
0.0
 11
585.8616401967
 21
231.3054988317
 31
0.0
  0
ARC
  5
11F
330
1F
100
AcDbEntity
  8
0
  6
Continuous
 62
     7
370
    25
100
AcDbCircle
 10
584.3616401967
 20
231.3054988317
 30
0.0
 40
1.500000000000114
100
AcDbArc
 50
180.0
 51
0.0
  0
LINE
  5
120
330
1F
100
AcDbEntity
  8
0
  6
Continuous
 62
     7
370
    25
100
AcDbLine
 10
582.8616401967
 20
249.3054988317
 30
0.0
 11
582.8616401967
 21
231.3054988317
 31
0.0
  0
ARC
  5
121
330
1F
100
AcDbEntity
  8
0
  6
Continuous
 62
     7
370
    25
100
AcDbCircle
 10
584.3616401967
 20
249.3054988317
 30
0.0
 40
1.5
100
AcDbArc
 50
360.0
 51
180.0
  0
LINE
  5
122
330
1F
100
AcDbEntity
  8
0
  6
Continuous
 62
     7
370
    25
100
AcDbLine
 10
564.7790743631
 20
155.3871055554
 30
0.0
 11
564.7790743631
 21
141.5516935608
 31
0.0
  0
ARC
  5
123
330
1F
100
AcDbEntity
  8
0
  6
Continuous
 62
     7
370
    25
100
AcDbCircle
 10
563.7790743631
 20
141.5516935608
 30
0.0
 40
1.000000000000044
100
AcDbArc
 50
210.5391871509
 51
0.0
  0
LINE
  5
124
330
1F
100
AcDbEntity
  8
0
  6
Continuous
 62
     7
370
    25
100
AcDbLine
 10
562.9177925324
 20
141.0435660098
 30
0.0
 11
556.3005860342
 21
152.2598043652
 31
0.0
  0
ARC
  5
125
330
1F
100
AcDbEntity
  8
0
  6
Continuous
 62
     7
370
    25
100
AcDbCircle
 10
558.8844315264
 20
153.7841870182
 30
0.0
 40
3.000000000000286
100
AcDbArc
 50
98.6351431079
 51
210.5391871509
  0
LINE
  5
126
330
1F
100
AcDbEntity
  8
0
  6
Continuous
 62
     7
370
    25
100
AcDbLine
 10
558.434006181
 20
156.7501804451
 30
0.0
 11
562.4787907995
 21
157.3644345066
 31
0.0
  0
ARC
  5
127
330
1F
100
AcDbEntity
  8
0
  6
Continuous
 62
     7
370
    25
100
AcDbCircle
 10
562.7790743631
 20
155.3871055554
 30
0.0
 40
2.000000000000015
100
AcDbArc
 50
0.0
 51
98.6351431079
  0
LINE
  5
128
330
1F
100
AcDbEntity
  8
0
  6
Continuous
 62
     7
370
    25
100
AcDbLine
 10
544.8898697382
 20
210.9522536202
 30
0.0
 11
560.3875302872
 21
200.8396638659
 31
0.0
  0
ARC
  5
129
330
1F
100
AcDbEntity
  8
0
  6
Continuous
 62
     7
370
    25
100
AcDbCircle
 10
545.8461979212
 20
212.4178376015
 30
0.0
 40
1.750000000000057
100
AcDbArc
 50
79.3452058424
 51
236.8746021912
  0
LINE
  5
12A
330
1F
100
AcDbEntity
  8
0
  6
Continuous
 62
     7
370
    25
100
AcDbLine
 10
546.1697576703
 20
214.1376658164
 30
0.0
 11
562.3337482188
 21
211.0966546957
 31
0.0
  0
ARC
  5
12B
330
1F
100
AcDbEntity
  8
0
  6
Continuous
 62
     7
370
    25
100
AcDbCircle
 10
561.7790743631
 20
208.1483777559
 30
0.0
 40
3.000000000000049
100
AcDbArc
 50
0.0
 51
79.3452058424
  0
LINE
  5
12C
330
1F
100
AcDbEntity
  8
0
  6
Continuous
 62
     7
370
    25
100
AcDbLine
 10
564.7790743631
 20
201.939570109
 30
0.0
 11
564.7790743631
 21
208.1483777559
 31
0.0
  0
ARC
  5
12D
330
1F
100
AcDbEntity
  8
0
  6
Continuous
 62
     7
370
    25
100
AcDbCircle
 10
563.0290743631
 20
201.939570109
 30
0.0
 40
1.750000000000114
100
AcDbArc
 50
270.0
 51
0.0
  0
LINE
  5
12E
330
1F
100
AcDbEntity
  8
0
  6
Continuous
 62
     7
370
    25
100
AcDbLine
 10
562.5734232769
 20
200.189570109
 30
0.0
 11
563.0290743631
 21
200.189570109
 31
0.0
  0
ARC
  5
12F
330
1F
100
AcDbEntity
  8
0
  6
Continuous
 62
     7
370
    25
100
AcDbCircle
 10
562.5734232769
 20
204.189570109
 30
0.0
 40
4.000000000000028
100
AcDbArc
 50
236.8746021912
 51
270.0
  0
LINE
  5
130
330
1F
100
AcDbEntity
  8
0
  6
Continuous
 62
     7
370
    25
100
AcDbLine
 10
568.7790743631
 20
218.9959784371
 30
0.0
 11
568.7790743631
 21
232.8313904317
 31
0.0
  0
ARC
  5
131
330
1F
100
AcDbEntity
  8
0
  6
Continuous
 62
     7
370
    25
100
AcDbCircle
 10
569.7790743631
 20
232.8313904317
 30
0.0
 40
1.000000000000015
100
AcDbArc
 50
30.5391871509
 51
180.0
  0
LINE
  5
132
330
1F
100
AcDbEntity
  8
0
  6
Continuous
 62
     7
370
    25
100
AcDbLine
 10
570.6403561938
 20
233.3395179827
 30
0.0
 11
577.2575626919
 21
222.1232796273
 31
0.0
  0
ARC
  5
133
330
1F
100
AcDbEntity
  8
0
  6
Continuous
 62
     7
370
    25
100
AcDbCircle
 10
574.6737171998
 20
220.5988969743
 30
0.0
 40
3.00000000000037
100
AcDbArc
 50
278.6351431079
 51
30.5391871509
  0
LINE
  5
134
330
1F
100
AcDbEntity
  8
0
  6
Continuous
 62
     7
370
    25
100
AcDbLine
 10
575.1241425452
 20
217.6329035474
 30
0.0
 11
571.0793579267
 21
217.0186494859
 31
0.0
  0
ARC
  5
135
330
1F
100
AcDbEntity
  8
0
  6
Continuous
 62
     7
370
    25
100
AcDbCircle
 10
570.7790743631
 20
218.9959784371
 30
0.0
 40
2.0
100
AcDbArc
 50
180.0
 51
278.6351431079
  0
LINE
  5
136
330
1F
100
AcDbEntity
  8
0
  6
Continuous
 62
     7
370
    25
100
AcDbLine
 10
577.9790743631
 20
254.8113420843
 30
0.0
 11
577.9790743631
 21
247.8113420843
 31
0.0
  0
ARC
  5
137
330
1F
100
AcDbEntity
  8
0
  6
Continuous
 62
     7
370
    25
100
AcDbCircle
 10
577.1290743631
 20
247.8113420843
 30
0.0
 40
0.8500000000000227
100
AcDbArc
 50
180.0
 51
0.0
  0
LINE
  5
138
330
1F
100
AcDbEntity
  8
0
  6
Continuous
 62
     7
370
    25
100
AcDbLine
 10
576.2790743631
 20
254.8113420843
 30
0.0
 11
576.2790743631
 21
247.8113420843
 31
0.0
  0
ARC
  5
139
330
1F
100
AcDbEntity
  8
0
  6
Continuous
 62
     7
370
    25
100
AcDbCircle
 10
577.1290743631
 20
254.8113420843
 30
0.0
 40
0.8500000000000227
100
AcDbArc
 50
0.0
 51
180.0
  0
CIRCLE
  5
13A
330
1F
100
AcDbEntity
  8
0
  6
Continuous
 62
     7
370
    25
100
AcDbCircle
 10
462.9594183762
 20
162.3868890664
 30
0.0
 40
1.599999999999966
  0
CIRCLE
  5
13B
330
1F
100
AcDbEntity
  8
0
  6
Continuous
 62
     7
370
    25
100
AcDbCircle
 10
632.9872470636
 20
233.7111949261
 30
0.0
 40
41.10000000000241
  0
CIRCLE
  5
13C
330
1F
100
AcDbEntity
  8
0
  6
Continuous
 62
     7
370
    25
100
AcDbCircle
 10
670.59873035
 20
211.9961949261
 30
0.0
 40
1.600000000000023
  0
CIRCLE
  5
13D
330
1F
100
AcDbEntity
  8
0
  6
Continuous
 62
     7
370
    25
100
AcDbCircle
 10
543.9209016625
 20
141.079536947
 30
0.0
 40
1.600000000000136
  0
CIRCLE
  5
13E
330
1F
100
AcDbEntity
  8
0
  6
Continuous
 62
     7
370
    25
100
AcDbCircle
 10
589.6372470636
 20
141.079536947
 30
0.0
 40
1.600000000000023
  0
LINE
  5
13F
330
1F
100
AcDbEntity
  8
0
  6
Continuous
 62
     7
370
    25
100
AcDbLine
 10
581.9082395042
 20
154.5864535536
 30
0.0
 11
581.9082395042
 21
137.5864535536
 31
0.0
  0
ARC
  5
140
330
1F
100
AcDbEntity
  8
0
  6
Continuous
 62
     7
370
    25
100
AcDbCircle
 10
583.4082395042
 20
154.5864535536
 30
0.0
 40
1.500000000000114
100
AcDbArc
 50
0.0
 51
180.0
  0
LINE
  5
141
330
1F
100
AcDbEntity
  8
0
  6
Continuous
 62
     7
370
    25
100
AcDbLine
 10
584.9082395042
 20
154.5864535536
 30
0.0
 11
584.9082395042
 21
137.5864535536
 31
0.0
  0
ARC
  5
142
330
1F
100
AcDbEntity
  8
0
  6
Continuous
 62
     7
370
    25
100
AcDbCircle
 10
583.4082395042
 20
137.5864535536
 30
0.0
 40
1.500000000000114
100
AcDbArc
 50
180.0
 51
0.0
  0
CIRCLE
  5
143
330
1F
100
AcDbEntity
  8
0
  6
Continuous
 62
     7
370
    25
100
AcDbCircle
 10
503.1028234925
 20
146.6712679644
 30
0.0
 40
1.100000000000023
  0
ARC
  5
144
330
1F
100
AcDbEntity
  8
0
  6
Continuous
 62
     7
370
    25
100
AcDbCircle
 10
493.3956119319
 20
145.5835987421
 30
0.0
 40
1.000000000012354
100
AcDbArc
 50
240.0
 51
60.0
  0
LINE
  5
145
330
1F
100
AcDbEntity
  8
0
  6
Continuous
 62
     7
370
    25
100
AcDbLine
 10
489.7642861224
 20
146.5254451374
 30
0.0
 11
492.8956119319
 21
144.7175733383
 31
0.0
  0
ARC
  5
146
330
1F
100
AcDbEntity
  8
0
  6
Continuous
 62
     7
370
    25
100
AcDbCircle
 10
490.2642861224
 20
147.3914705412
 30
0.0
 40
1.000000000009448
100
AcDbArc
 50
60.0
 51
240.0
  0
LINE
  5
147
330
1F
100
AcDbEntity
  8
0
  6
Continuous
 62
     7
370
    25
100
AcDbLine
 10
493.8956119319
 20
146.4496241459
 30
0.0
 11
490.7642861224
 21
148.257495945
 31
0.0
  0
ARC
  5
148
330
1F
100
AcDbEntity
  8
0
  6
Continuous
 62
     7
370
    25
100
AcDbCircle
 10
501.5499092219
 20
127.8441979377
 30
0.0
 40
2.500000000010971
100
AcDbArc
 50
179.9999999999
 51
0.0000000002
  0
LINE
  5
149
330
1F
100
AcDbEntity
  8
0
  6
Continuous
 62
     7
370
    25
100
AcDbLine
 10
504.0499092219
 20
127.8441979377
 30
0.0
 11
504.0499092219
 21
130.2103485028
 31
0.0
  0
ARC
  5
14A
330
1F
100
AcDbEntity
  8
0
  6
Continuous
 62
     7
370
    25
100
AcDbCircle
 10
507.0499092219
 20
130.2103485028
 30
0.0
 40
3.0
100
AcDbArc
 50
117.2796127358
 51
179.9999999999
  0
ARC
  5
14B
330
1F
100
AcDbEntity
  8
0
  6
Continuous
 62
     7
370
    25
100
AcDbCircle
 10
501.5499092219
 20
140.8757130067
 30
0.0
 40
9.000000000020123
100
AcDbArc
 50
297.279612736
 51
359.9999999999
  0
ARC
  5
14C
330
1F
100
AcDbEntity
  8
0
  6
Continuous
 62
     7
370
    25
100
AcDbCircle
 10
513.549909222
 20
140.8757130067
 30
0.0
 40
3.000000000001421
100
AcDbArc
 50
120.0
 51
180.0
  0
LINE
  5
14D
330
1F
100
AcDbEntity
  8
0
  6
Continuous
 62
     7
370
    25
100
AcDbLine
 10
512.049909222
 20
143.473789218
 30
0.0
 11
519.1689635164
 21
147.5839771313
 31
0.0
  0
ARC
  5
14E
330
1F
100
AcDbEntity
  8
0
  6
Continuous
 62
     7
370
    25
100
AcDbCircle
 10
517.6689635164
 20
150.1820533427
 30
0.0
 40
3.000000000026396
100
AcDbArc
 50
300.0
 51
120.0000000001
  0
LINE
  5
14F
330
1F
100
AcDbEntity
  8
0
  6
Continuous
 62
     7
370
    25
100
AcDbLine
 10
516.1689635164
 20
152.7801295541
 30
0.0
 11
509.0499092219
 21
148.6699416408
 31
0.0
  0
ARC
  5
150
330
1F
100
AcDbEntity
  8
0
  6
Continuous
 62
     7
370
    25
100
AcDbCircle
 10
507.5499092219
 20
151.2680178521
 30
0.0
 40
3.000000000000069
100
AcDbArc
 50
240.0000000002
 51
300.0
  0
ARC
  5
151
330
1F
100
AcDbEntity
  8
0
  6
Continuous
 62
     7
370
    25
100
AcDbCircle
 10
501.5499092219
 20
140.8757130067
 30
0.0
 40
9.00000000000954
100
AcDbArc
 50
60.0000000001
 51
122.7203872641
  0
ARC
  5
152
330
1F
100
AcDbEntity
  8
0
  6
Continuous
 62
     7
370
    25
100
AcDbCircle
 10
495.063432621
 20
150.9715349794
 30
0.0
 40
3.000000000000678
100
AcDbArc
 50
240.0
 51
302.720387264
  0
LINE
  5
153
330
1F
100
AcDbEntity
  8
0
  6
Continuous
 62
     7
370
    25
100
AcDbLine
 10
493.563432621
 20
148.3734587681
 30
0.0
 11
491.5142861224
 21
149.5565340506
 31
0.0
  0
ARC
  5
154
330
1F
100
AcDbEntity
  8
0
  6
Continuous
 62
     7
370
    25
100
AcDbCircle
 10
490.2642861224
 20
147.3914705412
 30
0.0
 40
2.500000000004835
100
AcDbArc
 50
59.9999999997
 51
240.0
  0
LINE
  5
155
330
1F
100
AcDbEntity
  8
0
  6
Continuous
 62
     7
370
    25
100
AcDbLine
 10
489.0142861224
 20
145.2264070317
 30
0.0
 11
491.063432621
 21
144.0433317492
 31
0.0
  0
ARC
  5
156
330
1F
100
AcDbEntity
  8
0
  6
Continuous
 62
     7
370
    25
100
AcDbCircle
 10
489.563432621
 20
141.4452555378
 30
0.0
 40
2.999999999993163
100
AcDbArc
 50
357.2796127359
 51
60.0000000001
  0
ARC
  5
157
330
1F
100
AcDbEntity
  8
0
  6
Continuous
 62
     7
370
    25
100
AcDbCircle
 10
501.5499092219
 20
140.8757130067
 30
0.0
 40
9.000000000029626
100
AcDbArc
 50
177.279612736
 51
242.720387264
  0
ARC
  5
158
330
1F
100
AcDbEntity
  8
0
  6
Continuous
 62
     7
370
    25
100
AcDbCircle
 10
496.0499092219
 20
130.2103485028
 30
0.0
 40
3.000000000000909
100
AcDbArc
 50
0.0000000001
 51
62.7203872639
  0
LINE
  5
159
330
1F
100
AcDbEntity
  8
0
  6
Continuous
 62
     7
370
    25
100
AcDbLine
 10
499.0499092219
 20
130.2103485028
 30
0.0
 11
499.0499092219
 21
127.8441979377
 31
0.0
  0
ARC
  5
15A
330
1F
100
AcDbEntity
  8
0
  6
Continuous
 62
     7
370
    25
100
AcDbCircle
 10
501.5499092219
 20
131.4599415358
 30
0.0
 40
1.000000000010687
100
AcDbArc
 50
359.9999999999
 51
179.9999999999
  0
LINE
  5
15B
330
1F
100
AcDbEntity
  8
0
  6
Continuous
 62
     7
370
    25
100
AcDbLine
 10
502.5499092219
 20
127.8441979377
 30
0.0
 11
502.5499092219
 21
131.4599415358
 31
0.0
  0
ARC
  5
15C
330
1F
100
AcDbEntity
  8
0
  6
Continuous
 62
     7
370
    25
100
AcDbCircle
 10
501.5499092219
 20
127.8441979377
 30
0.0
 40
1.00000000000955
100
AcDbArc
 50
180.0
 51
0.0
  0
LINE
  5
15D
330
1F
100
AcDbEntity
  8
0
  6
Continuous
 62
     7
370
    25
100
AcDbLine
 10
500.5499092219
 20
131.4599415358
 30
0.0
 11
500.5499092219
 21
127.8441979377
 31
0.0
  0
CIRCLE
  5
15E
330
1F
100
AcDbEntity
  8
0
  6
Continuous
 62
     7
370
    25
100
AcDbCircle
 10
499.9969949513
 20
135.080158049
 30
0.0
 40
1.099999999999966
  0
CIRCLE
  5
15F
330
1F
100
AcDbEntity
  8
0
  6
Continuous
 62
     7
370
    25
100
AcDbCircle
 10
501.5499092219
 20
140.8757130067
 30
0.0
 40
2.900000000007424
  0
CIRCLE
  5
160
330
1F
100
AcDbEntity
  8
0
  6
Continuous
 62
     7
370
    25
100
AcDbCircle
 10
495.7543542642
 20
142.4286272773
 30
0.0
 40
1.100000000000023
  0
ARC
  5
161
330
1F
100
AcDbEntity
  8
0
  6
Continuous
 62
     7
370
    25
100
AcDbCircle
 10
507.5855323214
 20
144.3603816279
 30
0.0
 40
1.000000000014529
100
AcDbArc
 50
119.9999999999
 51
299.9999999999
  0
LINE
  5
162
330
1F
100
AcDbEntity
  8
0
  6
Continuous
 62
     7
370
    25
100
AcDbLine
 10
517.1689635164
 20
151.0480787465
 30
0.0
 11
507.0855323214
 21
145.2264070317
 31
0.0
  0
ARC
  5
163
330
1F
100
AcDbEntity
  8
0
  6
Continuous
 62
     7
370
    25
100
AcDbCircle
 10
517.6689635164
 20
150.1820533427
 30
0.0
 40
1.000000000014137
100
AcDbArc
 50
300.0000000001
 51
119.9999999999
  0
LINE
  5
164
330
1F
100
AcDbEntity
  8
0
  6
Continuous
 62
     7
370
    25
100
AcDbLine
 10
508.0855323214
 20
143.4943562241
 30
0.0
 11
518.1689635164
 21
149.3160279389
 31
0.0
  0
CIRCLE
  5
165
330
1F
100
AcDbEntity
  8
0
  6
Continuous
 62
     7
370
    25
100
AcDbCircle
 10
507.3454641797
 20
139.3227987361
 30
0.0
 40
1.099999999999966
  0
CIRCLE
  5
166
330
1F
100
AcDbEntity
  8
0
  6
Continuous
 62
     7
370
    25
100
AcDbCircle
 10
630.4553252336
 20
227.7118160281
 30
0.0
 40
1.099999999999909
  0
ARC
  5
167
330
1F
100
AcDbEntity
  8
0
  6
Continuous
 62
     7
370
    25
100
AcDbCircle
 10
640.1625367942
 20
228.7994852504
 30
0.0
 40
1.000000000012354
100
AcDbArc
 50
60.0
 51
240.0
  0
LINE
  5
168
330
1F
100
AcDbEntity
  8
0
  6
Continuous
 62
     7
370
    25
100
AcDbLine
 10
643.7938626038
 20
227.8576388551
 30
0.0
 11
640.6625367942
 21
229.6655106542
 31
0.0
  0
ARC
  5
169
330
1F
100
AcDbEntity
  8
0
  6
Continuous
 62
     7
370
    25
100
AcDbCircle
 10
643.2938626038
 20
226.9916134513
 30
0.0
 40
1.000000000009477
100
AcDbArc
 50
240.0
 51
60.0
  0
LINE
  5
16A
330
1F
100
AcDbEntity
  8
0
  6
Continuous
 62
     7
370
    25
100
AcDbLine
 10
639.6625367942
 20
227.9334598466
 30
0.0
 11
642.7938626038
 21
226.1255880475
 31
0.0
  0
ARC
  5
16B
330
1F
100
AcDbEntity
  8
0
  6
Continuous
 62
     7
370
    25
100
AcDbCircle
 10
632.0082395042
 20
246.5388860548
 30
0.0
 40
2.500000000010914
100
AcDbArc
 50
359.9999999999
 51
180.0000000002
  0
LINE
  5
16C
330
1F
100
AcDbEntity
  8
0
  6
Continuous
 62
     7
370
    25
100
AcDbLine
 10
629.5082395042
 20
246.5388860548
 30
0.0
 11
629.5082395042
 21
244.1727354897
 31
0.0
  0
ARC
  5
16D
330
1F
100
AcDbEntity
  8
0
  6
Continuous
 62
     7
370
    25
100
AcDbCircle
 10
626.5082395042
 20
244.1727354897
 30
0.0
 40
3.0
100
AcDbArc
 50
297.2796127358
 51
359.9999999999
  0
ARC
  5
16E
330
1F
100
AcDbEntity
  8
0
  6
Continuous
 62
     7
370
    25
100
AcDbCircle
 10
632.0082395042
 20
233.5073709858
 30
0.0
 40
9.000000000020123
100
AcDbArc
 50
117.279612736
 51
179.9999999999
  0
ARC
  5
16F
330
1F
100
AcDbEntity
  8
0
  6
Continuous
 62
     7
370
    25
100
AcDbCircle
 10
620.0082395042
 20
233.5073709858
 30
0.0
 40
3.000000000001478
100
AcDbArc
 50
300.0
 51
0.0
  0
LINE
  5
170
330
1F
100
AcDbEntity
  8
0
  6
Continuous
 62
     7
370
    25
100
AcDbLine
 10
621.5082395042
 20
230.9092947745
 30
0.0
 11
614.3891852097
 21
226.7991068612
 31
0.0
  0
ARC
  5
171
330
1F
100
AcDbEntity
  8
0
  6
Continuous
 62
     7
370
    25
100
AcDbCircle
 10
615.8891852098
 20
224.2010306498
 30
0.0
 40
3.000000000026371
100
AcDbArc
 50
119.9999999999
 51
300.0000000001
  0
LINE
  5
172
330
1F
100
AcDbEntity
  8
0
  6
Continuous
 62
     7
370
    25
100
AcDbLine
 10
617.3891852098
 20
221.6029544384
 30
0.0
 11
624.5082395042
 21
225.7131423517
 31
0.0
  0
ARC
  5
173
330
1F
100
AcDbEntity
  8
0
  6
Continuous
 62
     7
370
    25
100
AcDbCircle
 10
626.0082395042
 20
223.1150661404
 30
0.0
 40
3.000000000000073
100
AcDbArc
 50
60.0000000002
 51
120.0
  0
ARC
  5
174
330
1F
100
AcDbEntity
  8
0
  6
Continuous
 62
     7
370
    25
100
AcDbCircle
 10
632.0082395042
 20
233.5073709858
 30
0.0
 40
9.00000000000954
100
AcDbArc
 50
240.0000000001
 51
302.7203872641
  0
ARC
  5
175
330
1F
100
AcDbEntity
  8
0
  6
Continuous
 62
     7
370
    25
100
AcDbCircle
 10
638.4947161052
 20
223.4115490131
 30
0.0
 40
3.000000000000731
100
AcDbArc
 50
60.0
 51
122.720387264
  0
LINE
  5
176
330
1F
100
AcDbEntity
  8
0
  6
Continuous
 62
     7
370
    25
100
AcDbLine
 10
639.9947161052
 20
226.0096252244
 30
0.0
 11
642.0438626038
 21
224.8265499419
 31
0.0
  0
ARC
  5
177
330
1F
100
AcDbEntity
  8
0
  6
Continuous
 62
     7
370
    25
100
AcDbCircle
 10
643.2938626038
 20
226.9916134513
 30
0.0
 40
2.500000000004831
100
AcDbArc
 50
239.9999999997
 51
60.0
  0
LINE
  5
178
330
1F
100
AcDbEntity
  8
0
  6
Continuous
 62
     7
370
    25
100
AcDbLine
 10
644.5438626038
 20
229.1566769608
 30
0.0
 11
642.4947161052
 21
230.3397522433
 31
0.0
  0
ARC
  5
179
330
1F
100
AcDbEntity
  8
0
  6
Continuous
 62
     7
370
    25
100
AcDbCircle
 10
643.9947161052
 20
232.9378284547
 30
0.0
 40
2.999999999993107
100
AcDbArc
 50
177.2796127359
 51
240.0000000001
  0
ARC
  5
17A
330
1F
100
AcDbEntity
  8
0
  6
Continuous
 62
     7
370
    25
100
AcDbCircle
 10
632.0082395042
 20
233.5073709858
 30
0.0
 40
9.000000000029624
100
AcDbArc
 50
357.279612736
 51
62.720387264
  0
ARC
  5
17B
330
1F
100
AcDbEntity
  8
0
  6
Continuous
 62
     7
370
    25
100
AcDbCircle
 10
637.5082395042
 20
244.1727354897
 30
0.0
 40
3.000000000000796
100
AcDbArc
 50
180.0
 51
242.7203872639
  0
LINE
  5
17C
330
1F
100
AcDbEntity
  8
0
  6
Continuous
 62
     7
370
    25
100
AcDbLine
 10
634.5082395042
 20
244.1727354897
 30
0.0
 11
634.5082395042
 21
246.5388860548
 31
0.0
  0
ARC
  5
17D
330
1F
100
AcDbEntity
  8
0
  6
Continuous
 62
     7
370
    25
100
AcDbCircle
 10
632.0082395042
 20
242.9231424567
 30
0.0
 40
1.000000000010687
100
AcDbArc
 50
179.9999999999
 51
359.9999999999
  0
LINE
  5
17E
330
1F
100
AcDbEntity
  8
0
  6
Continuous
 62
     7
370
    25
100
AcDbLine
 10
631.0082395042
 20
246.5388860548
 30
0.0
 11
631.0082395042
 21
242.9231424567
 31
0.0
  0
ARC
  5
17F
330
1F
100
AcDbEntity
  8
0
  6
Continuous
 62
     7
370
    25
100
AcDbCircle
 10
632.0082395042
 20
246.5388860548
 30
0.0
 40
1.00000000000955
100
AcDbArc
 50
0.0
 51
180.0
  0
LINE
  5
180
330
1F
100
AcDbEntity
  8
0
  6
Continuous
 62
     7
370
    25
100
AcDbLine
 10
633.0082395042
 20
242.9231424567
 30
0.0
 11
633.0082395042
 21
246.5388860548
 31
0.0
  0
CIRCLE
  5
181
330
1F
100
AcDbEntity
  8
0
  6
Continuous
 62
     7
370
    25
100
AcDbCircle
 10
633.5611537748
 20
239.3029259435
 30
0.0
 40
1.100000000000023
  0
CIRCLE
  5
182
330
1F
100
AcDbEntity
  8
0
  6
Continuous
 62
     7
370
    25
100
AcDbCircle
 10
632.0082395042
 20
233.5073709858
 30
0.0
 40
2.900000000007481
  0
CIRCLE
  5
183
330
1F
100
AcDbEntity
  8
0
  6
Continuous
 62
     7
370
    25
100
AcDbCircle
 10
637.803794462
 20
231.9544567152
 30
0.0
 40
1.099999999999909
  0
ARC
  5
184
330
1F
100
AcDbEntity
  8
0
  6
Continuous
 62
     7
370
    25
100
AcDbCircle
 10
625.9726164047
 20
230.0227023646
 30
0.0
 40
1.000000000014476
100
AcDbArc
 50
299.9999999999
 51
119.9999999999
  0
LINE
  5
185
330
1F
100
AcDbEntity
  8
0
  6
Continuous
 62
     7
370
    25
100
AcDbLine
 10
616.3891852098
 20
223.335005246
 30
0.0
 11
626.4726164047
 21
229.1566769608
 31
0.0
  0
ARC
  5
186
330
1F
100
AcDbEntity
  8
0
  6
Continuous
 62
     7
370
    25
100
AcDbCircle
 10
615.8891852098
 20
224.2010306498
 30
0.0
 40
1.000000000014088
100
AcDbArc
 50
120.0000000001
 51
299.9999999999
  0
LINE
  5
187
330
1F
100
AcDbEntity
  8
0
  6
Continuous
 62
     7
370
    25
100
AcDbLine
 10
625.4726164047
 20
230.8887277684
 30
0.0
 11
615.3891852097
 21
225.0670560536
 31
0.0
  0
CIRCLE
  5
188
330
1F
100
AcDbEntity
  8
0
  6
Continuous
 62
     7
370
    25
100
AcDbCircle
 10
626.2126845465
 20
235.0602852564
 30
0.0
 40
1.100000000000023
  0
CIRCLE
  5
189
330
1F
100
AcDbEntity
  8
0
  6
Continuous
 62
     7
370
    25
100
AcDbCircle
 10
632.0082395042
 20
140.8757130067
 30
0.0
 40
2.900000000007367
  0
CIRCLE
  5
18A
330
1F
100
AcDbEntity
  8
0
  6
Continuous
 62
     7
370
    25
100
AcDbCircle
 10
630.4553252336
 20
146.6712679644
 30
0.0
 40
1.100000000000023
  0
LINE
  5
18B
330
1F
100
AcDbEntity
  8
0
  6
Continuous
 62
     7
370
    25
100
AcDbLine
 10
631.0082395042
 20
131.4599415358
 30
0.0
 11
631.0082395042
 21
127.8441979377
 31
0.0
  0
ARC
  5
18C
330
1F
100
AcDbEntity
  8
0
  6
Continuous
 62
     7
370
    25
100
AcDbCircle
 10
632.0082395042
 20
131.4599415358
 30
0.0
 40
1.000000000010687
100
AcDbArc
 50
0.0000000001
 51
180.0000000001
  0
LINE
  5
18D
330
1F
100
AcDbEntity
  8
0
  6
Continuous
 62
     7
370
    25
100
AcDbLine
 10
633.0082395042
 20
127.8441979377
 30
0.0
 11
633.0082395042
 21
131.4599415358
 31
0.0
  0
ARC
  5
18E
330
1F
100
AcDbEntity
  8
0
  6
Continuous
 62
     7
370
    25
100
AcDbCircle
 10
632.0082395042
 20
127.8441979377
 30
0.0
 40
1.00000000000648
100
AcDbArc
 50
180.0
 51
360.0
  0
LINE
  5
18F
330
1F
100
AcDbEntity
  8
0
  6
Continuous
 62
     7
370
    25
100
AcDbLine
 10
640.6625367942
 20
144.7175733383
 30
0.0
 11
643.7938626038
 21
146.5254451374
 31
0.0
  0
ARC
  5
190
330
1F
100
AcDbEntity
  8
0
  6
Continuous
 62
     7
370
    25
100
AcDbCircle
 10
640.1625367942
 20
145.5835987421
 30
0.0
 40
1.000000000012354
100
AcDbArc
 50
120.0
 51
300.0
  0
LINE
  5
191
330
1F
100
AcDbEntity
  8
0
  6
Continuous
 62
     7
370
    25
100
AcDbLine
 10
642.7938626038
 20
148.257495945
 30
0.0
 11
639.6625367942
 21
146.4496241459
 31
0.0
  0
ARC
  5
192
330
1F
100
AcDbEntity
  8
0
  6
Continuous
 62
     7
370
    25
100
AcDbCircle
 10
643.2938626038
 20
147.3914705412
 30
0.0
 40
1.000000000009502
100
AcDbArc
 50
300.0
 51
120.0
  0
LINE
  5
193
330
1F
100
AcDbEntity
  8
0
  6
Continuous
 62
     7
370
    25
100
AcDbLine
 10
626.4726164047
 20
145.2264070317
 30
0.0
 11
616.3891852098
 21
151.0480787465
 31
0.0
  0
ARC
  5
194
330
1F
100
AcDbEntity
  8
0
  6
Continuous
 62
     7
370
    25
100
AcDbCircle
 10
625.9726164047
 20
144.3603816279
 30
0.0
 40
1.0000000000145
100
AcDbArc
 50
240.0000000001
 51
60.0000000001
  0
LINE
  5
195
330
1F
100
AcDbEntity
  8
0
  6
Continuous
 62
     7
370
    25
100
AcDbLine
 10
615.3891852097
 20
149.3160279389
 30
0.0
 11
625.4726164047
 21
143.4943562241
 31
0.0
  0
ARC
  5
196
330
1F
100
AcDbEntity
  8
0
  6
Continuous
 62
     7
370
    25
100
AcDbCircle
 10
615.8891852098
 20
150.1820533427
 30
0.0
 40
1.000000000013817
100
AcDbArc
 50
60.0
 51
239.9999999999
  0
ARC
  5
197
330
1F
100
AcDbEntity
  8
0
  6
Continuous
 62
     7
370
    25
100
AcDbCircle
 10
632.0082395042
 20
140.8757130067
 30
0.0
 40
9.000000000029626
100
AcDbArc
 50
297.279612736
 51
2.720387264
  0
ARC
  5
198
330
1F
100
AcDbEntity
  8
0
  6
Continuous
 62
     7
370
    25
100
AcDbCircle
 10
643.9947161052
 20
141.4452555378
 30
0.0
 40
2.999999999993106
100
AcDbArc
 50
119.9999999999
 51
182.7203872641
  0
LINE
  5
199
330
1F
100
AcDbEntity
  8
0
  6
Continuous
 62
     7
370
    25
100
AcDbLine
 10
642.4947161052
 20
144.0433317492
 30
0.0
 11
644.5438626038
 21
145.2264070317
 31
0.0
  0
ARC
  5
19A
330
1F
100
AcDbEntity
  8
0
  6
Continuous
 62
     7
370
    25
100
AcDbCircle
 10
643.2938626038
 20
147.3914705412
 30
0.0
 40
2.500000000004831
100
AcDbArc
 50
300.0
 51
120.0000000003
  0
LINE
  5
19B
330
1F
100
AcDbEntity
  8
0
  6
Continuous
 62
     7
370
    25
100
AcDbLine
 10
642.0438626038
 20
149.5565340506
 30
0.0
 11
639.9947161052
 21
148.3734587681
 31
0.0
  0
ARC
  5
19C
330
1F
100
AcDbEntity
  8
0
  6
Continuous
 62
     7
370
    25
100
AcDbCircle
 10
638.4947161052
 20
150.9715349794
 30
0.0
 40
3.000000000000707
100
AcDbArc
 50
237.279612736
 51
300.0
  0
ARC
  5
19D
330
1F
100
AcDbEntity
  8
0
  6
Continuous
 62
     7
370
    25
100
AcDbCircle
 10
632.0082395042
 20
140.8757130067
 30
0.0
 40
9.000000000008361
100
AcDbArc
 50
57.2796127359
 51
119.9999999999
  0
ARC
  5
19E
330
1F
100
AcDbEntity
  8
0
  6
Continuous
 62
     7
370
    25
100
AcDbCircle
 10
626.0082395042
 20
151.2680178521
 30
0.0
 40
3.000000000000098
100
AcDbArc
 50
240.0
 51
299.9999999998
  0
LINE
  5
19F
330
1F
100
AcDbEntity
  8
0
  6
Continuous
 62
     7
370
    25
100
AcDbLine
 10
624.5082395042
 20
148.6699416408
 30
0.0
 11
617.3891852098
 21
152.7801295541
 31
0.0
  0
ARC
  5
1A0
330
1F
100
AcDbEntity
  8
0
  6
Continuous
 62
     7
370
    25
100
AcDbCircle
 10
615.8891852098
 20
150.1820533427
 30
0.0
 40
3.000000000026396
100
AcDbArc
 50
59.9999999999
 51
240.0000000001
  0
LINE
  5
1A1
330
1F
100
AcDbEntity
  8
0
  6
Continuous
 62
     7
370
    25
100
AcDbLine
 10
614.3891852097
 20
147.5839771313
 30
0.0
 11
621.5082395042
 21
143.473789218
 31
0.0
  0
ARC
  5
1A2
330
1F
100
AcDbEntity
  8
0
  6
Continuous
 62
     7
370
    25
100
AcDbCircle
 10
620.0082395042
 20
140.8757130067
 30
0.0
 40
2.999999999998921
100
AcDbArc
 50
0.0
 51
60.0
  0
ARC
  5
1A3
330
1F
100
AcDbEntity
  8
0
  6
Continuous
 62
     7
370
    25
100
AcDbCircle
 10
632.0082395042
 20
140.8757130067
 30
0.0
 40
9.000000000022283
100
AcDbArc
 50
180.0000000001
 51
242.720387264
  0
ARC
  5
1A4
330
1F
100
AcDbEntity
  8
0
  6
Continuous
 62
     7
370
    25
100
AcDbCircle
 10
626.5082395042
 20
130.2103485028
 30
0.0
 40
3.0
100
AcDbArc
 50
0.0000000001
 51
62.7203872642
  0
LINE
  5
1A5
330
1F
100
AcDbEntity
  8
0
  6
Continuous
 62
     7
370
    25
100
AcDbLine
 10
629.5082395042
 20
130.2103485028
 30
0.0
 11
629.5082395042
 21
127.8441979377
 31
0.0
  0
ARC
  5
1A6
330
1F
100
AcDbEntity
  8
0
  6
Continuous
 62
     7
370
    25
100
AcDbCircle
 10
632.0082395042
 20
127.8441979377
 30
0.0
 40
2.50000000000955
100
AcDbArc
 50
179.9999999998
 51
0.0000000001
  0
LINE
  5
1A7
330
1F
100
AcDbEntity
  8
0
  6
Continuous
 62
     7
370
    25
100
AcDbLine
 10
634.5082395042
 20
127.8441979377
 30
0.0
 11
634.5082395042
 21
130.2103485028
 31
0.0
  0
ARC
  5
1A8
330
1F
100
AcDbEntity
  8
0
  6
Continuous
 62
     7
370
    25
100
AcDbCircle
 10
637.5082395042
 20
130.2103485028
 30
0.0
 40
3.000000000000912
100
AcDbArc
 50
117.2796127361
 51
179.9999999999
  0
CIRCLE
  5
1A9
330
1F
100
AcDbEntity
  8
0
  6
Continuous
 62
     7
370
    25
100
AcDbCircle
 10
626.2126845465
 20
139.3227987361
 30
0.0
 40
1.099999999999909
  0
CIRCLE
  5
1AA
330
1F
100
AcDbEntity
  8
0
  6
Continuous
 62
     7
370
    25
100
AcDbCircle
 10
637.803794462
 20
142.4286272773
 30
0.0
 40
1.100000000000023
  0
CIRCLE
  5
1AB
330
1F
100
AcDbEntity
  8
0
  6
Continuous
 62
     7
370
    25
100
AcDbCircle
 10
633.5611537748
 20
135.080158049
 30
0.0
 40
1.099999999999909
  0
ENDSEC
  0
SECTION
  2
OBJECTS
  0
DICTIONARY
  5
C
330
0
100
AcDbDictionary
281
     1
  3
ACAD_GROUP
350
D
  3
ACAD_LAYOUT
350
1A
  3
ACAD_MLINESTYLE
350
17
  3
ACAD_PLOTSETTINGS
350
19
  3
ACAD_PLOTSTYLENAME
350
E
  3
ACAD_SCALELIST
350
47
  0
DICTIONARY
  5
D
102
{ACAD_REACTORS
330
C
102
}
330
C
100
AcDbDictionary
281
     1
  0
DICTIONARY
  5
1A
102
{ACAD_REACTORS
330
C
102
}
330
C
100
AcDbDictionary
281
     1
  3
Layout1
350
1E
  3
Layout2
350
26
  3
Model
350
22
  0
DICTIONARY
  5
17
102
{ACAD_REACTORS
330
C
102
}
330
C
100
AcDbDictionary
281
     1
  3
Standard
350
18
  0
DICTIONARY
  5
19
102
{ACAD_REACTORS
330
C
102
}
330
C
100
AcDbDictionary
281
     1
  0
ACDBDICTIONARYWDFLT
  5
E
102
{ACAD_REACTORS
330
C
102
}
330
C
100
AcDbDictionary
281
     1
  3
Normal
350
F
100
AcDbDictionaryWithDefault
340
F
  0
DICTIONARY
  5
47
102
{ACAD_REACTORS
330
C
102
}
330
C
100
AcDbDictionary
281
     1
  3
A0
350
48
  3
A1
350
49
  3
A2
350
4A
  3
A3
350
4B
  3
A4
350
4C
  3
A5
350
4D
  3
A6
350
4E
  3
A7
350
4F
  3
A8
350
50
  3
A9
350
51
  3
B0
350
52
  3
B1
350
53
  3
B2
350
54
  3
B3
350
55
  3
B4
350
56
  3
B5
350
57
  3
B6
350
58
  3
B7
350
59
  3
B8
350
5A
  3
B9
350
5B
  3
C0
350
5C
  3
C1
350
5D
  3
C2
350
5E
  3
C3
350
5F
  3
C4
350
60
  3
C5
350
61
  3
C6
350
62
  3
C7
350
63
  3
C8
350
64
  3
C9
350
65
  3
D0
350
66
  3
D1
350
67
  3
D2
350
68
  0
LAYOUT
  5
1E
102
{ACAD_REACTORS
330
1A
102
}
330
1A
100
AcDbPlotSettings
  1

  2
none_device
  4

  6

 40
0.0
 41
0.0
 42
0.0
 43
0.0
 44
0.0
 45
0.0
 46
0.0
 47
0.0
 48
0.0
 49
0.0
140
0.0
141
0.0
142
1.0
143
1.0
 70
   688
 72
     1
 73
     0
 74
     5
  7

 75
    16
147
1.0
148
0.0
149
0.0
100
AcDbLayout
  1
Layout1
 70
     1
 71
     1
 10
0.0
 20
0.0
 11
420.0
 21
297.0
 12
0.0
 22
0.0
 32
0.0
 14
1.0000000000E+20
 24
1.0000000000E+20
 34
1.0000000000E+20
 15
-1.0000000000E+20
 25
-1.0000000000E+20
 35
-1.0000000000E+20
146
0.0
 13
0.0
 23
0.0
 33
0.0
 16
1.0
 26
0.0
 36
0.0
 17
0.0
 27
1.0
 37
0.0
 76
     0
330
1B
  0
LAYOUT
  5
26
102
{ACAD_REACTORS
330
1A
102
}
330
1A
100
AcDbPlotSettings
  1

  2
none_device
  4

  6

 40
0.0
 41
0.0
 42
0.0
 43
0.0
 44
0.0
 45
0.0
 46
0.0
 47
0.0
 48
0.0
 49
0.0
140
0.0
141
0.0
142
1.0
143
1.0
 70
   688
 72
     1
 73
     0
 74
     5
  7

 75
    16
147
1.0
148
0.0
149
0.0
100
AcDbLayout
  1
Layout2
 70
     1
 71
     2
 10
0.0
 20
0.0
 11
0.0
 21
0.0
 12
0.0
 22
0.0
 32
0.0
 14
0.0
 24
0.0
 34
0.0
 15
0.0
 25
0.0
 35
0.0
146
0.0
 13
0.0
 23
0.0
 33
0.0
 16
1.0
 26
0.0
 36
0.0
 17
0.0
 27
1.0
 37
0.0
 76
     0
330
23
  0
LAYOUT
  5
22
102
{ACAD_REACTORS
330
1A
102
}
330
1A
100
AcDbPlotSettings
  1

  2
none_device
  4
ANSI_A_(11.00_x_8.50_Inches)
  6

 40
6.35
 41
19.05
 42
6.35000508
 43
19.05000254
 44
279.4
 45
215.9
 46
-516.008797992
 47
-125.5653542227
 48
0.0
 49
0.0
140
0.0
141
0.0
142
0.0451062999
143
1.0
 70
  1696
 72
     0
 73
     0
 74
     0
  7

 75
     0
147
0.0179189148
148
-1300.4909072572
149
0.0
100
AcDbLayout
  1
Model
 70
     1
 71
     0
 10
0.0
 20
0.0
 11
420.0
 21
297.0
 12
0.0
 22
0.0
 32
0.0
 14
453.8109016625
 24
93.9118890664
 34
0.0
 15
679.7472470636
 25
280.4711949261
 35
0.0
146
0.0
 13
0.0
 23
0.0
 33
0.0
 16
1.0
 26
0.0
 36
0.0
 17
0.0
 27
1.0
 37
0.0
 76
     0
330
1F
331
29
  0
MLINESTYLE
  5
18
102
{ACAD_REACTORS
330
17
102
}
330
17
100
AcDbMlineStyle
  2
Standard
 70
     0
  3

 62
   256
 51
90.0
 52
90.0
 71
     2
 49
0.5
 62
   256
  6
BYLAYER
 49
-0.5
 62
   256
  6
BYLAYER
  0
ACDBPLACEHOLDER
  5
F
102
{ACAD_REACTORS
330
E
102
}
330
E
  0
SCALE
  5
48
102
{ACAD_REACTORS
330
47
102
}
330
47
100
AcDbScale
 70
     0
300
1:1
140
1.0
141
1.0
290
     1
  0
SCALE
  5
49
102
{ACAD_REACTORS
330
47
102
}
330
47
100
AcDbScale
 70
     0
300
1:2
140
1.0
141
2.0
290
     0
  0
SCALE
  5
4A
102
{ACAD_REACTORS
330
47
102
}
330
47
100
AcDbScale
 70
     0
300
1:4
140
1.0
141
4.0
290
     0
  0
SCALE
  5
4B
102
{ACAD_REACTORS
330
47
102
}
330
47
100
AcDbScale
 70
     0
300
1:5
140
1.0
141
5.0
290
     0
  0
SCALE
  5
4C
102
{ACAD_REACTORS
330
47
102
}
330
47
100
AcDbScale
 70
     0
300
1:8
140
1.0
141
8.0
290
     0
  0
SCALE
  5
4D
102
{ACAD_REACTORS
330
47
102
}
330
47
100
AcDbScale
 70
     0
300
1:10
140
1.0
141
10.0
290
     0
  0
SCALE
  5
4E
102
{ACAD_REACTORS
330
47
102
}
330
47
100
AcDbScale
 70
     0
300
1:16
140
1.0
141
16.0
290
     0
  0
SCALE
  5
4F
102
{ACAD_REACTORS
330
47
102
}
330
47
100
AcDbScale
 70
     0
300
1:20
140
1.0
141
20.0
290
     0
  0
SCALE
  5
50
102
{ACAD_REACTORS
330
47
102
}
330
47
100
AcDbScale
 70
     0
300
1:30
140
1.0
141
30.0
290
     0
  0
SCALE
  5
51
102
{ACAD_REACTORS
330
47
102
}
330
47
100
AcDbScale
 70
     0
300
1:40
140
1.0
141
40.0
290
     0
  0
SCALE
  5
52
102
{ACAD_REACTORS
330
47
102
}
330
47
100
AcDbScale
 70
     0
300
1:50
140
1.0
141
50.0
290
     0
  0
SCALE
  5
53
102
{ACAD_REACTORS
330
47
102
}
330
47
100
AcDbScale
 70
     0
300
1:100
140
1.0
141
100.0
290
     0
  0
SCALE
  5
54
102
{ACAD_REACTORS
330
47
102
}
330
47
100
AcDbScale
 70
     0
300
2:1
140
2.0
141
1.0
290
     0
  0
SCALE
  5
55
102
{ACAD_REACTORS
330
47
102
}
330
47
100
AcDbScale
 70
     0
300
4:1
140
4.0
141
1.0
290
     0
  0
SCALE
  5
56
102
{ACAD_REACTORS
330
47
102
}
330
47
100
AcDbScale
 70
     0
300
8:1
140
8.0
141
1.0
290
     0
  0
SCALE
  5
57
102
{ACAD_REACTORS
330
47
102
}
330
47
100
AcDbScale
 70
     0
300
10:1
140
10.0
141
1.0
290
     0
  0
SCALE
  5
58
102
{ACAD_REACTORS
330
47
102
}
330
47
100
AcDbScale
 70
     0
300
100:1
140
100.0
141
1.0
290
     0
  0
SCALE
  5
59
102
{ACAD_REACTORS
330
47
102
}
330
47
100
AcDbScale
 70
     0
300
1/128" = 1'-0"
140
0.0078125
141
12.0
290
     0
  0
SCALE
  5
5A
102
{ACAD_REACTORS
330
47
102
}
330
47
100
AcDbScale
 70
     0
300
1/64" = 1'-0"
140
0.015625
141
12.0
290
     0
  0
SCALE
  5
5B
102
{ACAD_REACTORS
330
47
102
}
330
47
100
AcDbScale
 70
     0
300
1/32" = 1'-0"
140
0.03125
141
12.0
290
     0
  0
SCALE
  5
5C
102
{ACAD_REACTORS
330
47
102
}
330
47
100
AcDbScale
 70
     0
300
1/16" = 1'-0"
140
0.0625
141
12.0
290
     0
  0
SCALE
  5
5D
102
{ACAD_REACTORS
330
47
102
}
330
47
100
AcDbScale
 70
     0
300
3/32" = 1'-0"
140
0.09375
141
12.0
290
     0
  0
SCALE
  5
5E
102
{ACAD_REACTORS
330
47
102
}
330
47
100
AcDbScale
 70
     0
300
1/8" = 1'-0"
140
0.125
141
12.0
290
     0
  0
SCALE
  5
5F
102
{ACAD_REACTORS
330
47
102
}
330
47
100
AcDbScale
 70
     0
300
3/16" = 1'-0"
140
0.1875
141
12.0
290
     0
  0
SCALE
  5
60
102
{ACAD_REACTORS
330
47
102
}
330
47
100
AcDbScale
 70
     0
300
1/4" = 1'-0"
140
0.25
141
12.0
290
     0
  0
SCALE
  5
61
102
{ACAD_REACTORS
330
47
102
}
330
47
100
AcDbScale
 70
     0
300
3/8" = 1'-0"
140
0.375
141
12.0
290
     0
  0
SCALE
  5
62
102
{ACAD_REACTORS
330
47
102
}
330
47
100
AcDbScale
 70
     0
300
1/2" = 1'-0"
140
0.5
141
12.0
290
     0
  0
SCALE
  5
63
102
{ACAD_REACTORS
330
47
102
}
330
47
100
AcDbScale
 70
     0
300
3/4" = 1'-0"
140
0.75
141
12.0
290
     0
  0
SCALE
  5
64
102
{ACAD_REACTORS
330
47
102
}
330
47
100
AcDbScale
 70
     0
300
1" = 1'-0"
140
1.0
141
12.0
290
     0
  0
SCALE
  5
65
102
{ACAD_REACTORS
330
47
102
}
330
47
100
AcDbScale
 70
     0
300
1-1/2" = 1'-0"
140
1.5
141
12.0
290
     0
  0
SCALE
  5
66
102
{ACAD_REACTORS
330
47
102
}
330
47
100
AcDbScale
 70
     0
300
3" = 1'-0"
140
3.0
141
12.0
290
     0
  0
SCALE
  5
67
102
{ACAD_REACTORS
330
47
102
}
330
47
100
AcDbScale
 70
     0
300
6" = 1'-0"
140
6.0
141
12.0
290
     0
  0
SCALE
  5
68
102
{ACAD_REACTORS
330
47
102
}
330
47
100
AcDbScale
 70
     0
300
1'-0" = 1'-0"
140
12.0
141
12.0
290
     0
  0
ENDSEC
  0
EOF
